<svg width="18" height="10" viewBox="0 0 18 10" fill="none" xmlns="http://www.w3.org/2000/svg">
<path d="M4.45997 0.342861L1.27461 3.52752C0.885241 3.91882 0.666656 4.44839 0.666656 5.00041C0.666656 5.55243 0.885241 6.08199 1.27461 6.4733L4.45927 9.65796C4.52333 9.72428 4.59996 9.77718 4.68468 9.81358C4.7694 9.84997 4.86053 9.86913 4.95273 9.86993C5.04494 9.87073 5.13638 9.85316 5.22173 9.81824C5.30707 9.78333 5.3846 9.73176 5.4498 9.66656C5.51501 9.60136 5.56657 9.52383 5.60149 9.43848C5.6364 9.35314 5.65397 9.2617 5.65317 9.16949C5.65237 9.07729 5.63321 8.98616 5.59682 8.90144C5.56043 8.81672 5.50752 8.74009 5.4412 8.67603L2.46139 5.69484H16.6389C16.8231 5.69484 16.9997 5.62168 17.1299 5.49144C17.2602 5.36121 17.3333 5.18458 17.3333 5.00041C17.3333 4.81623 17.2602 4.6396 17.1299 4.50937C16.9997 4.37914 16.8231 4.30598 16.6389 4.30598H2.4607L5.44189 1.32479C5.50822 1.26073 5.56112 1.1841 5.59751 1.09938C5.63391 1.01465 5.65307 0.92353 5.65387 0.831324C5.65467 0.739118 5.6371 0.647676 5.60218 0.562333C5.56726 0.47699 5.5157 0.399455 5.4505 0.334253C5.3853 0.269051 5.30776 0.217488 5.22242 0.182571C5.13708 0.147654 5.04563 0.130084 4.95343 0.130886C4.86122 0.131687 4.7701 0.150844 4.68538 0.187238C4.60065 0.223632 4.52403 0.276536 4.45997 0.342861Z" fill="#F3F6FB"/>
</svg>
