<svg width="16" height="16" viewBox="0 0 16 16" fill="none" xmlns="http://www.w3.org/2000/svg">
<g clip-path="url(#clip0)">
<path d="M15.3332 5.33333C14.9652 5.33333 14.6665 5.03533 14.6665 4.66667V2C14.6665 1.632 14.3672 1.33333 13.9998 1.33333H11.3332C10.9652 1.33333 10.6665 1.03533 10.6665 0.666667C10.6665 0.298 10.9652 0 11.3332 0H13.9998C15.1025 0 15.9998 0.897333 15.9998 2V4.66667C15.9998 5.03533 15.7012 5.33333 15.3332 5.33333Z" fill="#73879B"/>
<path d="M13.9998 16H11.3332C10.9652 16 10.6665 15.702 10.6665 15.3333C10.6665 14.9646 10.9652 14.6666 11.3332 14.6666H13.9998C14.3672 14.6666 14.6665 14.368 14.6665 14V11.3333C14.6665 10.9646 14.9652 10.6666 15.3332 10.6666C15.7012 10.6666 15.9998 10.9646 15.9998 11.3333V14C15.9998 15.1026 15.1025 16 13.9998 16Z" fill="#73879B"/>
<path d="M4.66667 16H2C0.897333 16 0 15.1026 0 14V11.3333C0 10.9646 0.298667 10.6666 0.666667 10.6666C1.03467 10.6666 1.33333 10.9646 1.33333 11.3333V14C1.33333 14.368 1.63267 14.6666 2 14.6666H4.66667C5.03467 14.6666 5.33333 14.9646 5.33333 15.3333C5.33333 15.702 5.03467 16 4.66667 16Z" fill="#73879B"/>
<path d="M0.666667 5.33333C0.298667 5.33333 0 5.03533 0 4.66667V2C0 0.897333 0.897333 0 2 0H4.66667C5.03467 0 5.33333 0.298 5.33333 0.666667C5.33333 1.03533 5.03467 1.33333 4.66667 1.33333H2C1.63267 1.33333 1.33333 1.632 1.33333 2V4.66667C1.33333 5.03533 1.03467 5.33333 0.666667 5.33333Z" fill="#73879B"/>
<path d="M12.0002 7.33337C11.6322 7.33337 11.3335 7.03537 11.3335 6.66671V4.66671H4.66683V6.66671C4.66683 7.03537 4.36816 7.33337 4.00016 7.33337C3.63216 7.33337 3.3335 7.03537 3.3335 6.66671V4.66671C3.3335 3.93137 3.9315 3.33337 4.66683 3.33337H11.3335C12.0688 3.33337 12.6668 3.93137 12.6668 4.66671V6.66671C12.6668 7.03537 12.3682 7.33337 12.0002 7.33337Z" fill="#73879B"/>
<path d="M14 9.33329C14 9.70196 13.7013 9.99996 13.3333 9.99996H12.6667V11.3333C12.6667 12.0686 12.0687 12.6666 11.3333 12.6666H4.66667C3.93133 12.6666 3.33333 12.0686 3.33333 11.3333V9.99996H2.66667C2.29867 9.99996 2 9.70196 2 9.33329C2 8.96463 2.29867 8.66663 2.66667 8.66663H13.3333C13.7013 8.66663 14 8.96463 14 9.33329Z" fill="#73879B"/>
</g>
<defs>
<clipPath id="clip0">
<rect width="16" height="16" fill="white"/>
</clipPath>
</defs>
</svg>
