<svg width="18" height="10" viewBox="0 0 18 10" fill="none" xmlns="http://www.w3.org/2000/svg">
<path d="M16.9845 1.07543C16.761 0.85205 16.458 0.726562 16.1421 0.726563C15.8261 0.726562 15.5231 0.85205 15.2997 1.07543L9.83525 6.53983C9.6087 6.75728 9.30684 6.8787 8.99283 6.8787C8.67881 6.8787 8.37696 6.75728 8.15041 6.53983L2.686 1.07543C2.46128 0.85838 2.16029 0.73828 1.84787 0.740995C1.53546 0.743709 1.2366 0.869022 1.01568 1.08994C0.79476 1.31086 0.669447 1.60972 0.666732 1.92214C0.664017 2.23455 0.784118 2.53554 1.00117 2.76027L6.46438 8.22467C6.79632 8.55667 7.19041 8.82003 7.62415 8.99971C8.05788 9.17939 8.52276 9.27187 8.99223 9.27187C9.46171 9.27187 9.92659 9.17939 10.3603 8.99971C10.7941 8.82003 11.1881 8.55667 11.5201 8.22467L16.9845 2.76027C17.2079 2.53682 17.3334 2.2338 17.3334 1.91785C17.3334 1.60189 17.2079 1.29888 16.9845 1.07543Z" fill="#F3F6FB"/>
</svg>
