<svg width="32" height="32" viewBox="0 0 32 32" fill="none" xmlns="http://www.w3.org/2000/svg">
<path d="M6.75002 2.66667H10.9167C13.0834 2.66667 14.8334 4.41667 14.8334 6.58333V10.8333C14.8334 13 13.0834 14.75 10.9167 14.75H6.58335C4.41669 14.75 2.66669 13 2.66669 10.8333V6.66667C2.66669 4.5 4.50002 2.66667 6.75002 2.66667ZM21.25 2.66667H25.4167C27.5834 2.66667 29.3334 4.41667 29.3334 6.58333V10.8333C29.3334 13 27.5834 14.75 25.4167 14.75H21.1667C19 14.75 17.25 13 17.25 10.8333V6.66667C17.25 4.5 19 2.66667 21.25 2.66667ZM26.4167 5.58333C26 5.33333 25.4167 5.41667 25.1667 5.91667L22.8334 9.75L21.5834 7.5C21.3334 7.08333 20.75 6.91667 20.3334 7.16667C19.9167 7.41667 19.75 8 20 8.41667L22 11.5833C22.0834 11.8333 22.4167 12 22.6667 12C22.75 12 23.1667 12 23.25 12C23.5 12 23.75 11.8333 23.8334 11.5833L26.8334 6.83333C27 6.41667 26.8334 5.83333 26.4167 5.58333ZM21.25 17.25H25.4167C27.5834 17.25 29.3334 19 29.3334 21.1667V25.4167C29.3334 27.5833 27.5834 29.3333 25.4167 29.3333H21.1667C19 29.3333 17.25 27.5833 17.25 25.4167V21.25C17.25 19.0833 19 17.25 21.25 17.25ZM26.4167 20.1667C26 19.9167 25.4167 20 25.1667 20.5L22.8334 24.3333L21.5834 22.0833C21.3334 21.6667 20.75 21.5 20.3334 21.75C19.9167 22 19.75 22.5833 20 23L22 26.1667C22.0834 26.4167 22.4167 26.5833 22.6667 26.5833C22.75 26.5833 23.1667 26.5833 23.25 26.5833C23.5 26.5833 23.75 26.4167 23.8334 26.1667L26.8334 21.4167C27 21 26.8334 20.4167 26.4167 20.1667ZM6.75002 17.25H10.9167C13.0834 17.25 14.8334 19 14.8334 21.1667V25.4167C14.8334 27.5833 13.0834 29.3333 10.9167 29.3333H6.58335C4.41669 29.3333 2.66669 27.5833 2.66669 25.4167V21.25C2.66669 19 4.50002 17.25 6.75002 17.25Z" fill="#A5B4C3"/>
</svg>
