<svg width="14" height="14" viewBox="0 0 14 14" fill="none" xmlns="http://www.w3.org/2000/svg">
<path d="M1.31667 8.42938L3.54257 10.6553C3.84315 10.9558 4.25078 11.1246 4.67582 11.1246C5.10085 11.1246 5.50848 10.9558 5.80907 10.6553L12.6834 3.78097C12.7807 3.6802 12.8346 3.54524 12.8333 3.40515C12.8321 3.26505 12.7759 3.13104 12.6769 3.03198C12.5778 2.93292 12.4438 2.87673 12.3037 2.87551C12.1636 2.87429 12.0286 2.92815 11.9279 3.02547L5.05357 9.89978C4.95337 9.99994 4.81749 10.0562 4.67582 10.0562C4.53414 10.0562 4.39826 9.99994 4.29807 9.89978L2.07217 7.67388C1.9714 7.57655 1.83644 7.5227 1.69634 7.52392C1.55625 7.52514 1.42224 7.58133 1.32318 7.68039C1.22412 7.77945 1.16792 7.91346 1.16671 8.05356C1.16549 8.19365 1.21934 8.32861 1.31667 8.42938Z" fill="white"/>
</svg>
