<svg width="24" height="24" viewBox="0 0 24 24" fill="none" xmlns="http://www.w3.org/2000/svg">
<path d="M12.0001 15.3322C13.8403 15.3322 15.3322 13.8403 15.3322 12.0001C15.3322 10.1598 13.8403 8.66797 12.0001 8.66797C10.1598 8.66797 8.66797 10.1598 8.66797 12.0001C8.66797 13.8403 10.1598 15.3322 12.0001 15.3322Z" fill="#A5B4C3"/>
<path d="M21.389 9.84991C20.097 7.74569 17.1581 4.21533 12 4.21533C6.84191 4.21533 3.903 7.74569 2.61098 9.84991C2.21157 10.4959 2 11.2404 2 11.9999C2 12.7595 2.21157 13.504 2.61098 14.15C3.903 16.2542 6.84191 19.7846 12 19.7846C17.1581 19.7846 20.097 16.2542 21.389 14.15C21.7884 13.504 22 12.7595 22 11.9999C22 11.2404 21.7884 10.4959 21.389 9.84991ZM12 16.9981C11.0115 16.9981 10.0451 16.705 9.22318 16.1558C8.40124 15.6066 7.76061 14.8259 7.38231 13.9127C7.00401 12.9994 6.90503 11.9944 7.09789 11.0249C7.29074 10.0553 7.76677 9.16473 8.46578 8.46572C9.16478 7.76672 10.0554 7.29069 11.0249 7.09784C11.9945 6.90498 12.9994 7.00396 13.9127 7.38226C14.826 7.76056 15.6066 8.40118 16.1558 9.22313C16.705 10.0451 16.9981 11.0114 16.9981 11.9999C16.9968 13.3251 16.4698 14.5957 15.5328 15.5327C14.5957 16.4698 13.3252 16.9968 12 16.9981Z" fill="#A5B4C3"/>
</svg>
