<svg width="24" height="24" viewBox="0 0 24 24" fill="none" xmlns="http://www.w3.org/2000/svg">
<path d="M21.9589 11.1777L21.3714 7.01103C21.227 6.01932 20.7316 5.11231 19.9753 4.45478C19.219 3.79725 18.2519 3.43283 17.2498 3.42773H8.6665V16.4143L10.0215 19.1642C10.2905 19.7078 10.7456 20.1367 11.3042 20.373C11.8627 20.6093 12.4875 20.6373 13.0649 20.4518C13.6423 20.2663 14.1339 19.8796 14.4503 19.3623C14.7667 18.8449 14.8869 18.2311 14.7889 17.6326L14.5089 15.9276H17.8331C18.4296 15.9276 19.0191 15.7996 19.5618 15.5522C20.1045 15.3047 20.5878 14.9436 20.9789 14.4933C21.3701 14.043 21.66 13.5139 21.829 12.9419C21.9981 12.3699 22.0424 11.7683 21.9589 11.1777Z" fill="#A5B4C3"/>
<path d="M2 7.59436V11.761C2.00132 12.8656 2.44073 13.9247 3.22184 14.7058C4.00294 15.4869 5.06197 15.9263 6.16662 15.9276H6.99995V3.42773H6.16662C5.06197 3.42906 4.00294 3.86846 3.22184 4.64957C2.44073 5.43068 2.00132 6.48971 2 7.59436H2Z" fill="#A5B4C3"/>
</svg>
