<svg width="32" height="32" viewBox="0 0 32 32" fill="none" xmlns="http://www.w3.org/2000/svg">
<path d="M23.7777 7.11144H22.5555C22.2976 5.85745 21.6153 4.73071 20.6236 3.92112C19.6318 3.11154 18.3913 2.66861 17.1111 2.66699L14.8888 2.66699C13.6086 2.66861 12.3681 3.11154 11.3763 3.92112C10.3846 4.73071 9.70229 5.85745 9.4444 7.11144H8.22218C6.7493 7.1132 5.33725 7.69908 4.29576 8.74057C3.25427 9.78206 2.66839 11.1941 2.66663 12.667L2.66663 16.0003H29.3333V12.667C29.3315 11.1941 28.7456 9.78206 27.7042 8.74057C26.6627 7.69908 25.2506 7.1132 23.7777 7.11144V7.11144ZM11.76 7.11144C11.9889 6.46376 12.4124 5.90265 12.9725 5.50487C13.5326 5.10709 14.2019 4.89206 14.8888 4.88921H17.1111C17.798 4.89206 18.4673 5.10709 19.0274 5.50487C19.5875 5.90265 20.011 6.46376 20.24 7.11144H11.76Z" fill="#73C8EB"/>
<path d="M17.1111 19.3338C17.1111 19.6285 16.994 19.9111 16.7856 20.1194C16.5773 20.3278 16.2946 20.4449 16 20.4449C15.7053 20.4449 15.4227 20.3278 15.2143 20.1194C15.0059 19.9111 14.8888 19.6285 14.8888 19.3338V18.2227H2.66663V23.7782C2.66839 25.2511 3.25427 26.6631 4.29576 27.7046C5.33725 28.7461 6.7493 29.332 8.22218 29.3338H23.7777C25.2506 29.332 26.6627 28.7461 27.7042 27.7046C28.7456 26.6631 29.3315 25.2511 29.3333 23.7782V18.2227H17.1111V19.3338Z" fill="#73C8EB"/>
</svg>
