<svg width="32" height="32" viewBox="0 0 32 32" fill="none" xmlns="http://www.w3.org/2000/svg">
<path d="M16 16.0013C19.6819 16.0013 22.6667 13.0165 22.6667 9.33463C22.6667 5.65274 19.6819 2.66797 16 2.66797C12.3181 2.66797 9.33337 5.65274 9.33337 9.33463C9.33337 13.0165 12.3181 16.0013 16 16.0013Z" fill="#73C8EB"/>
<path d="M16 18.2227C13.3487 18.2256 10.8069 19.2801 8.93218 21.1548C7.05745 23.0296 6.00294 25.5714 6 28.2227C6 28.5173 6.11706 28.8 6.32544 29.0083C6.53381 29.2167 6.81643 29.3338 7.11111 29.3338H24.8889C25.1836 29.3338 25.4662 29.2167 25.6746 29.0083C25.8829 28.8 26 28.5173 26 28.2227C25.9971 25.5714 24.9425 23.0296 23.0678 21.1548C21.1931 19.2801 18.6513 18.2256 16 18.2227Z" fill="#73C8EB"/>
</svg>
