<svg width="20" height="20" viewBox="0 0 20 20" fill="none" xmlns="http://www.w3.org/2000/svg">
<path d="M17.9456 2.05472C17.6973 1.80646 17.3605 1.66699 17.0094 1.66699C16.6582 1.66699 16.3215 1.80646 16.0731 2.05472L10 8.12781L3.92693 2.05472C3.67859 1.80646 3.34182 1.66699 2.99067 1.66699C2.63952 1.66699 2.30275 1.80646 2.05441 2.05472C1.80615 2.30306 1.66669 2.63983 1.66669 2.99098C1.66669 3.34213 1.80615 3.6789 2.05441 3.92723L8.12751 10.0003L2.05441 16.0734C1.80615 16.3218 1.66669 16.6585 1.66669 17.0097C1.66669 17.3608 1.80615 17.6976 2.05441 17.9459C2.30275 18.1942 2.63952 18.3337 2.99067 18.3337C3.34182 18.3337 3.67859 18.1942 3.92693 17.9459L10 11.8728L16.0731 17.9459C16.3215 18.1942 16.6582 18.3337 17.0094 18.3337C17.3605 18.3337 17.6973 18.1942 17.9456 17.9459C18.1939 17.6976 18.3334 17.3608 18.3334 17.0097C18.3334 16.6585 18.1939 16.3218 17.9456 16.0734L11.8725 10.0003L17.9456 3.92723C18.1939 3.6789 18.3334 3.34213 18.3334 2.99098C18.3334 2.63983 18.1939 2.30306 17.9456 2.05472Z" fill="#A5B4C3"/>
</svg>
