<svg width="24" height="24" viewBox="0 0 24 24" fill="none" xmlns="http://www.w3.org/2000/svg">
<path d="M3.33917 17C3.50319 17.2847 3.72171 17.5342 3.98224 17.7344C4.24277 17.9345 4.54019 18.0814 4.85751 18.1665C5.17482 18.2516 5.50581 18.2734 5.83154 18.2305C6.15727 18.1877 6.47135 18.081 6.75584 17.9167L7.12667 17.7025C7.82668 18.3014 8.63129 18.7659 9.50001 19.0725V19.5C9.50001 20.163 9.7634 20.7989 10.2322 21.2678C10.7011 21.7366 11.337 22 12 22C12.663 22 13.2989 21.7366 13.7678 21.2678C14.2366 20.7989 14.5 20.163 14.5 19.5V19.0725C15.3688 18.7654 16.1735 18.3003 16.8733 17.7008L17.2458 17.9158C17.8205 18.2474 18.5033 18.337 19.144 18.1651C19.7848 17.9932 20.331 17.5738 20.6625 16.9992C20.994 16.4245 21.0837 15.7417 20.9118 15.101C20.7399 14.4602 20.3205 13.914 19.7458 13.5825L19.3758 13.3692C19.5424 12.4629 19.5424 11.5338 19.3758 10.6275L19.7458 10.4142C20.0304 10.25 20.2798 10.0314 20.4798 9.77088C20.6799 9.51034 20.8267 9.21295 20.9118 8.89568C20.9969 8.57841 21.0187 8.24749 20.9759 7.9218C20.9332 7.59611 20.8267 7.28203 20.6625 6.9975C20.4984 6.71297 20.2798 6.46356 20.0192 6.2635C19.7587 6.06345 19.4613 5.91667 19.144 5.83155C18.8268 5.74643 18.4958 5.72463 18.1701 5.76741C17.8444 5.81018 17.5304 5.91668 17.2458 6.08083L16.875 6.295C16.1743 5.69681 15.3691 5.2332 14.5 4.9275V4.5C14.5 3.83696 14.2366 3.20107 13.7678 2.73223C13.2989 2.26339 12.663 2 12 2C11.337 2 10.7011 2.26339 10.2322 2.73223C9.7634 3.20107 9.50001 3.83696 9.50001 4.5V4.9275C8.63116 5.23464 7.82655 5.69967 7.12667 6.29917L6.75417 6.08333C6.17954 5.75181 5.49674 5.66214 4.85599 5.83405C4.21524 6.00596 3.66903 6.42536 3.33751 7C3.00598 7.57464 2.91632 8.25743 3.08822 8.89818C3.26013 9.53893 3.67954 10.0851 4.25417 10.4167L4.62417 10.63C4.4576 11.5363 4.4576 12.4654 4.62417 13.3717L4.25417 13.585C3.681 13.9175 3.26291 14.4635 3.09142 15.1035C2.91993 15.7436 3.00901 16.4255 3.33917 17ZM12 8.66667C12.6593 8.66667 13.3037 8.86216 13.8519 9.22843C14.4001 9.59471 14.8273 10.1153 15.0796 10.7244C15.3319 11.3335 15.3979 12.0037 15.2693 12.6503C15.1407 13.2969 14.8232 13.8908 14.357 14.357C13.8909 14.8232 13.2969 15.1407 12.6503 15.2693C12.0037 15.3979 11.3335 15.3319 10.7244 15.0796C10.1153 14.8273 9.59471 14.4001 9.22844 13.8519C8.86217 13.3037 8.66667 12.6593 8.66667 12C8.66667 11.1159 9.01786 10.2681 9.64298 9.64298C10.2681 9.01786 11.116 8.66667 12 8.66667Z" fill="#73C8EB"/>
</svg>
