<svg width="24" height="24" viewBox="0 0 24 24" fill="none" xmlns="http://www.w3.org/2000/svg">
<path d="M16.7205 4.42527C16.9811 4.15537 17.1254 3.79387 17.1221 3.41865C17.1189 3.04342 16.9684 2.68449 16.703 2.41916C16.4377 2.15382 16.0788 2.00331 15.7035 2.00005C15.3283 1.99679 14.9668 2.14104 14.6969 2.40172L8.13396 8.96467C7.3291 9.76977 6.87695 10.8616 6.87695 12C6.87695 13.1384 7.3291 14.2302 8.13396 15.0353L14.6969 21.5983C14.9668 21.859 15.3283 22.0032 15.7035 21.9999C16.0788 21.9967 16.4377 21.8462 16.703 21.5808C16.9684 21.3155 17.1189 20.9566 17.1221 20.5814C17.1254 20.2061 16.9811 19.8446 16.7205 19.5747L10.1532 13.0118C9.88493 12.7434 9.73422 12.3795 9.73422 12C9.73422 11.6205 9.88493 11.2566 10.1532 10.9882L16.7205 4.42527Z" fill="#A5B4C3"/>
</svg>
