<svg width="32" height="32" viewBox="0 0 32 32" fill="none" xmlns="http://www.w3.org/2000/svg">
<path fill-rule="evenodd" clip-rule="evenodd" d="M20.8178 22.3896C18.835 24.0157 16.3491 24.9029 13.7848 24.8996C11.2608 24.9001 8.81181 24.0416 6.84057 22.4654C4.86932 20.8891 3.49318 18.689 2.93846 16.2267C2.38375 13.7645 2.6835 11.1868 3.7884 8.91753C4.89331 6.64827 6.73759 4.82259 9.01793 3.74074C11.2983 2.65889 13.8789 2.38528 16.3354 2.96492C18.7919 3.54456 20.978 4.94293 22.5342 6.93005C24.0903 8.91718 24.9239 11.3747 24.8979 13.8986C24.8718 16.4224 23.9876 18.8622 22.3907 20.8167L29.0213 27.4485C29.2238 27.6581 29.3358 27.9389 29.3333 28.2304C29.3308 28.5218 29.2139 28.8006 29.0078 29.0067C28.8017 29.2128 28.5229 29.3297 28.2314 29.3322C27.9399 29.3348 27.6592 29.2227 27.4495 29.0202L20.8178 22.3896ZM13.6679 22.5002C18.5458 22.5002 22.5002 18.5458 22.5002 13.6679C22.5002 8.78996 18.5458 4.8356 13.6679 4.8356C8.78997 4.8356 4.83561 8.78996 4.83561 13.6679C4.83561 18.5458 8.78997 22.5002 13.6679 22.5002Z" fill="#A5B4C3"/>
</svg>
