<svg width="20" height="20" viewBox="0 0 20 20" fill="none" xmlns="http://www.w3.org/2000/svg">
<path d="M2.4835 14.9321C1.96066 15.4548 1.66684 16.1638 1.66669 16.9031L1.66669 18.3339H3.09751C3.83681 18.3337 4.54578 18.0399 5.06847 17.5171L14.3678 8.21778L11.7828 5.63281L2.4835 14.9321Z" fill="#A5B4C3"/>
<path d="M17.7975 2.20289C17.6277 2.033 17.4262 1.89823 17.2044 1.80628C16.9825 1.71432 16.7448 1.66699 16.5046 1.66699C16.2645 1.66699 16.0267 1.71432 15.8049 1.80628C15.583 1.89823 15.3815 2.033 15.2118 2.20289L12.7683 4.64707L15.3533 7.23204L17.7975 4.78855C17.9673 4.61884 18.1021 4.41731 18.1941 4.19547C18.286 3.97364 18.3334 3.73586 18.3334 3.49572C18.3334 3.25559 18.286 3.01781 18.1941 2.79597C18.1021 2.57414 17.9673 2.37261 17.7975 2.20289Z" fill="#A5B4C3"/>
</svg>
