<svg width="32" height="32" viewBox="0 0 32 32" fill="none" xmlns="http://www.w3.org/2000/svg">
<path d="M21.5556 10.4457C21.5556 10.7404 21.4385 11.023 21.2302 11.2314C21.0218 11.4398 20.7392 11.5569 20.4445 11.5569H11.5556C11.2609 11.5569 10.9783 11.4398 10.7699 11.2314C10.5616 11.023 10.4445 10.7404 10.4445 10.4457C10.4445 10.1511 10.5616 9.86845 10.7699 9.66007C10.9783 9.4517 11.2609 9.33464 11.5556 9.33464H20.4445C20.7392 9.33464 21.0218 9.4517 21.2302 9.66007C21.4385 9.86845 21.5556 10.1511 21.5556 10.4457ZM28.2223 8.22352V23.7791C28.2205 25.252 27.6346 26.664 26.5931 27.7055C25.5517 28.747 24.1396 29.3329 22.6667 29.3346H9.33339C7.8605 29.3329 6.44845 28.747 5.40697 27.7055C4.36548 26.664 3.7796 25.252 3.77783 23.7791V8.22352C3.7796 6.75064 4.36548 5.33859 5.40697 4.2971C6.44845 3.25562 7.8605 2.66973 9.33339 2.66797L22.6667 2.66797C24.1396 2.66973 25.5517 3.25562 26.5931 4.2971C27.6346 5.33859 28.2205 6.75064 28.2223 8.22352ZM10.4445 22.668C10.4445 22.4482 10.3793 22.2334 10.2572 22.0507C10.1352 21.8679 9.96162 21.7255 9.75859 21.6414C9.55556 21.5573 9.33216 21.5353 9.11662 21.5782C8.90109 21.6211 8.70311 21.7269 8.54771 21.8823C8.39232 22.0377 8.2865 22.2357 8.24363 22.4512C8.20075 22.6667 8.22276 22.8901 8.30685 23.0932C8.39095 23.2962 8.53337 23.4697 8.71609 23.5918C8.89881 23.7139 9.11363 23.7791 9.33339 23.7791C9.62807 23.7791 9.91069 23.662 10.1191 23.4536C10.3274 23.2453 10.4445 22.9627 10.4445 22.668ZM10.4445 18.2235C10.4445 18.0038 10.3793 17.7889 10.2572 17.6062C10.1352 17.4235 9.96162 17.2811 9.75859 17.197C9.55556 17.1129 9.33216 17.0909 9.11662 17.1338C8.90109 17.1766 8.70311 17.2825 8.54771 17.4379C8.39232 17.5932 8.2865 17.7912 8.24363 18.0068C8.20075 18.2223 8.22276 18.4457 8.30685 18.6487C8.39095 18.8518 8.53337 19.0253 8.71609 19.1474C8.89881 19.2695 9.11363 19.3346 9.33339 19.3346C9.62807 19.3346 9.91069 19.2176 10.1191 19.0092C10.3274 18.8008 10.4445 18.5182 10.4445 18.2235ZM14.8889 22.668C14.8889 22.4482 14.8238 22.2334 14.7017 22.0507C14.5796 21.8679 14.4061 21.7255 14.203 21.6414C14 21.5573 13.7766 21.5353 13.5611 21.5782C13.3455 21.6211 13.1476 21.7269 12.9922 21.8823C12.8368 22.0377 12.7309 22.2357 12.6881 22.4512C12.6452 22.6667 12.6672 22.8901 12.7513 23.0932C12.8354 23.2962 12.9778 23.4697 13.1605 23.5918C13.3433 23.7139 13.5581 23.7791 13.7778 23.7791C14.0725 23.7791 14.3551 23.662 14.5635 23.4536C14.7719 23.2453 14.8889 22.9627 14.8889 22.668ZM14.8889 18.2235C14.8889 18.0038 14.8238 17.7889 14.7017 17.6062C14.5796 17.4235 14.4061 17.2811 14.203 17.197C14 17.1129 13.7766 17.0909 13.5611 17.1338C13.3455 17.1766 13.1476 17.2825 12.9922 17.4379C12.8368 17.5932 12.7309 17.7912 12.6881 18.0068C12.6452 18.2223 12.6672 18.4457 12.7513 18.6487C12.8354 18.8518 12.9778 19.0253 13.1605 19.1474C13.3433 19.2695 13.5581 19.3346 13.7778 19.3346C14.0725 19.3346 14.3551 19.2176 14.5635 19.0092C14.7719 18.8008 14.8889 18.5182 14.8889 18.2235ZM23.7778 22.668C23.7778 22.3733 23.6608 22.0907 23.4524 21.8823C23.244 21.6739 22.9614 21.5569 22.6667 21.5569H18.2223C17.9276 21.5569 17.645 21.6739 17.4366 21.8823C17.2282 22.0907 17.1112 22.3733 17.1112 22.668C17.1112 22.9627 17.2282 23.2453 17.4366 23.4536C17.645 23.662 17.9276 23.7791 18.2223 23.7791H22.6667C22.9614 23.7791 23.244 23.662 23.4524 23.4536C23.6608 23.2453 23.7778 22.9627 23.7778 22.668ZM18.2223 19.3346C18.442 19.3346 18.6569 19.2695 18.8396 19.1474C19.0223 19.0253 19.1647 18.8518 19.2488 18.6487C19.3329 18.4457 19.3549 18.2223 19.312 18.0068C19.2692 17.7912 19.1633 17.5932 19.008 17.4379C18.8526 17.2825 18.6546 17.1766 18.439 17.1338C18.2235 17.0909 18.0001 17.1129 17.7971 17.197C17.594 17.2811 17.4205 17.4235 17.2984 17.6062C17.1763 17.7889 17.1112 18.0038 17.1112 18.2235C17.1112 18.5182 17.2282 18.8008 17.4366 19.0092C17.645 19.2176 17.9276 19.3346 18.2223 19.3346ZM23.7778 18.2235C23.7778 18.0038 23.7127 17.7889 23.5906 17.6062C23.4685 17.4235 23.295 17.2811 23.0919 17.197C22.8889 17.1129 22.6655 17.0909 22.45 17.1338C22.2344 17.1766 22.0364 17.2825 21.881 17.4379C21.7257 17.5932 21.6198 17.7912 21.577 18.0068C21.5341 18.2223 21.5561 18.4457 21.6402 18.6487C21.7243 18.8518 21.8667 19.0253 22.0494 19.1474C22.2321 19.2695 22.447 19.3346 22.6667 19.3346C22.9614 19.3346 23.244 19.2176 23.4524 19.0092C23.6608 18.8008 23.7778 18.5182 23.7778 18.2235ZM23.7778 10.4457C23.7778 9.56169 23.4266 8.71385 22.8015 8.08872C22.1764 7.4636 21.3286 7.11241 20.4445 7.11241H11.5556C10.6716 7.11241 9.82371 7.4636 9.19859 8.08872C8.57347 8.71385 8.22228 9.56169 8.22228 10.4457C8.22228 11.3298 8.57347 12.1776 9.19859 12.8028C9.82371 13.4279 10.6716 13.7791 11.5556 13.7791H20.4445C21.3286 13.7791 22.1764 13.4279 22.8015 12.8028C23.4266 12.1776 23.7778 11.3298 23.7778 10.4457Z" fill="#73C8EB"/>
</svg>
