<svg width="24" height="24" viewBox="0 0 24 24" fill="none" xmlns="http://www.w3.org/2000/svg">
<path d="M7.83333 6.9987H21.1667C21.3877 6.9987 21.5996 6.9109 21.7559 6.75462C21.9122 6.59834 22 6.38638 22 6.16536C22 5.94435 21.9122 5.73239 21.7559 5.57611C21.5996 5.41983 21.3877 5.33203 21.1667 5.33203H7.83333C7.61232 5.33203 7.40036 5.41983 7.24408 5.57611C7.0878 5.73239 7 5.94435 7 6.16536C7 6.38638 7.0878 6.59834 7.24408 6.75462C7.40036 6.9109 7.61232 6.9987 7.83333 6.9987Z" fill="#A5B4C3"/>
<path d="M21.1667 11.168H7.83333C7.61232 11.168 7.40036 11.2558 7.24408 11.412C7.0878 11.5683 7 11.7803 7 12.0013C7 12.2223 7.0878 12.4343 7.24408 12.5906C7.40036 12.7468 7.61232 12.8346 7.83333 12.8346H21.1667C21.3877 12.8346 21.5996 12.7468 21.7559 12.5906C21.9122 12.4343 22 12.2223 22 12.0013C22 11.7803 21.9122 11.5683 21.7559 11.412C21.5996 11.2558 21.3877 11.168 21.1667 11.168Z" fill="#A5B4C3"/>
<path d="M21.1667 17H7.83333C7.61232 17 7.40036 17.0878 7.24408 17.2441C7.0878 17.4004 7 17.6123 7 17.8333C7 18.0543 7.0878 18.2663 7.24408 18.4226C7.40036 18.5789 7.61232 18.6667 7.83333 18.6667H21.1667C21.3877 18.6667 21.5996 18.5789 21.7559 18.4226C21.9122 18.2663 22 18.0543 22 17.8333C22 17.6123 21.9122 17.4004 21.7559 17.2441C21.5996 17.0878 21.3877 17 21.1667 17Z" fill="#A5B4C3"/>
<path d="M3.66667 7.83333C4.58714 7.83333 5.33333 7.08714 5.33333 6.16667C5.33333 5.24619 4.58714 4.5 3.66667 4.5C2.74619 4.5 2 5.24619 2 6.16667C2 7.08714 2.74619 7.83333 3.66667 7.83333Z" fill="#A5B4C3"/>
<path d="M3.66667 13.6654C4.58714 13.6654 5.33333 12.9192 5.33333 11.9987C5.33333 11.0782 4.58714 10.332 3.66667 10.332C2.74619 10.332 2 11.0782 2 11.9987C2 12.9192 2.74619 13.6654 3.66667 13.6654Z" fill="#A5B4C3"/>
<path d="M3.66667 19.5013C4.58714 19.5013 5.33333 18.7551 5.33333 17.8346C5.33333 16.9142 4.58714 16.168 3.66667 16.168C2.74619 16.168 2 16.9142 2 17.8346C2 18.7551 2.74619 19.5013 3.66667 19.5013Z" fill="#A5B4C3"/>
</svg>
