<svg width="16" height="16" viewBox="0 0 16 16" fill="none" xmlns="http://www.w3.org/2000/svg">
<path d="M14.3876 4.86112C14.2088 4.68242 13.9664 4.58203 13.7136 4.58203C13.4609 4.58203 13.2185 4.68242 13.0397 4.86112L8.66818 9.23265C8.48694 9.4066 8.24546 9.50374 7.99425 9.50374C7.74303 9.50374 7.50155 9.4066 7.32031 9.23265L2.94879 4.86112C2.76901 4.68749 2.52822 4.59141 2.27828 4.59358C2.02835 4.59575 1.78927 4.696 1.61253 4.87274C1.43579 5.04947 1.33554 5.28856 1.33337 5.53849C1.3312 5.78842 1.42728 6.02921 1.60092 6.209L5.97149 10.5805C6.23704 10.8461 6.55231 11.0568 6.8993 11.2005C7.24628 11.3443 7.61819 11.4183 7.99377 11.4183C8.36935 11.4183 8.74125 11.3443 9.08824 11.2005C9.43523 11.0568 9.7505 10.8461 10.0161 10.5805L14.3876 6.209C14.5663 6.03024 14.6667 5.78782 14.6667 5.53506C14.6667 5.2823 14.5663 5.03988 14.3876 4.86112Z" fill="#D7E1EB"/>
</svg>
