<svg width="20" height="20" viewBox="0 0 20 20" fill="none" xmlns="http://www.w3.org/2000/svg">
<path d="M2.78277 14.1666C2.91945 14.4038 3.10155 14.6118 3.31866 14.7786C3.53577 14.9454 3.78362 15.0678 4.04805 15.1387C4.31248 15.2097 4.5883 15.2278 4.85974 15.1921C5.13118 15.1563 5.39292 15.0675 5.62999 14.9305L5.93902 14.752C6.52236 15.2511 7.19287 15.6382 7.9168 15.8937V16.25C7.9168 16.8025 8.13629 17.3324 8.52699 17.7231C8.91769 18.1138 9.4476 18.3333 10.0001 18.3333C10.5527 18.3333 11.0826 18.1138 11.4733 17.7231C11.864 17.3324 12.0835 16.8025 12.0835 16.25V15.8937C12.8075 15.6378 13.478 15.2502 14.0612 14.7507L14.3717 14.9298C14.8505 15.2061 15.4195 15.2808 15.9535 15.1376C16.4874 14.9943 16.9426 14.6448 17.2189 14.1659C17.4952 13.6871 17.5699 13.1181 17.4266 12.5841C17.2834 12.0502 16.9339 11.595 16.455 11.3187L16.1467 11.1409C16.2855 10.3857 16.2855 9.61146 16.1467 8.85621L16.455 8.67843C16.6921 8.54164 16.8999 8.35948 17.0667 8.14236C17.2334 7.92525 17.3557 7.67742 17.4266 7.41303C17.4976 7.14864 17.5157 6.87287 17.4801 6.60146C17.4444 6.33005 17.3557 6.06832 17.2189 5.83121C17.0821 5.5941 16.8999 5.38626 16.6828 5.21955C16.4657 5.05283 16.2179 4.93052 15.9535 4.85959C15.6891 4.78865 15.4133 4.77049 15.1419 4.80613C14.8705 4.84177 14.6088 4.93053 14.3717 5.06732L14.0626 5.24579C13.4787 4.7473 12.8077 4.36096 12.0835 4.10621V3.74996C12.0835 3.19743 11.864 2.66752 11.4733 2.27682C11.0826 1.88612 10.5527 1.66663 10.0001 1.66663C9.4476 1.66663 8.91769 1.88612 8.52699 2.27682C8.13629 2.66752 7.9168 3.19743 7.9168 3.74996V4.10621C7.19276 4.36216 6.52225 4.74968 5.93902 5.24926L5.6286 5.0694C5.14974 4.79314 4.58074 4.71841 4.04679 4.86167C3.51283 5.00493 3.05765 5.35443 2.78138 5.83329C2.50511 6.31216 2.43039 6.88115 2.57365 7.41511C2.7169 7.94907 3.06641 8.40425 3.54527 8.68052L3.8536 8.85829C3.71479 9.61354 3.71479 10.3878 3.8536 11.143L3.54527 11.3208C3.06763 11.5979 2.71922 12.0529 2.57631 12.5862C2.4334 13.1196 2.50764 13.6879 2.78277 14.1666ZM10.0001 7.22218C10.5495 7.22218 11.0866 7.3851 11.5434 7.69032C12.0002 7.99555 12.3562 8.42938 12.5665 8.93695C12.7767 9.44452 12.8317 10.003 12.7245 10.5419C12.6174 11.0807 12.3528 11.5757 11.9643 11.9641C11.5758 12.3526 11.0809 12.6172 10.5421 12.7244C10.0032 12.8315 9.44469 12.7765 8.93712 12.5663C8.42955 12.356 7.99572 12 7.69049 11.5432C7.38527 11.0864 7.22235 10.5494 7.22235 9.99996C7.22235 9.26325 7.51501 8.55671 8.03595 8.03577C8.55688 7.51484 9.26342 7.22218 10.0001 7.22218Z" fill="#A5B4C3"/>
</svg>
