<svg width="24" height="24" viewBox="0 0 24 24" fill="none" xmlns="http://www.w3.org/2000/svg">
<path d="M7.83333 2H5.33333C3.49238 2 2 3.49238 2 5.33333V7.83333C2 9.67428 3.49238 11.1667 5.33333 11.1667H7.83333C9.67428 11.1667 11.1667 9.67428 11.1667 7.83333V5.33333C11.1667 3.49238 9.67428 2 7.83333 2Z" fill="#A5B4C3"/>
<path d="M18.6667 2H16.1667C14.3257 2 12.8333 3.49238 12.8333 5.33333V7.83333C12.8333 9.67428 14.3257 11.1667 16.1667 11.1667H18.6667C20.5076 11.1667 22 9.67428 22 7.83333V5.33333C22 3.49238 20.5076 2 18.6667 2Z" fill="#A5B4C3"/>
<path d="M7.83333 12.832H5.33333C3.49238 12.832 2 14.3244 2 16.1654V18.6654C2 20.5063 3.49238 21.9987 5.33333 21.9987H7.83333C9.67428 21.9987 11.1667 20.5063 11.1667 18.6654V16.1654C11.1667 14.3244 9.67428 12.832 7.83333 12.832Z" fill="#A5B4C3"/>
<path d="M18.6667 12.832H16.1667C14.3257 12.832 12.8333 14.3244 12.8333 16.1654V18.6654C12.8333 20.5063 14.3257 21.9987 16.1667 21.9987H18.6667C20.5076 21.9987 22 20.5063 22 18.6654V16.1654C22 14.3244 20.5076 12.832 18.6667 12.832Z" fill="#A5B4C3"/>
</svg>
