<svg width="40" height="40" viewBox="0 0 40 40" fill="none" xmlns="http://www.w3.org/2000/svg">
<path d="M35.2778 25.5555C34.9094 25.5555 34.5562 25.7019 34.2957 25.9623C34.0352 26.2228 33.8889 26.5761 33.8889 26.9444V32.5C33.8889 32.8683 33.7426 33.2216 33.4821 33.4821C33.2216 33.7425 32.8684 33.8889 32.5 33.8889H7.50001C7.13165 33.8889 6.77838 33.7425 6.51792 33.4821C6.25745 33.2216 6.11112 32.8683 6.11112 32.5V26.9444C6.11112 26.5761 5.96479 26.2228 5.70433 25.9623C5.44386 25.7019 5.09059 25.5555 4.72223 25.5555C4.35388 25.5555 4.00061 25.7019 3.74014 25.9623C3.47967 26.2228 3.33334 26.5761 3.33334 26.9444L3.33334 32.5C3.33334 33.6051 3.77233 34.6649 4.55373 35.4463C5.33513 36.2277 6.39494 36.6667 7.50001 36.6667H32.5C33.6051 36.6667 34.6649 36.2277 35.4463 35.4463C36.2277 34.6649 36.6667 33.6051 36.6667 32.5V26.9444C36.6667 26.5761 36.5204 26.2228 36.2599 25.9623C35.9994 25.7019 35.6461 25.5555 35.2778 25.5555Z" fill="#A5B4C3"/>
<path d="M10.6848 22.1362L17.0542 28.507C17.8368 29.2857 18.896 29.7229 20 29.7229C21.1041 29.7229 22.1632 29.2857 22.9459 28.507L29.3153 22.1375C29.448 22.0094 29.5538 21.8562 29.6266 21.6867C29.6993 21.5173 29.7377 21.335 29.7393 21.1506C29.7409 20.9662 29.7057 20.7833 29.6359 20.6126C29.5661 20.4419 29.4629 20.2868 29.3325 20.1564C29.2021 20.026 29.047 19.9229 28.8764 19.8531C28.7057 19.7832 28.5228 19.7481 28.3384 19.7497C28.1539 19.7513 27.9717 19.7896 27.8022 19.8624C27.6328 19.9352 27.4795 20.041 27.3514 20.1737L21.3889 26.1334V4.72226C21.3889 4.35391 21.2426 4.00064 20.9821 3.74017C20.7217 3.4797 20.3684 3.33337 20 3.33337C19.6317 3.33337 19.2784 3.4797 19.0179 3.74017C18.7575 4.00064 18.6111 4.35391 18.6111 4.72226V26.1348L12.6486 20.1723C12.5205 20.0396 12.3673 19.9338 12.1978 19.861C12.0284 19.7882 11.8461 19.7499 11.6617 19.7483C11.4773 19.7467 11.2944 19.7818 11.1237 19.8517C10.953 19.9215 10.7979 20.0246 10.6675 20.155C10.5371 20.2855 10.434 20.4405 10.3642 20.6112C10.2943 20.7819 10.2592 20.9648 10.2608 21.1492C10.2624 21.3336 10.3007 21.5159 10.3735 21.6853C10.4463 21.8548 10.5521 22.008 10.6848 22.1362Z" fill="#A5B4C3"/>
</svg>
