<svg width="24" height="24" viewBox="0 0 24 24" fill="none" xmlns="http://www.w3.org/2000/svg">
<path d="M21.1634 12.0001C20.9597 11.9977 20.7626 12.0713 20.6104 12.2066C20.4582 12.3418 20.3619 12.529 20.3403 12.7315C20.2032 14.3176 19.6137 15.8311 18.642 17.0922C17.6702 18.3533 16.357 19.3091 14.8582 19.846C13.3594 20.383 11.7381 20.4786 10.1866 20.1215C8.63507 19.7643 7.21864 18.9695 6.10544 17.8313H8.39212C8.61306 17.8313 8.82494 17.7435 8.98116 17.5873C9.13739 17.4311 9.22515 17.2192 9.22515 16.9983C9.22515 16.7773 9.13739 16.5654 8.98116 16.4092C8.82494 16.253 8.61306 16.1652 8.39212 16.1652H5.05999C4.61812 16.1652 4.19435 16.3408 3.8819 16.6532C3.56945 16.9657 3.39392 17.3894 3.39392 17.8313V21.1634C3.39392 21.3844 3.48169 21.5962 3.63791 21.7525C3.79413 21.9087 4.00602 21.9965 4.22695 21.9965C4.44789 21.9965 4.65977 21.9087 4.816 21.7525C4.97222 21.5962 5.05999 21.3844 5.05999 21.1634V19.1325C6.40721 20.4587 8.10348 21.3749 9.95126 21.7743C11.799 22.1737 13.7223 22.0399 15.497 21.3886C17.2717 20.7372 18.8248 19.5951 19.9755 18.0951C21.1261 16.5952 21.827 14.7992 21.9964 12.9164C22.0071 12.8004 21.9936 12.6834 21.9567 12.5729C21.9197 12.4624 21.8602 12.3608 21.7818 12.2746C21.7034 12.1884 21.608 12.1195 21.5015 12.0722C21.395 12.0249 21.2799 12.0004 21.1634 12.0001Z" fill="#73C8EB"/>
<path d="M19.773 2.00307C19.5521 2.00307 19.3402 2.09083 19.184 2.24706C19.0278 2.40328 18.94 2.61516 18.94 2.8361V4.86703C17.5928 3.54083 15.8965 2.62466 14.0487 2.22524C12.2009 1.82582 10.2777 1.95958 8.50301 2.61094C6.72831 3.2623 5.17518 4.40445 4.02452 5.90438C2.87385 7.40431 2.173 9.20028 2.00359 11.0831C1.99283 11.1991 2.00635 11.3161 2.04329 11.4266C2.08023 11.5371 2.13979 11.6387 2.21816 11.7249C2.29652 11.8111 2.39199 11.88 2.49847 11.9273C2.60495 11.9746 2.72012 11.9992 2.83662 11.9995C3.04023 12.0019 3.2374 11.9282 3.38961 11.793C3.54182 11.6577 3.6381 11.4705 3.65966 11.2681C3.79682 9.68191 4.38626 8.16844 5.358 6.90733C6.32974 5.64622 7.64296 4.69045 9.14175 4.15349C10.6405 3.61653 12.2619 3.52094 13.8134 3.87807C15.3649 4.2352 16.7813 5.03004 17.8945 6.16823H15.6079C15.3869 6.16823 15.175 6.256 15.0188 6.41222C14.8626 6.56845 14.7748 6.78033 14.7748 7.00127C14.7748 7.2222 14.8626 7.43408 15.0188 7.59031C15.175 7.74653 15.3869 7.8343 15.6079 7.8343H18.94C19.3819 7.8343 19.8056 7.65877 20.1181 7.34632C20.4305 7.03387 20.6061 6.6101 20.6061 6.16823V2.8361C20.6061 2.61516 20.5183 2.40328 20.3621 2.24706C20.2058 2.09083 19.994 2.00307 19.773 2.00307Z" fill="#73C8EB"/>
<path d="M10.6471 7V8.15385H9V15.8462H10.6471V17H11.4706V15.8462H12.2941V17H13.1176V15.8462H13.7353C14.9817 15.8462 16 14.895 16 13.7308C16 12.93 15.5224 12.2269 14.8162 11.8677C15.1627 11.5835 15.4084 11.2076 15.5205 10.7898C15.6326 10.372 15.6058 9.93222 15.4438 9.52899C15.2817 9.12576 14.992 8.77819 14.6133 8.53254C14.2345 8.28688 13.7846 8.15479 13.3235 8.15385H13.1176V7H12.2941V8.15385H11.4706V7H10.6471ZM9.82353 8.92308H13.3235C14.1244 8.92308 14.7647 9.52115 14.7647 10.2692C14.7647 11.0173 14.1244 11.6154 13.3235 11.6154H9.82353V8.92308ZM9.82353 12.3846H13.7353C14.5362 12.3846 15.1765 12.9827 15.1765 13.7308C15.1765 14.4788 14.5362 15.0769 13.7353 15.0769H9.82353V12.3846Z" fill="#73C8EB"/>
</svg>
