<svg width="20" height="20" viewBox="0 0 20 20" fill="none" xmlns="http://www.w3.org/2000/svg">
<path d="M14.8611 4.44445H14.0972C13.9361 3.66071 13.5096 2.9565 12.8898 2.4505C12.2699 1.94451 11.4946 1.66768 10.6945 1.66667L9.30558 1.66667C8.50543 1.66768 7.7301 1.94451 7.11026 2.4505C6.49042 2.9565 6.06398 3.66071 5.9028 4.44445H5.13891C4.21836 4.44555 3.33582 4.81173 2.6849 5.46266C2.03397 6.11359 1.66779 6.99612 1.66669 7.91667L1.66669 10H18.3334V7.91667C18.3323 6.99612 17.9661 6.11359 17.3151 5.46266C16.6642 4.81173 15.7817 4.44555 14.8611 4.44445V4.44445ZM7.35002 4.44445C7.49313 4.03965 7.75782 3.68896 8.10787 3.44034C8.45792 3.19173 8.87623 3.05734 9.30558 3.05556H10.6945C11.1238 3.05734 11.5421 3.19173 11.8922 3.44034C12.2422 3.68896 12.5069 4.03965 12.65 4.44445H7.35002Z" fill="#73C8EB"/>
<path d="M10.6945 12.0833C10.6945 12.2675 10.6213 12.4441 10.4911 12.5744C10.3608 12.7046 10.1842 12.7778 10 12.7778C9.81584 12.7778 9.63921 12.7046 9.50897 12.5744C9.37874 12.4441 9.30558 12.2675 9.30558 12.0833V11.3889H1.66669V14.8611C1.66779 15.7817 2.03397 16.6642 2.6849 17.3151C3.33582 17.9661 4.21836 18.3322 5.13891 18.3333H14.8611C15.7817 18.3322 16.6642 17.9661 17.3151 17.3151C17.9661 16.6642 18.3323 15.7817 18.3334 14.8611V11.3889H10.6945V12.0833Z" fill="#73C8EB"/>
</svg>
