<svg width="18" height="19" viewBox="0 0 18 19" fill="none" xmlns="http://www.w3.org/2000/svg">
<path d="M15.8725 9.50004C15.7198 9.49825 15.5719 9.55348 15.4577 9.65492C15.3436 9.75636 15.2714 9.89674 15.2552 10.0486C15.1523 11.2382 14.7103 12.3733 13.9814 13.3191C13.2526 14.265 12.2677 14.9818 11.1436 15.3845C10.0196 15.7872 8.80351 15.8589 7.63989 15.5911C6.47627 15.3232 5.41395 14.7271 4.57905 13.8735H6.29406C6.45976 13.8735 6.61867 13.8076 6.73584 13.6905C6.85301 13.5733 6.91883 13.4144 6.91883 13.2487C6.91883 13.083 6.85301 12.9241 6.73584 12.8069C6.61867 12.6897 6.45976 12.6239 6.29406 12.6239H3.79496C3.46356 12.6239 3.14573 12.7556 2.91139 12.9899C2.67706 13.2242 2.54541 13.5421 2.54541 13.8735V16.3726C2.54541 16.5383 2.61123 16.6972 2.7284 16.8144C2.84557 16.9315 3.00448 16.9973 3.17019 16.9973C3.33589 16.9973 3.4948 16.9315 3.61197 16.8144C3.72914 16.6972 3.79496 16.5383 3.79496 16.3726V14.8494C4.80537 15.844 6.07758 16.5311 7.46342 16.8307C8.84925 17.1303 10.2917 17.03 11.6227 16.5414C12.9537 16.0529 14.1186 15.1963 14.9816 14.0714C15.8446 12.9464 16.3702 11.5994 16.4973 10.1873C16.5053 10.1003 16.4952 10.0126 16.4675 9.92969C16.4398 9.84682 16.3951 9.77063 16.3363 9.70598C16.2776 9.64132 16.206 9.58962 16.1261 9.55416C16.0462 9.51871 15.9599 9.50028 15.8725 9.50004Z" fill="#A5B4C3"/>
<path d="M14.8298 2.0023C14.6641 2.0023 14.5052 2.06812 14.388 2.18529C14.2708 2.30246 14.205 2.46137 14.205 2.62707V4.15028C13.1946 3.15562 11.9224 2.4685 10.5365 2.16893C9.1507 1.86936 7.70828 1.96968 6.37725 2.4582C5.04623 2.94672 3.88139 3.80334 3.01839 4.92828C2.15539 6.05323 1.62975 7.40021 1.50269 8.81235C1.49462 8.89935 1.50476 8.98708 1.53247 9.06995C1.56017 9.15282 1.60484 9.22901 1.66362 9.29366C1.72239 9.35832 1.79399 9.41002 1.87385 9.44548C1.95372 9.48093 2.04009 9.49937 2.12746 9.4996C2.28017 9.50139 2.42805 9.44617 2.54221 9.34472C2.65636 9.24328 2.72858 9.1029 2.74474 8.95105C2.84761 7.76144 3.2897 6.62633 4.0185 5.6805C4.74731 4.73467 5.73222 4.01784 6.85631 3.61512C7.9804 3.2124 9.19644 3.14071 10.3601 3.40855C11.5237 3.6764 12.586 4.27253 13.4209 5.12617H11.7059C11.5402 5.12617 11.3813 5.192 11.2641 5.30917C11.1469 5.42633 11.0811 5.58525 11.0811 5.75095C11.0811 5.91665 11.1469 6.07556 11.2641 6.19273C11.3813 6.3099 11.5402 6.37572 11.7059 6.37572H14.205C14.5364 6.37572 14.8542 6.24408 15.0886 6.00974C15.3229 5.7754 15.4545 5.45758 15.4545 5.12617V2.62707C15.4545 2.46137 15.3887 2.30246 15.2715 2.18529C15.1544 2.06812 14.9955 2.0023 14.8298 2.0023V2.0023Z" fill="#A5B4C3"/>
</svg>
