<svg width="24" height="24" viewBox="0 0 24 24" fill="none" xmlns="http://www.w3.org/2000/svg">
<path d="M20.974 9.50737C20.5833 9.05713 20.1004 8.69609 19.5581 8.4487C19.0157 8.20132 18.4266 8.07335 17.8304 8.07348H14.5069L14.7869 6.37297C14.8859 5.77414 14.7664 5.15965 14.4501 4.64159C14.1339 4.12352 13.6419 3.73641 13.064 3.55084C12.4861 3.36528 11.8607 3.39363 11.302 3.63073C10.7433 3.86783 10.2884 4.29788 10.0203 4.84243L8.66553 7.58774V20.5711H17.2472C18.2499 20.567 19.2178 20.2031 19.9749 19.5456C20.7319 18.8881 21.2278 17.9807 21.3723 16.9884L21.9596 12.8226C22.0427 12.2316 21.9977 11.6297 21.8276 11.0577C21.6575 10.4857 21.3664 9.95696 20.974 9.50737Z" fill="#A5B4C3"/>
<path d="M2 12.2391V16.405C2.00132 17.5094 2.44065 18.5683 3.22162 19.3492C4.00258 20.1302 5.06142 20.5695 6.16587 20.5708H6.99904V8.07324H6.16587C5.06142 8.07457 4.00258 8.51389 3.22162 9.29486C2.44065 10.0758 2.00132 11.1347 2 12.2391H2Z" fill="#A5B4C3"/>
</svg>
