<svg width="32" height="32" viewBox="0 0 32 32" fill="none" xmlns="http://www.w3.org/2000/svg">
<path d="M11 17.1124C10.0111 17.1124 9.04435 16.8192 8.22211 16.2698C7.39986 15.7204 6.759 14.9395 6.38056 14.0258C6.00212 13.1122 5.90311 12.1069 6.09603 11.137C6.28896 10.1671 6.76516 9.27614 7.46443 8.57688C8.16369 7.87762 9.0546 7.40141 10.0245 7.20849C10.9944 7.01556 11.9997 7.11458 12.9134 7.49302C13.827 7.87146 14.6079 8.51232 15.1573 9.33456C15.7067 10.1568 16 11.1235 16 12.1124C15.9985 13.438 15.4712 14.709 14.5339 15.6463C13.5965 16.5837 12.3256 17.1109 11 17.1124ZM18.2222 29.3346H3.77774C3.48305 29.3346 3.20044 29.2176 2.99206 29.0092C2.78369 28.8008 2.66663 28.5182 2.66663 28.2235V27.668C2.66663 25.4578 3.5446 23.3382 5.1074 21.7754C6.67021 20.2126 8.78982 19.3346 11 19.3346C13.2101 19.3346 15.3297 20.2126 16.8925 21.7754C18.4553 23.3382 19.3333 25.4578 19.3333 27.668V28.2235C19.3333 28.5182 19.2162 28.8008 19.0079 29.0092C18.7995 29.2176 18.5169 29.3346 18.2222 29.3346ZM22.1111 12.668C21.1222 12.668 20.1555 12.3747 19.3332 11.8253C18.511 11.2759 17.8701 10.495 17.4917 9.58139C17.1132 8.66776 17.0142 7.66242 17.2071 6.69252C17.4001 5.72261 17.8763 4.8317 18.5755 4.13244C19.2748 3.43317 20.1657 2.95697 21.1356 2.76404C22.1055 2.57112 23.1109 2.67014 24.0245 3.04857C24.9381 3.42701 25.719 4.06787 26.2684 4.89012C26.8178 5.71237 27.1111 6.67906 27.1111 7.66797C27.1096 8.9936 26.5823 10.2645 25.645 11.2019C24.7076 12.1392 23.4367 12.6665 22.1111 12.668ZM20.5322 14.9135C19.4973 15.0524 18.5023 15.4034 17.6094 15.9447C16.7165 16.486 15.945 17.2058 15.3433 18.0591C17.8332 19.1898 19.7895 21.2393 20.8033 23.7791H28.2222C28.5169 23.7791 28.7995 23.662 29.0079 23.4536C29.2162 23.2453 29.3333 22.9627 29.3333 22.668V22.6257C29.3321 21.5182 29.0947 20.4236 28.6369 19.4151C28.1791 18.4066 27.5114 17.5074 26.6784 16.7775C25.8454 16.0475 24.8663 15.5037 23.8064 15.1823C22.7465 14.8609 21.6303 14.7692 20.5322 14.9135Z" fill="#73C8EB"/>
</svg>
