<svg width="20" height="20" viewBox="0 0 20 20" fill="none" xmlns="http://www.w3.org/2000/svg">
<path d="M14.8609 4.44446H5.13873C4.21817 4.44556 3.33564 4.81174 2.68471 5.46267C2.03378 6.1136 1.66761 6.99613 1.6665 7.91668L1.6665 12.0833C1.66761 13.0039 2.03378 13.8864 2.68471 14.5374C3.33564 15.1883 4.21817 15.5545 5.13873 15.5556H14.8609C15.7815 15.5545 16.664 15.1883 17.315 14.5374C17.9659 13.8864 18.3321 13.0039 18.3332 12.0833V7.91668C18.3321 6.99613 17.9659 6.1136 17.315 5.46267C16.664 4.81174 15.7815 4.44556 14.8609 4.44446ZM4.44428 13.4722C4.30693 13.4722 4.17267 13.4315 4.05847 13.3552C3.94427 13.2789 3.85526 13.1704 3.8027 13.0435C3.75014 12.9166 3.73639 12.777 3.76318 12.6423C3.78998 12.5076 3.85612 12.3839 3.95324 12.2867C4.05036 12.1896 4.17409 12.1235 4.3088 12.0967C4.44351 12.0699 4.58314 12.0836 4.71003 12.1362C4.83693 12.1888 4.94538 12.2778 5.02169 12.392C5.098 12.5062 5.13873 12.6404 5.13873 12.7778C5.13873 12.962 5.06556 13.1386 4.93533 13.2688C4.80509 13.3991 4.62846 13.4722 4.44428 13.4722ZM4.44428 7.91668C4.30693 7.91668 4.17267 7.87595 4.05847 7.79964C3.94427 7.72334 3.85526 7.61488 3.8027 7.48799C3.75014 7.3611 3.73639 7.22147 3.76318 7.08676C3.78998 6.95205 3.85612 6.82831 3.95324 6.73119C4.05036 6.63407 4.17409 6.56793 4.3088 6.54113C4.44351 6.51434 4.58314 6.52809 4.71003 6.58065C4.83693 6.63321 4.94538 6.72222 5.02169 6.83642C5.098 6.95062 5.13873 7.08489 5.13873 7.22224C5.13873 7.40641 5.06556 7.58305 4.93533 7.71328C4.80509 7.84352 4.62846 7.91668 4.44428 7.91668ZM9.99984 12.7778C9.45045 12.7778 8.91339 12.6149 8.45659 12.3097C7.99978 12.0044 7.64375 11.5706 7.43351 11.063C7.22326 10.5555 7.16825 9.99693 7.27543 9.4581C7.38262 8.91926 7.64717 8.42431 8.03565 8.03583C8.42413 7.64735 8.91908 7.38279 9.45792 7.27561C9.99676 7.16843 10.5553 7.22344 11.0628 7.43368C11.5704 7.64392 12.0042 7.99996 12.3095 8.45676C12.6147 8.91357 12.7776 9.45062 12.7776 10C12.7776 10.7367 12.485 11.4433 11.964 11.9642C11.4431 12.4851 10.7366 12.7778 9.99984 12.7778ZM15.5554 13.4722C15.418 13.4722 15.2838 13.4315 15.1696 13.3552C15.0554 13.2789 14.9664 13.1704 14.9138 13.0435C14.8612 12.9166 14.8475 12.777 14.8743 12.6423C14.9011 12.5076 14.9672 12.3839 15.0643 12.2867C15.1615 12.1896 15.2852 12.1235 15.4199 12.0967C15.5546 12.0699 15.6943 12.0836 15.8211 12.1362C15.948 12.1888 16.0565 12.2778 16.1328 12.392C16.2091 12.5062 16.2498 12.6404 16.2498 12.7778C16.2498 12.962 16.1767 13.1386 16.0464 13.2688C15.9162 13.3991 15.7396 13.4722 15.5554 13.4722ZM15.5554 7.91668C15.418 7.91668 15.2838 7.87595 15.1696 7.79964C15.0554 7.72334 14.9664 7.61488 14.9138 7.48799C14.8612 7.3611 14.8475 7.22147 14.8743 7.08676C14.9011 6.95205 14.9672 6.82831 15.0643 6.73119C15.1615 6.63407 15.2852 6.56793 15.4199 6.54113C15.5546 6.51434 15.6943 6.52809 15.8211 6.58065C15.948 6.63321 16.0565 6.72222 16.1328 6.83642C16.2091 6.95062 16.2498 7.08489 16.2498 7.22224C16.2498 7.40641 16.1767 7.58305 16.0464 7.71328C15.9162 7.84352 15.7396 7.91668 15.5554 7.91668ZM11.3887 10C11.3887 10.2747 11.3073 10.5432 11.1547 10.7716C11.002 11 10.7851 11.1781 10.5313 11.2832C10.2776 11.3883 9.9983 11.4158 9.72888 11.3622C9.45946 11.3086 9.21198 11.1763 9.01775 10.9821C8.82351 10.7879 8.69123 10.5404 8.63764 10.271C8.58404 10.0016 8.61155 9.7223 8.71667 9.46851C8.82179 9.21472 8.99981 8.99781 9.22821 8.84519C9.45661 8.69258 9.72514 8.61112 9.99984 8.61112C10.3682 8.61112 10.7215 8.75745 10.9819 9.01792C11.2424 9.27839 11.3887 9.63166 11.3887 10Z" fill="#A5B4C3"/>
</svg>
