<svg width="18" height="19" viewBox="0 0 18 19" fill="none" xmlns="http://www.w3.org/2000/svg">
<path d="M15.25 8.25H10.25V3.25C10.25 2.91848 10.1183 2.60054 9.88388 2.36612C9.64946 2.1317 9.33152 2 9 2C8.66848 2 8.35054 2.1317 8.11612 2.36612C7.8817 2.60054 7.75 2.91848 7.75 3.25V8.25H2.75C2.41848 8.25 2.10054 8.3817 1.86612 8.61612C1.6317 8.85054 1.5 9.16848 1.5 9.5C1.5 9.83152 1.6317 10.1495 1.86612 10.3839C2.10054 10.6183 2.41848 10.75 2.75 10.75H7.75V15.75C7.75 16.0815 7.8817 16.3995 8.11612 16.6339C8.35054 16.8683 8.66848 17 9 17C9.33152 17 9.64946 16.8683 9.88388 16.6339C10.1183 16.3995 10.25 16.0815 10.25 15.75V10.75H15.25C15.5815 10.75 15.8995 10.6183 16.1339 10.3839C16.3683 10.1495 16.5 9.83152 16.5 9.5C16.5 9.16848 16.3683 8.85054 16.1339 8.61612C15.8995 8.3817 15.5815 8.25 15.25 8.25Z" fill="#A5B4C3"/>
</svg>
