<svg width="20" height="20" viewBox="0 0 20 20" fill="none" xmlns="http://www.w3.org/2000/svg">
<path d="M6.87484 10.6944C6.25677 10.6944 5.65258 10.5111 5.13868 10.1677C4.62478 9.82437 4.22424 9.33631 3.98771 8.76529C3.75119 8.19427 3.6893 7.56594 3.80988 6.95975C3.93046 6.35356 4.22809 5.79674 4.66513 5.3597C5.10217 4.92266 5.65899 4.62503 6.26518 4.50445C6.87137 4.38387 7.4997 4.44576 8.07072 4.68228C8.64174 4.91881 9.1298 5.31934 9.47318 5.83325C9.81656 6.34715 9.99984 6.95134 9.99984 7.56941C9.99892 8.39792 9.66938 9.19225 9.08353 9.7781C8.49768 10.364 7.70336 10.6935 6.87484 10.6944ZM11.3887 18.3333H2.36095C2.17677 18.3333 2.00014 18.2601 1.8699 18.1299C1.73967 17.9997 1.6665 17.823 1.6665 17.6388V17.2916C1.6665 15.9103 2.21524 14.5855 3.19199 13.6088C4.16874 12.632 5.4935 12.0833 6.87484 12.0833C8.25617 12.0833 9.58093 12.632 10.5577 13.6088C11.5344 14.5855 12.0832 15.9103 12.0832 17.2916V17.6388C12.0832 17.823 12.01 17.9997 11.8798 18.1299C11.7495 18.2601 11.5729 18.3333 11.3887 18.3333ZM13.8193 7.91663C13.2012 7.91663 12.597 7.73335 12.0831 7.38997C11.5692 7.04659 11.1687 6.55853 10.9322 5.98751C10.6956 5.41649 10.6337 4.78816 10.7543 4.18197C10.8749 3.57578 11.1725 3.01896 11.6096 2.58192C12.0466 2.14488 12.6034 1.84725 13.2096 1.72667C13.8158 1.60609 14.4441 1.66798 15.0152 1.9045C15.5862 2.14103 16.0742 2.54157 16.4176 3.05547C16.761 3.56937 16.9443 4.17356 16.9443 4.79163C16.9434 5.62015 16.6138 6.41447 16.028 7.00032C15.4421 7.58617 14.6478 7.91571 13.8193 7.91663ZM12.8325 9.3201C12.1857 9.40688 11.5638 9.62628 11.0057 9.96458C10.4477 10.3029 9.96552 10.7528 9.58942 11.2861C11.1456 11.9928 12.3683 13.2737 13.0019 14.8611H17.6387C17.8229 14.8611 17.9995 14.7879 18.1298 14.6577C18.26 14.5274 18.3332 14.3508 18.3332 14.1666V14.1402C18.3325 13.448 18.1841 12.7639 17.8979 12.1336C17.6118 11.5033 17.1945 10.9413 16.6739 10.4851C16.1533 10.0289 15.5413 9.68897 14.8789 9.48807C14.2165 9.28718 13.5188 9.22992 12.8325 9.3201Z" fill="#A5B4C3"/>
</svg>
