<svg width="40" height="40" viewBox="0 0 40 40" fill="none" xmlns="http://www.w3.org/2000/svg">
<path d="M10.2653 33.9062C11.003 33.9062 11.7104 33.6131 12.232 33.0916C12.7536 32.57 13.0466 31.8625 13.0466 31.1249V22.7812C13.0466 22.0436 12.7536 21.3361 12.232 20.8146C11.7104 20.293 11.003 20 10.2653 20V18.6093C10.2653 16.0276 11.2909 13.5517 13.1165 11.7261C14.942 9.90057 17.418 8.87499 19.9997 8.87499C22.5814 8.87499 25.0574 9.90057 26.8829 11.7261C28.7084 13.5517 29.734 16.0276 29.734 18.6093V20C28.9964 20 28.289 20.293 27.7674 20.8146C27.2458 21.3361 26.9528 22.0436 26.9528 22.7812V31.1249H22.7809C22.4121 31.1249 22.0584 31.2714 21.7976 31.5322C21.5368 31.793 21.3903 32.1467 21.3903 32.5155C21.3903 32.8844 21.5368 33.2381 21.7976 33.4989C22.0584 33.7596 22.4121 33.9062 22.7809 33.9062H29.734C31.3277 33.9014 32.8714 33.3493 34.1066 32.3423C35.3418 31.3354 36.1937 29.9346 36.5195 28.3746C36.8453 26.8146 36.6253 25.19 35.8964 23.7728C35.1674 22.3556 33.9738 21.2318 32.5153 20.5896V18.6093C32.5153 15.29 31.1967 12.1066 28.8495 9.75948C26.5024 7.41235 23.319 6.09375 19.9997 6.09375C16.6803 6.09375 13.4969 7.41235 11.1498 9.75948C8.80269 12.1066 7.48409 15.29 7.48409 18.6093V20.5896C6.02555 21.2318 4.8319 22.3556 4.10297 23.7728C3.37403 25.19 3.15406 26.8146 3.47988 28.3746C3.8057 29.9346 4.65753 31.3354 5.89276 32.3423C7.128 33.3493 8.67166 33.9014 10.2653 33.9062Z" fill="#73C8EB"/>
</svg>
