<svg width="16" height="16" viewBox="0 0 16 16" fill="none" xmlns="http://www.w3.org/2000/svg">
<path d="M2.96322 4.85758C2.78407 4.67856 2.54115 4.57804 2.28789 4.57813C2.03462 4.57821 1.79177 4.67891 1.61275 4.85806C1.43372 5.0372 1.3332 5.28013 1.33329 5.53339C1.33338 5.78666 1.43408 6.02951 1.61322 6.20853L5.99165 10.586C6.52877 11.123 7.25716 11.4246 8.01665 11.4246C8.77613 11.4246 9.50452 11.123 10.0416 10.586L14.4201 6.20471C14.5844 6.02292 14.6726 5.78489 14.6663 5.53989C14.66 5.29489 14.5598 5.06169 14.3863 4.88858C14.2128 4.71547 13.9794 4.6157 13.7344 4.60992C13.4894 4.60415 13.2515 4.69282 13.0701 4.85758L8.69164 9.236C8.5126 9.41499 8.26981 9.51554 8.01665 9.51554C7.76348 9.51554 7.52069 9.41499 7.34165 9.236L2.96322 4.85758Z" fill="#D7E1EB"/>
</svg>
