<svg width="32" height="32" viewBox="0 0 32 32" fill="none" xmlns="http://www.w3.org/2000/svg">
<path d="M23.7778 6.02575C23.7778 6.01686 23.7778 6.01019 23.7778 6.0013V3.77908C23.7778 3.48439 23.6607 3.20178 23.4523 2.99341C23.244 2.78503 22.9614 2.66797 22.6667 2.66797C22.372 2.66797 22.0894 2.78503 21.881 2.99341C21.6726 3.20178 21.5556 3.48439 21.5556 3.77908V5.0013C21.1899 4.92704 20.8176 4.88982 20.4444 4.89019H19.3333V3.77908C19.3333 3.48439 19.2163 3.20178 19.0079 2.99341C18.7995 2.78503 18.5169 2.66797 18.2222 2.66797C17.9275 2.66797 17.6449 2.78503 17.4365 2.99341C17.2282 3.20178 17.1111 3.48439 17.1111 3.77908V4.89019H14.8889V3.77908C14.8889 3.48439 14.7718 3.20178 14.5635 2.99341C14.3551 2.78503 14.0725 2.66797 13.7778 2.66797C13.4831 2.66797 13.2005 2.78503 12.9921 2.99341C12.7837 3.20178 12.6667 3.48439 12.6667 3.77908V4.89019H11.5556C11.1824 4.88982 10.8101 4.92704 10.4444 5.0013V3.77908C10.4444 3.48439 10.3274 3.20178 10.119 2.99341C9.91063 2.78503 9.62802 2.66797 9.33333 2.66797C9.03865 2.66797 8.75603 2.78503 8.54766 2.99341C8.33929 3.20178 8.22222 3.48439 8.22222 3.77908V6.0013C8.22222 6.01019 8.22222 6.01686 8.22222 6.02575C7.5342 6.53949 6.97522 7.20634 6.58952 7.97351C6.20381 8.74067 6.00198 9.58708 6 10.4457V23.7791C6.00176 25.252 6.58765 26.664 7.62913 27.7055C8.67062 28.747 10.0827 29.3329 11.5556 29.3346H20.4444C21.9173 29.3329 23.3294 28.747 24.3709 27.7055C25.4124 26.664 25.9982 25.252 26 23.7791V10.4457C25.998 9.58708 25.7962 8.74067 25.4105 7.97351C25.0248 7.20634 24.4658 6.53949 23.7778 6.02575ZM16 21.5569H11.5556C11.2609 21.5569 10.9783 21.4398 10.7699 21.2314C10.5615 21.023 10.4444 20.7404 10.4444 20.4457C10.4444 20.1511 10.5615 19.8684 10.7699 19.6601C10.9783 19.4517 11.2609 19.3346 11.5556 19.3346H16C16.2947 19.3346 16.5773 19.4517 16.7857 19.6601C16.994 19.8684 17.1111 20.1511 17.1111 20.4457C17.1111 20.7404 16.994 21.023 16.7857 21.2314C16.5773 21.4398 16.2947 21.5569 16 21.5569ZM20.4444 17.1124H11.5556C11.2609 17.1124 10.9783 16.9954 10.7699 16.787C10.5615 16.5786 10.4444 16.296 10.4444 16.0013C10.4444 15.7066 10.5615 15.424 10.7699 15.2156C10.9783 15.0073 11.2609 14.8902 11.5556 14.8902H20.4444C20.7391 14.8902 21.0217 15.0073 21.2301 15.2156C21.4385 15.424 21.5556 15.7066 21.5556 16.0013C21.5556 16.296 21.4385 16.5786 21.2301 16.787C21.0217 16.9954 20.7391 17.1124 20.4444 17.1124ZM20.4444 12.668H11.5556C11.2609 12.668 10.9783 12.5509 10.7699 12.3425C10.5615 12.1342 10.4444 11.8515 10.4444 11.5569C10.4444 11.2622 10.5615 10.9796 10.7699 10.7712C10.9783 10.5628 11.2609 10.4457 11.5556 10.4457H20.4444C20.7391 10.4457 21.0217 10.5628 21.2301 10.7712C21.4385 10.9796 21.5556 11.2622 21.5556 11.5569C21.5556 11.8515 21.4385 12.1342 21.2301 12.3425C21.0217 12.5509 20.7391 12.668 20.4444 12.668Z" fill="#73C8EB"/>
</svg>
