<svg width="20" height="20" viewBox="0 0 20 20" fill="none" xmlns="http://www.w3.org/2000/svg">
<path d="M18.3332 7.91663C18.3332 7.36409 18.1137 6.83419 17.723 6.44349C17.3323 6.05279 16.8024 5.83329 16.2498 5.83329H14.1665C14.1665 4.72822 13.7275 3.66842 12.9461 2.88701C12.1647 2.10561 11.1049 1.66663 9.99984 1.66663C8.89477 1.66663 7.83496 2.10561 7.05356 2.88701C6.27216 3.66842 5.83317 4.72822 5.83317 5.83329H3.74984C3.1973 5.83329 2.6674 6.05279 2.2767 6.44349C1.886 6.83419 1.6665 7.36409 1.6665 7.91663L1.6665 14.8611C1.66761 15.7816 2.03378 16.6642 2.68471 17.3151C3.33564 17.966 4.21817 18.3322 5.13873 18.3333H14.8609C15.7815 18.3322 16.664 17.966 17.315 17.3151C17.9659 16.6642 18.3321 15.7816 18.3332 14.8611V7.91663ZM7.22206 5.83329C7.22206 5.09658 7.51472 4.39004 8.03565 3.86911C8.55659 3.34817 9.26312 3.05551 9.99984 3.05551C10.7366 3.05551 11.4431 3.34817 11.964 3.86911C12.485 4.39004 12.7776 5.09658 12.7776 5.83329H7.22206Z" fill="#A5B4C3"/>
</svg>
