<svg width="32" height="32" viewBox="0 0 32 32" fill="none" xmlns="http://www.w3.org/2000/svg">
<path d="M16 16C19.6819 16 22.6667 13.0152 22.6667 9.33329C22.6667 5.65139 19.6819 2.66663 16 2.66663C12.3181 2.66663 9.33337 5.65139 9.33337 9.33329C9.33337 13.0152 12.3181 16 16 16Z" fill="#73C8EB"/>
<path d="M16 18.2222C13.3487 18.2251 10.8069 19.2796 8.93218 21.1543C7.05745 23.0291 6.00294 25.5709 6 28.2222C6 28.5169 6.11706 28.7995 6.32544 29.0078C6.53381 29.2162 6.81643 29.3333 7.11111 29.3333H24.8889C25.1836 29.3333 25.4662 29.2162 25.6746 29.0078C25.8829 28.7995 26 28.5169 26 28.2222C25.9971 25.5709 24.9425 23.0291 23.0678 21.1543C21.1931 19.2796 18.6513 18.2251 16 18.2222V18.2222Z" fill="#73C8EB"/>
</svg>
