<svg width="16" height="16" viewBox="0 0 16 16" fill="none" xmlns="http://www.w3.org/2000/svg">
<path d="M9.66665 12.4431H4.11109C3.37465 12.4423 2.66862 12.1493 2.14788 11.6286C1.62714 11.1078 1.3342 10.4018 1.33331 9.66537L1.33331 4.10981C1.3342 3.37337 1.62714 2.66734 2.14788 2.1466C2.66862 1.62585 3.37465 1.33291 4.11109 1.33203L9.66665 1.33203C10.4031 1.33291 11.1091 1.62585 11.6299 2.1466C12.1506 2.66734 12.4435 3.37337 12.4444 4.10981V9.66537C12.4435 10.4018 12.1506 11.1078 11.6299 11.6286C11.1091 12.1493 10.4031 12.4423 9.66665 12.4431ZM14.6666 11.8876V4.66536C14.6666 4.51802 14.6081 4.37671 14.5039 4.27253C14.3997 4.16834 14.2584 4.10981 14.1111 4.10981C13.9637 4.10981 13.8224 4.16834 13.7183 4.27253C13.6141 4.37671 13.5555 4.51802 13.5555 4.66536V11.8876C13.5555 12.3296 13.3799 12.7535 13.0674 13.0661C12.7548 13.3787 12.3309 13.5543 11.8889 13.5543H4.66665C4.5193 13.5543 4.378 13.6128 4.27381 13.717C4.16962 13.8212 4.11109 13.9625 4.11109 14.1098C4.11109 14.2572 4.16962 14.3985 4.27381 14.5026C4.378 14.6068 4.5193 14.6654 4.66665 14.6654H11.8889C12.6253 14.6645 13.3313 14.3715 13.8521 13.8508C14.3728 13.3301 14.6658 12.624 14.6666 11.8876Z" fill="#D7E1EB"/>
</svg>
