<svg width="32" height="32" viewBox="0 0 32 32" fill="none" xmlns="http://www.w3.org/2000/svg">
<path d="M3.00951 19.2671L8.09727 24.3549C8.78432 25.0417 9.71605 25.4276 10.6876 25.4276C11.6591 25.4276 12.5908 25.0417 13.2778 24.3549L28.9905 8.64216C29.213 8.41183 29.3361 8.10333 29.3333 7.78312C29.3305 7.46291 29.2021 7.15661 28.9757 6.93018C28.7492 6.70375 28.4429 6.57531 28.1227 6.57253C27.8025 6.56974 27.494 6.69284 27.2637 6.9153L11.551 22.628C11.322 22.8569 11.0114 22.9856 10.6876 22.9856C10.3637 22.9856 10.0531 22.8569 9.82412 22.628L4.73637 17.5402C4.50603 17.3178 4.19754 17.1947 3.87733 17.1975C3.55712 17.2002 3.25082 17.3287 3.02439 17.5551C2.79795 17.7815 2.66952 18.0879 2.66673 18.4081C2.66395 18.7283 2.78705 19.0368 3.00951 19.2671V19.2671Z" fill="#3CC8B4"/>
</svg>
