<svg width="16" height="16" viewBox="0 0 16 16" fill="none" xmlns="http://www.w3.org/2000/svg">
<path d="M8.00002 1.33463C6.68148 1.33463 5.39255 1.72563 4.29622 2.45817C3.19989 3.19071 2.34541 4.2319 1.84083 5.45008C1.33624 6.66825 1.20422 8.0087 1.46146 9.3019C1.71869 10.5951 2.35363 11.783 3.28598 12.7153C4.21833 13.6477 5.40621 14.2826 6.69942 14.5399C7.99263 14.7971 9.33307 14.6651 10.5512 14.1605C11.7694 13.6559 12.8106 12.8014 13.5432 11.7051C14.2757 10.6088 14.6667 9.31984 14.6667 8.0013C14.6648 6.23378 13.9618 4.5392 12.712 3.28937C11.4621 2.03954 9.76754 1.33655 8.00002 1.33463ZM8.55558 11.3346C8.55558 11.482 8.49705 11.6233 8.39286 11.7275C8.28867 11.8317 8.14736 11.8902 8.00002 11.8902C7.85268 11.8902 7.71137 11.8317 7.60719 11.7275C7.503 11.6233 7.44447 11.482 7.44447 11.3346L7.44447 6.89019C7.44447 6.74285 7.503 6.60154 7.60719 6.49735C7.71137 6.39317 7.85268 6.33463 8.00002 6.33463C8.14736 6.33463 8.28867 6.39317 8.39286 6.49735C8.49705 6.60154 8.55558 6.74285 8.55558 6.89019V11.3346ZM8.00002 4.66797C7.89014 4.66797 7.78273 4.63538 7.69137 4.57434C7.60001 4.51329 7.5288 4.42653 7.48676 4.32501C7.44471 4.2235 7.43371 4.1118 7.45514 4.00403C7.47658 3.89626 7.52949 3.79727 7.60719 3.71957C7.68488 3.64188 7.78387 3.58897 7.89164 3.56753C7.99941 3.54609 8.11111 3.5571 8.21262 3.59914C8.31414 3.64119 8.4009 3.7124 8.46195 3.80376C8.52299 3.89512 8.55558 4.00253 8.55558 4.11241C8.55558 4.25975 8.49705 4.40106 8.39286 4.50525C8.28867 4.60944 8.14736 4.66797 8.00002 4.66797Z" fill="#FCF0C5"/>
</svg>
