<svg width="24" height="24" viewBox="0 0 24 24" fill="none" xmlns="http://www.w3.org/2000/svg">
<path d="M21.1634 12.0001C20.9597 11.9977 20.7626 12.0713 20.6104 12.2066C20.4582 12.3418 20.3619 12.529 20.3403 12.7315C20.2032 14.3176 19.6137 15.8311 18.642 17.0922C17.6702 18.3533 16.357 19.3091 14.8582 19.846C13.3594 20.383 11.7381 20.4786 10.1866 20.1215C8.63507 19.7643 7.21864 18.9695 6.10544 17.8313H8.39212C8.61306 17.8313 8.82494 17.7435 8.98116 17.5873C9.13739 17.4311 9.22515 17.2192 9.22515 16.9983C9.22515 16.7773 9.13739 16.5654 8.98116 16.4092C8.82494 16.253 8.61306 16.1652 8.39212 16.1652H5.05999C4.61812 16.1652 4.19435 16.3408 3.8819 16.6532C3.56945 16.9657 3.39392 17.3894 3.39392 17.8313V21.1634C3.39392 21.3844 3.48169 21.5962 3.63791 21.7525C3.79413 21.9087 4.00602 21.9965 4.22695 21.9965C4.44789 21.9965 4.65977 21.9087 4.816 21.7525C4.97222 21.5962 5.05999 21.3844 5.05999 21.1634V19.1325C6.40721 20.4587 8.10348 21.3749 9.95126 21.7743C11.799 22.1737 13.7223 22.0399 15.497 21.3886C17.2717 20.7372 18.8248 19.5951 19.9755 18.0951C21.1261 16.5952 21.827 14.7992 21.9964 12.9164C22.0071 12.8004 21.9936 12.6834 21.9567 12.5729C21.9197 12.4624 21.8602 12.3608 21.7818 12.2746C21.7034 12.1884 21.608 12.1195 21.5015 12.0722C21.395 12.0249 21.2799 12.0004 21.1634 12.0001Z" fill="#A5B4C3"/>
<path d="M19.773 2.00307C19.5521 2.00307 19.3402 2.09083 19.184 2.24706C19.0278 2.40328 18.94 2.61516 18.94 2.8361V4.86703C17.5928 3.54083 15.8965 2.62466 14.0487 2.22524C12.2009 1.82582 10.2777 1.95958 8.50301 2.61094C6.72831 3.2623 5.17518 4.40445 4.02452 5.90438C2.87385 7.40431 2.173 9.20028 2.00359 11.0831C1.99283 11.1991 2.00635 11.3161 2.04329 11.4266C2.08023 11.5371 2.13979 11.6387 2.21816 11.7249C2.29652 11.8111 2.39199 11.88 2.49847 11.9273C2.60495 11.9746 2.72012 11.9992 2.83662 11.9995C3.04023 12.0019 3.2374 11.9282 3.38961 11.793C3.54182 11.6577 3.6381 11.4705 3.65966 11.2681C3.79682 9.68191 4.38626 8.16844 5.358 6.90733C6.32974 5.64622 7.64296 4.69045 9.14175 4.15349C10.6405 3.61653 12.2619 3.52094 13.8134 3.87807C15.3649 4.2352 16.7813 5.03004 17.8945 6.16823H15.6079C15.3869 6.16823 15.175 6.256 15.0188 6.41222C14.8626 6.56845 14.7748 6.78033 14.7748 7.00127C14.7748 7.2222 14.8626 7.43408 15.0188 7.59031C15.175 7.74653 15.3869 7.8343 15.6079 7.8343H18.94C19.3819 7.8343 19.8056 7.65877 20.1181 7.34632C20.4305 7.03387 20.6061 6.6101 20.6061 6.16823V2.8361C20.6061 2.61516 20.5183 2.40328 20.3621 2.24706C20.2058 2.09083 19.994 2.00307 19.773 2.00307Z" fill="#A5B4C3"/>
<path d="M15.7385 13.9654C15.7385 14.6633 15.4973 15.2534 15.0148 15.7359C14.541 16.2097 13.8991 16.5156 13.0893 16.6534V17.39C13.0893 17.6227 13.0161 17.8079 12.8696 17.9457C12.7318 18.0922 12.5465 18.1654 12.3139 18.1654C12.0899 18.1654 11.9047 18.0922 11.7582 17.9457C11.6118 17.8079 11.5385 17.6227 11.5385 17.39V16.6922C11.0647 16.6491 10.6038 16.55 10.1558 16.395C9.71638 16.2399 9.32869 16.0417 8.99269 15.8005C8.85484 15.7144 8.75577 15.6196 8.69546 15.5162C8.64377 15.4042 8.61792 15.2664 8.61792 15.1027C8.61792 14.8873 8.68254 14.6977 8.81177 14.534C8.94961 14.3704 9.10469 14.2885 9.277 14.2885C9.44069 14.2885 9.64315 14.3574 9.88438 14.4953C10.2807 14.7279 10.6555 14.9002 11.0087 15.0122C11.3705 15.1156 11.7453 15.1673 12.133 15.1673C12.6499 15.1673 13.0462 15.0725 13.3219 14.883C13.5976 14.6848 13.7355 14.4091 13.7355 14.0559C13.7355 13.8405 13.6536 13.6639 13.4899 13.526C13.3348 13.3882 13.141 13.2805 12.9084 13.203C12.6758 13.1254 12.3398 13.0264 11.9004 12.9057C11.2628 12.742 10.7373 12.5784 10.3238 12.4147C9.91023 12.251 9.55269 11.9925 9.25115 11.6393C8.95823 11.286 8.81177 10.8122 8.81177 10.2177C8.81177 9.51989 9.0573 8.92113 9.54838 8.42143C10.0481 7.92174 10.6985 7.60297 11.4998 7.46513V6.72851C11.4998 6.49589 11.573 6.31066 11.7195 6.17282C11.8659 6.02636 12.0512 5.95312 12.2752 5.95312C12.5078 5.95312 12.693 6.02636 12.8308 6.17282C12.9773 6.31066 13.0505 6.49589 13.0505 6.72851V7.43928C13.8259 7.54266 14.5539 7.83559 15.2345 8.31805C15.3638 8.4042 15.4542 8.50328 15.5059 8.61528C15.5662 8.72728 15.5964 8.86082 15.5964 9.0159C15.5964 9.23128 15.5275 9.42082 15.3896 9.58451C15.2604 9.7482 15.1096 9.83005 14.9373 9.83005C14.8425 9.83005 14.7521 9.81713 14.6659 9.79128C14.5884 9.76543 14.4764 9.70943 14.3299 9.62328C13.9767 9.39928 13.6579 9.23128 13.3736 9.11928C13.0979 9.00728 12.7576 8.95128 12.3527 8.95128C11.8875 8.95128 11.5127 9.05466 11.2284 9.26143C10.9527 9.4682 10.8148 9.7439 10.8148 10.0885C10.8148 10.3297 10.8967 10.5279 11.0604 10.683C11.2241 10.8294 11.4308 10.9457 11.6807 11.0319C11.9305 11.118 12.2795 11.2171 12.7275 11.3291C13.3564 11.4842 13.869 11.6436 14.2653 11.8073C14.6702 11.9624 15.0148 12.2165 15.2991 12.5697C15.5921 12.9144 15.7385 13.3796 15.7385 13.9654Z" fill="#A5B4C3"/>
</svg>
