<svg width="32" height="32" viewBox="0 0 32 32" fill="none" xmlns="http://www.w3.org/2000/svg">
<path d="M13.8533 24.8887C12.9495 24.8878 12.083 24.5284 11.4439 23.8893C10.8048 23.2502 10.4453 22.3837 10.4445 21.4798C10.4445 21.1852 10.3274 20.9025 10.119 20.6942C9.91064 20.4858 9.62803 20.3687 9.33334 20.3687C9.03866 20.3687 8.75604 20.4858 8.54767 20.6942C8.33929 20.9025 8.22223 21.1852 8.22223 21.4798V21.5554C8.22223 21.5765 8.22223 21.5954 8.22223 21.6165C8.25931 23.0857 8.86874 24.4823 9.92063 25.5087C10.9725 26.535 12.3837 27.11 13.8533 27.111H14.8889V28.2221C14.8889 28.5167 15.006 28.7994 15.2143 29.0077C15.4227 29.2161 15.7053 29.3332 16 29.3332C16.2947 29.3332 16.5773 29.2161 16.7857 29.0077C16.9941 28.7994 17.1111 28.5167 17.1111 28.2221V27.111H18.1467C19.483 27.1095 20.7752 26.6329 21.7925 25.7663C22.8097 24.8997 23.4856 23.6996 23.6993 22.3805C23.913 21.0614 23.6507 19.7092 22.9591 18.5658C22.2676 17.4223 21.1919 16.562 19.9245 16.1387L17.1111 15.1998V7.11095H18.1467C19.0505 7.11183 19.9171 7.47126 20.5561 8.11036C21.1952 8.74946 21.5547 9.61601 21.5556 10.5198C21.5556 10.8145 21.6726 11.0971 21.881 11.3055C22.0894 11.5139 22.372 11.6309 22.6667 11.6309C22.9614 11.6309 23.244 11.5139 23.4524 11.3055C23.6607 11.0971 23.7778 10.8145 23.7778 10.5198V10.4443C23.7778 10.4232 23.7778 10.4043 23.7778 10.3832C23.7407 8.91398 23.1313 7.51737 22.0794 6.49101C21.0275 5.46465 19.6163 4.88971 18.1467 4.88873H17.1111V3.77762C17.1111 3.48293 16.9941 3.20031 16.7857 2.99194C16.5773 2.78357 16.2947 2.6665 16 2.6665C15.7053 2.6665 15.4227 2.78357 15.2143 2.99194C15.006 3.20031 14.8889 3.48293 14.8889 3.77762V4.88873H13.8533C12.517 4.89015 11.2248 5.36676 10.2076 6.23337C9.19034 7.09997 8.51446 8.30009 8.30073 9.6192C8.087 10.9383 8.34935 12.2904 9.04089 13.4339C9.73242 14.5774 10.8081 15.4376 12.0756 15.8609L14.8889 16.7998V24.8887H13.8533ZM17.1111 17.5409L19.2222 18.2454C19.9903 18.501 20.6423 19.0216 21.0616 19.7141C21.4809 20.4065 21.6402 21.2256 21.5108 22.0246C21.3814 22.8237 20.9719 23.5507 20.3555 24.0755C19.7392 24.6002 18.9562 24.8885 18.1467 24.8887H17.1111V17.5409ZM12.7778 13.7543C12.0097 13.4986 11.3577 12.978 10.9384 12.2856C10.5191 11.5932 10.3599 10.7741 10.4892 9.97503C10.6186 9.17595 11.0281 8.44897 11.6445 7.92422C12.2609 7.39946 13.0438 7.11118 13.8533 7.11095H14.8889V14.4587L12.7778 13.7543Z" fill="#73C8EB"/>
</svg>
