<svg width="20" height="20" viewBox="0 0 20 20" fill="none" xmlns="http://www.w3.org/2000/svg">
<path d="M10 1.66667C8.16249 1.66869 6.40078 2.3995 5.10138 3.69877C3.80198 4.99804 3.07099 6.75968 3.06879 8.59722C3.06879 10.3819 4.45073 13.175 7.17642 16.8986C7.5009 17.3431 7.92576 17.7048 8.41642 17.9541C8.90707 18.2034 9.44966 18.3333 10 18.3333C10.5504 18.3333 11.093 18.2034 11.5836 17.9541C12.0743 17.7048 12.4991 17.3431 12.8236 16.8986C15.5493 13.175 16.9313 10.3819 16.9313 8.59722C16.9291 6.75968 16.1981 4.99804 14.8987 3.69877C13.5993 2.3995 11.8376 1.66869 10 1.66667V1.66667ZM10 11.3597C9.45063 11.3597 8.91358 11.1968 8.45678 10.8916C7.99998 10.5863 7.64394 10.1525 7.4337 9.64495C7.22345 9.13738 7.16845 8.57886 7.27563 8.04002C7.38281 7.50119 7.64736 7.00624 8.03584 6.61776C8.42432 6.22928 8.91927 5.96472 9.45811 5.85754C9.99694 5.75036 10.5555 5.80537 11.063 6.01561C11.5706 6.22585 12.0044 6.58189 12.3097 7.03869C12.6149 7.49549 12.7778 8.03255 12.7778 8.58194C12.7778 9.31865 12.4851 10.0252 11.9642 10.5461C11.4433 11.0671 10.7367 11.3597 10 11.3597Z" fill="#73C8EB"/>
</svg>
