<svg width="130" height="56" viewBox="0 0 130 56" fill="none" xmlns="http://www.w3.org/2000/svg">
<g clip-path="url(#clip0)">
<path fill-rule="evenodd" clip-rule="evenodd" d="M31.6201 24.0643C32.3926 23.2872 32.3926 21.9549 31.6201 21.1777L37.8001 27.395C38.5726 28.1722 38.5726 29.5044 37.8001 30.2816L22.1294 46.0468C21.3569 46.824 20.0326 46.824 19.2601 46.0468L8.33472 35.0556L14.5147 28.8383L20.6947 35.0556C24.3365 31.3918 27.9783 27.7281 31.6201 24.0643Z" fill="#8778F5"/>
<path fill-rule="evenodd" clip-rule="evenodd" d="M3.56391 27.5379L19.2388 11.9032C20.0116 11.1325 21.3362 11.1325 22.1089 11.9032L26.8555 16.6377L20.6739 22.8035L26.8555 28.9693L20.6739 35.1351L14.4922 28.9693L8.31054 35.1351L3.56391 30.4006C2.7912 29.6299 2.7912 28.3087 3.56391 27.5379Z" fill="#F078DC"/>
<path fill-rule="evenodd" clip-rule="evenodd" d="M26.8722 16.6621L31.6256 21.3904C32.3993 22.1601 32.3993 23.4796 31.6256 24.2493L26.8722 28.9776L20.6819 22.8198L26.8722 16.6621Z" fill="#73C8EB"/>
</g>
<path d="M55.6015 28.0771H53.2345V10.9731H47.2173V8.83876H61.6472V10.9731H55.6015V28.0771Z" fill="#28323C"/>
<path d="M74.736 28.4232C71.9602 28.4232 69.6313 27.5002 67.7491 25.6543C65.886 23.7891 64.9544 21.3951 64.9544 18.4723C64.9544 15.5496 65.886 13.1652 67.7491 11.3193C69.6313 9.45408 71.9602 8.52148 74.736 8.52148C77.7778 8.52148 80.1828 9.79058 81.9509 12.3288L79.9547 13.4536C79.4033 12.6268 78.6619 11.9538 77.7303 11.4346C76.7987 10.9155 75.8006 10.6559 74.736 10.6559C72.6447 10.6559 70.8956 11.3962 69.4887 12.8768C68.1008 14.3382 67.4069 16.2033 67.4069 18.4723C67.4069 20.7413 68.1008 22.6161 69.4887 24.0967C70.8956 25.5581 72.6447 26.2888 74.736 26.2888C75.8006 26.2888 76.7987 26.0388 77.7303 25.5389C78.6619 25.0197 79.4033 24.3371 79.9547 23.491L81.9794 24.6159C80.1353 27.1541 77.7208 28.4232 74.736 28.4232Z" fill="#28323C"/>
<path d="M89.0741 28.0771H86.7071V8.83876H94.3499C96.194 8.83876 97.6484 9.39639 98.7131 10.5117C99.7777 11.6269 100.31 13.0018 100.31 14.6362C100.31 16.2706 99.7682 17.6455 98.6846 18.7608C97.6199 19.876 96.175 20.4337 94.3499 20.4337H89.0741V28.0771ZM94.0647 18.2993C95.1864 18.2993 96.099 17.9628 96.8024 17.2898C97.5058 16.5975 97.8575 15.713 97.8575 14.6362C97.8575 13.5594 97.5058 12.6845 96.8024 12.0115C96.099 11.3193 95.1864 10.9731 94.0647 10.9731H89.0741V18.2993H94.0647Z" fill="#28323C"/>
<path d="M57.5642 47.4778H55.9607V40.5644L53.1512 47.4778H52.466L49.6701 40.5644V47.4778H48.0667V38.1621H50.328L52.8086 44.2934L55.3029 38.1621H57.5642V47.4778Z" fill="#28323C"/>
<path d="M67.7328 47.4778H65.9101L65.2385 45.6901H61.0448L60.3732 47.4778H58.5505L62.1412 38.1621H64.1421L67.7328 47.4778ZM64.7862 44.2515L63.1416 39.8102L61.497 44.2515H64.7862Z" fill="#28323C"/>
<path d="M75.803 47.4778H73.9529L71.9245 44.0001H70.3347V47.4778H68.7313V38.1621H72.7468C73.6422 38.1621 74.364 38.4321 74.9122 38.9722C75.4604 39.5122 75.7345 40.2152 75.7345 41.0811C75.7345 41.8632 75.5244 42.4917 75.1041 42.9666C74.6838 43.4322 74.1721 43.7161 73.5691 43.8186L75.803 47.4778ZM72.5275 42.5616C72.9844 42.5616 73.359 42.4266 73.6514 42.1565C73.9437 41.8865 74.0899 41.5281 74.0899 41.0811C74.0899 40.6342 73.9437 40.2757 73.6514 40.0057C73.359 39.7357 72.9844 39.6007 72.5275 39.6007H70.3347V42.5616H72.5275Z" fill="#28323C"/>
<path d="M84.7789 47.4778H82.8053L79.7354 43.5532L78.9405 44.5029V47.4778H77.337V38.1621H78.9405V42.6035L82.5175 38.1621H84.5048L80.7907 42.5616L84.7789 47.4778Z" fill="#28323C"/>
<path d="M92.1123 47.4778H85.8491V38.1621H92.1123V39.6007H87.4526V42.0169H92.0164V43.4554H87.4526V46.0392H92.1123V47.4778Z" fill="#28323C"/>
<path d="M97.5416 47.4778H95.9381V39.6007H93.1697V38.1621H100.31V39.6007H97.5416V47.4778Z" fill="#28323C"/>
<defs>
<clipPath id="clip0">
<rect width="35.3952" height="35.3043" fill="white" transform="translate(2.98438 11.3252)"/>
</clipPath>
</defs>
</svg>
