<svg width="20" height="20" viewBox="0 0 20 20" fill="none" xmlns="http://www.w3.org/2000/svg">
<path d="M14.3749 8.33147H10.4166V9.7898C10.4166 10.8237 9.57546 11.6648 8.54161 11.6648C7.50775 11.6648 6.66661 10.8237 6.66661 9.7898V6.62313L4.97651 7.63876C4.4739 7.93824 4.16661 8.48251 4.16661 9.06584V10.2976L2.08328 11.5007C1.68484 11.7299 1.54682 12.2403 1.77859 12.6388L3.86192 16.2481C4.09109 16.6466 4.60151 16.782 4.99994 16.5528L7.69265 14.9981H11.2499C12.1692 14.9981 12.9166 14.2507 12.9166 13.3315H13.3333C13.7942 13.3315 14.1666 12.9591 14.1666 12.4981V10.8315H14.3749C14.7213 10.8315 14.9999 10.5528 14.9999 10.2065V8.95647C14.9999 8.61011 14.7213 8.33147 14.3749 8.33147ZM18.2213 7.35751L16.138 3.74813C15.9088 3.3497 15.3984 3.21428 14.9999 3.44345L12.3072 4.99813H9.64578C9.33328 4.99813 9.02859 5.08668 8.76296 5.25074L7.89057 5.79501C7.64578 5.94605 7.49994 6.21428 7.49994 6.50074V9.7898C7.49994 10.3653 7.96609 10.8315 8.54161 10.8315C9.11713 10.8315 9.58328 10.3653 9.58328 9.7898V7.49813H14.3749C15.1796 7.49813 15.8333 8.15178 15.8333 8.95647V9.69865L17.9166 8.49553C18.315 8.26376 18.4505 7.75595 18.2213 7.35751Z" fill="#73C8EB"/>
</svg>
