<svg width="20" height="20" viewBox="0 0 20 20" fill="none" xmlns="http://www.w3.org/2000/svg">
<path d="M18.3334 7.91797C18.3334 7.36543 18.1139 6.83553 17.7232 6.44483C17.3325 6.05413 16.8026 5.83464 16.25 5.83464H14.1667C14.1667 4.72957 13.7277 3.66976 12.9463 2.88836C12.1649 2.10696 11.1051 1.66797 10 1.66797C8.89495 1.66797 7.83514 2.10696 7.05374 2.88836C6.27234 3.66976 5.83335 4.72957 5.83335 5.83464H3.75002C3.19749 5.83464 2.66758 6.05413 2.27688 6.44483C1.88618 6.83553 1.66669 7.36543 1.66669 7.91797L1.66669 14.8624C1.66779 15.783 2.03397 16.6655 2.6849 17.3164C3.33582 17.9674 4.21836 18.3335 5.13891 18.3346H14.8611C15.7817 18.3335 16.6642 17.9674 17.3151 17.3164C17.9661 16.6655 18.3323 15.783 18.3334 14.8624V7.91797ZM7.22224 5.83464C7.22224 5.09792 7.5149 4.39138 8.03584 3.87045C8.55677 3.34952 9.26331 3.05686 10 3.05686C10.7367 3.05686 11.4433 3.34952 11.9642 3.87045C12.4851 4.39138 12.7778 5.09792 12.7778 5.83464H7.22224Z" fill="#73C8EB"/>
</svg>
