<svg width="240" height="102" viewBox="0 0 240 102" fill="none" xmlns="http://www.w3.org/2000/svg">
<g clip-path="url(#clip0)">
<path fill-rule="evenodd" clip-rule="evenodd" d="M58.3756 43.8319C59.8017 42.4164 59.8017 39.9898 58.3756 38.5742L69.7848 49.8985C71.211 51.3141 71.211 53.7407 69.7848 55.1563L40.8543 83.8715C39.4281 85.287 36.9833 85.287 35.5571 83.8715L15.3872 63.8517L26.7964 52.5274L38.2057 63.8517C44.929 57.1785 51.6523 50.5052 58.3756 43.8319Z" fill="#8778F5"/>
<path fill-rule="evenodd" clip-rule="evenodd" d="M6.57918 50.1593L35.5175 21.6818C36.9441 20.278 39.3896 20.278 40.8161 21.6818L49.5791 30.3052L38.1668 41.5358L49.5791 52.7664L38.1668 63.9969L26.7545 52.7664L15.3422 63.9969L6.57918 55.3735C5.15264 53.9696 5.15264 51.5631 6.57918 50.1593Z" fill="#F078DC"/>
<path fill-rule="evenodd" clip-rule="evenodd" d="M49.61 30.3496L58.3853 38.9618C59.8139 40.3638 59.8139 42.7672 58.3853 44.1692L49.61 52.7813L38.1816 41.5655L49.61 30.3496Z" fill="#73C8EB"/>
</g>
<path d="M102.649 51.1406H98.2791V19.987H87.1704V16.0994H113.81V19.987H102.649V51.1406Z" fill="#F9F9F9"/>
<path d="M137.974 51.771C132.85 51.771 128.55 50.0899 125.075 46.7276C121.636 43.3303 119.916 38.9699 119.916 33.6462C119.916 28.3226 121.636 23.9797 125.075 20.6174C128.55 17.2201 132.85 15.5215 137.974 15.5215C143.59 15.5215 148.03 17.833 151.294 22.4562L147.609 24.5051C146.591 22.999 145.222 21.7732 143.502 20.8276C141.782 19.8819 139.94 19.4091 137.974 19.4091C134.113 19.4091 130.884 20.7575 128.287 23.4544C125.725 26.1162 124.444 29.5135 124.444 33.6462C124.444 37.779 125.725 41.1939 128.287 43.8907C130.884 46.5525 134.113 47.8834 137.974 47.8834C139.94 47.8834 141.782 47.4281 143.502 46.5175C145.222 45.5718 146.591 44.3285 147.609 42.7874L151.347 44.8363C147.942 49.4594 143.485 51.771 137.974 51.771Z" fill="#F9F9F9"/>
<path d="M164.445 51.1406H160.075V16.0994H174.184C177.589 16.0994 180.274 17.1151 182.24 19.1464C184.205 21.1778 185.188 23.682 185.188 26.659C185.188 29.636 184.188 32.1402 182.187 34.1716C180.221 36.203 177.554 37.2187 174.184 37.2187H164.445V51.1406ZM173.658 33.331C175.729 33.331 177.414 32.7181 178.712 31.4923C180.011 30.2314 180.66 28.6203 180.66 26.659C180.66 24.6977 180.011 23.1041 178.712 21.8783C177.414 20.6174 175.729 19.987 173.658 19.987H164.445V33.331H173.658Z" fill="#F9F9F9"/>
<path d="M106.273 86.4776H103.312V73.8853L98.1257 86.4776H96.8606L91.6991 73.8853V86.4776H88.7388V69.5098H92.9135L97.4931 80.6775L102.098 69.5098H106.273V86.4776Z" fill="#F9F9F9"/>
<path d="M125.046 86.4776H121.68L120.441 83.2214H112.698L111.459 86.4776H108.093L114.722 69.5098H118.417L125.046 86.4776ZM119.606 80.6012L116.57 72.5116L113.533 80.6012H119.606Z" fill="#F9F9F9"/>
<path d="M139.944 86.4776H136.529L132.784 80.1433H129.849V86.4776H126.889V69.5098H134.302C135.955 69.5098 137.288 70.0016 138.3 70.9852C139.312 71.9689 139.818 73.2493 139.818 74.8265C139.818 76.2511 139.43 77.3959 138.654 78.2608C137.878 79.1088 136.934 79.626 135.82 79.8126L139.944 86.4776ZM133.897 77.5231C134.741 77.5231 135.432 77.2772 135.972 76.7853C136.512 76.2935 136.782 75.6406 136.782 74.8265C136.782 74.0125 136.512 73.3595 135.972 72.8677C135.432 72.3759 134.741 72.13 133.897 72.13H129.849V77.5231H133.897Z" fill="#F9F9F9"/>
<path d="M156.515 86.4776H152.872L147.204 79.3293L145.737 81.0591V86.4776H142.776V69.5098H145.737V77.5994L152.34 69.5098H156.009L149.152 77.5231L156.515 86.4776Z" fill="#F9F9F9"/>
<path d="M170.054 86.4776H158.491V69.5098H170.054V72.13H161.451V76.531H169.877V79.1512H161.451V83.8574H170.054V86.4776Z" fill="#F9F9F9"/>
<path d="M180.077 86.4776H177.117V72.13H172.006V69.5098H185.188V72.13H180.077V86.4776Z" fill="#F9F9F9"/>
<defs>
<clipPath id="clip0">
<rect width="65.345" height="64.3044" fill="white" transform="translate(5.50928 20.6289)"/>
</clipPath>
</defs>
</svg>
