<svg width="24" height="24" viewBox="0 0 24 24" fill="none" xmlns="http://www.w3.org/2000/svg">
<path d="M21.627 14.8164C21.2173 14.3984 20.5784 14.4258 20.1479 14.8164L16.9396 17.7031C16.5458 18.0586 16.0556 18.2516 15.5507 18.25H11.4442C11.2969 18.25 11.1556 18.1842 11.0514 18.0669C10.9472 17.9497 10.8887 17.7908 10.8887 17.625C10.8887 17.4592 10.9472 17.3003 11.0514 17.1831C11.1556 17.0658 11.2969 17 11.4442 17H14.1626C14.7147 17 15.2289 16.5742 15.3171 15.9609C15.3279 15.8905 15.3333 15.8191 15.333 15.7477C15.3325 15.4165 15.2152 15.0992 15.0069 14.8653C14.7986 14.6314 14.5163 14.5 14.222 14.5H8.66652C7.7296 14.5003 6.82124 14.8629 6.09366 15.527L4.47911 17H2.55554C2.4082 17 2.2669 17.0658 2.16271 17.1831C2.05853 17.3003 2 17.4592 2 17.625V21.375C2 21.5408 2.05853 21.6997 2.16271 21.8169C2.2669 21.9342 2.4082 22 2.55554 22H14.9431C15.4478 22.0004 15.9377 21.8076 16.332 21.4531L21.5829 16.7266C21.7092 16.6129 21.812 16.4696 21.8839 16.3066C21.9559 16.1437 21.9954 15.965 21.9996 15.7831C22.0039 15.6012 21.9727 15.4204 21.9084 15.2535C21.8441 15.0865 21.7479 14.9373 21.627 14.8164Z" fill="#73C8EB"/>
<path d="M10.6471 2V3.15385H9V10.8462H10.6471V12H11.4706V10.8462H12.2941V12H13.1176V10.8462H13.7353C14.9817 10.8462 16 9.895 16 8.73077C16 7.93 15.5224 7.22692 14.8162 6.86769C15.1627 6.58354 15.4084 6.20755 15.5205 5.78977C15.6326 5.37199 15.6058 4.93222 15.4438 4.52899C15.2817 4.12576 14.992 3.77819 14.6133 3.53254C14.2345 3.28688 13.7846 3.15479 13.3235 3.15385H13.1176V2H12.2941V3.15385H11.4706V2H10.6471ZM9.82353 3.92308H13.3235C14.1244 3.92308 14.7647 4.52115 14.7647 5.26923C14.7647 6.01731 14.1244 6.61538 13.3235 6.61538H9.82353V3.92308ZM9.82353 7.38462H13.7353C14.5362 7.38462 15.1765 7.98269 15.1765 8.73077C15.1765 9.47885 14.5362 10.0769 13.7353 10.0769H9.82353V7.38462Z" fill="#73C8EB"/>
</svg>
