<svg width="20" height="20" viewBox="0 0 20 20" fill="none" xmlns="http://www.w3.org/2000/svg">
<path d="M18.0223 12.3473C17.6809 11.999 17.1485 12.0218 16.7897 12.3473L14.1162 14.7529C13.788 15.0491 13.3795 15.21 12.9588 15.2087H9.5367C9.41392 15.2087 9.29617 15.1538 9.20935 15.0561C9.12253 14.9584 9.07375 14.826 9.07375 14.6878C9.07375 14.5497 9.12253 14.4172 9.20935 14.3195C9.29617 14.2219 9.41392 14.167 9.5367 14.167H11.802C12.2621 14.167 12.6906 13.8122 12.7641 13.3011C12.7731 13.2424 12.7776 13.1829 12.7774 13.1234C12.7769 12.8474 12.6792 12.583 12.5056 12.3881C12.332 12.1931 12.0967 12.0837 11.8515 12.0837H7.22194C6.44117 12.0839 5.6842 12.386 5.07789 12.9395L3.73243 14.167H2.12946C2.00667 14.167 1.88892 14.2219 1.8021 14.3195C1.71528 14.4172 1.6665 14.5497 1.6665 14.6878V17.8128C1.6665 17.951 1.71528 18.0834 1.8021 18.1811C1.88892 18.2788 2.00667 18.3337 2.12946 18.3337H12.4524C12.873 18.334 13.2812 18.1733 13.6098 17.8779L17.9856 13.9391C18.0909 13.8444 18.1765 13.725 18.2364 13.5892C18.2964 13.4534 18.3293 13.3045 18.3329 13.1529C18.3364 13.0013 18.3104 12.8507 18.2569 12.7116C18.2033 12.5724 18.1231 12.4481 18.0223 12.3473Z" fill="#96DCF5"/>
<path d="M12.4998 7.13436C12.4998 7.61055 12.3304 8.01326 11.9917 8.34248C11.6589 8.66582 11.2082 8.87452 10.6396 8.96858V9.47123C10.6396 9.62996 10.5882 9.75635 10.4853 9.85041C10.3885 9.95036 10.2585 10.0003 10.0951 10.0003C9.93783 10.0003 9.80776 9.95036 9.70492 9.85041C9.60208 9.75635 9.55065 9.62996 9.55065 9.47123V8.99503C9.21793 8.96564 8.89427 8.89803 8.57969 8.79221C8.27116 8.68639 7.99893 8.55118 7.763 8.38657C7.6662 8.32778 7.59663 8.26311 7.55428 8.19257C7.51799 8.11614 7.49984 8.02208 7.49984 7.91038C7.49984 7.76341 7.54521 7.63407 7.63595 7.52237C7.73275 7.41067 7.84164 7.35482 7.96263 7.35482C8.07758 7.35482 8.21974 7.40185 8.38913 7.49592C8.66741 7.65465 8.93057 7.77222 9.1786 7.84865C9.43269 7.9192 9.69584 7.95447 9.96808 7.95447C10.3311 7.95447 10.6093 7.8898 10.8029 7.76047C10.9965 7.62525 11.0933 7.43713 11.0933 7.19609C11.0933 7.04912 11.0358 6.9286 10.9209 6.83454C10.812 6.74048 10.6759 6.66699 10.5125 6.61408C10.3492 6.56117 10.1133 6.49356 9.80474 6.41126C9.35707 6.29956 8.98804 6.18786 8.69766 6.07616C8.40728 5.96446 8.15622 5.7881 7.94448 5.54706C7.7388 5.30603 7.63595 4.98269 7.63595 4.57705C7.63595 4.10085 7.80837 3.69227 8.1532 3.3513C8.50407 3.01032 8.96082 2.7928 9.52343 2.69874V2.19609C9.52343 2.03736 9.57485 1.91097 9.6777 1.8169C9.78054 1.71696 9.91061 1.66699 10.0679 1.66699C10.2312 1.66699 10.3613 1.71696 10.4581 1.8169C10.5609 1.91097 10.6124 2.03736 10.6124 2.19609V2.6811C11.1568 2.75165 11.668 2.95153 12.1459 3.28075C12.2367 3.33954 12.3002 3.40714 12.3365 3.48357C12.3788 3.56 12.4 3.65112 12.4 3.75694C12.4 3.90391 12.3516 4.03325 12.2548 4.14495C12.1641 4.25665 12.0582 4.31249 11.9372 4.31249C11.8707 4.31249 11.8072 4.30368 11.7467 4.28604C11.6922 4.2684 11.6136 4.23019 11.5107 4.1714C11.2627 4.01855 11.0389 3.90391 10.8392 3.82749C10.6456 3.75106 10.4067 3.71285 10.1223 3.71285C9.79566 3.71285 9.5325 3.78339 9.33287 3.92449C9.13928 4.06558 9.04249 4.25371 9.04249 4.48886C9.04249 4.65347 9.09996 4.78869 9.2149 4.89451C9.32984 4.99445 9.47503 5.07381 9.65047 5.1326C9.82591 5.19139 10.0709 5.259 10.3855 5.33542C10.8271 5.44124 11.1871 5.55 11.4654 5.6617C11.7497 5.76752 11.9917 5.94095 12.1913 6.18198C12.397 6.41714 12.4998 6.7346 12.4998 7.13436Z" fill="#96DCF5"/>
</svg>
