<svg width="18" height="18" viewBox="0 0 18 18" fill="none" xmlns="http://www.w3.org/2000/svg">
<path d="M16.5 10.6667V14.8333C16.5 15.2754 16.3244 15.6993 16.0118 16.0118C15.6993 16.3244 15.2754 16.5 14.8333 16.5H3.16667C2.72464 16.5 2.30072 16.3244 1.98816 16.0118C1.67559 15.6993 1.5 15.2754 1.5 14.8333V3.16667C1.5 2.72464 1.67559 2.30072 1.98816 1.98816C2.30072 1.67559 2.72464 1.5 3.16667 1.5H7.33333V3.16667H3.16667V14.8333H14.8333V10.6667H16.5Z" fill="#A5B4C3"/>
<path d="M16.5 5.1H12.9V1.5H11.1V5.1H7.5V6.9H11.1V10.5H12.9V6.9H16.5" fill="#A5B4C3"/>
</svg>
