<svg width="20" height="20" viewBox="0 0 20 20" fill="none" xmlns="http://www.w3.org/2000/svg">
<g clip-path="url(#clip0)">
<path d="M9.66064 12.8656C9.66064 12.3894 9.83003 11.9867 10.1688 11.6575C10.5015 11.3342 10.9522 11.1255 11.5209 11.0314V10.5288C11.5209 10.37 11.5723 10.2436 11.6752 10.1496C11.772 10.0496 11.902 9.99967 12.0654 9.99967C12.2227 9.99967 12.3527 10.0496 12.4556 10.1496C12.5584 10.2436 12.6098 10.37 12.6098 10.5288V11.005C12.9426 11.0344 13.2662 11.102 13.5808 11.2078C13.8893 11.3136 14.1616 11.4488 14.3975 11.6134C14.4943 11.6722 14.5639 11.7369 14.6062 11.8074C14.6425 11.8839 14.6606 11.9779 14.6606 12.0896C14.6606 12.2366 14.6153 12.3659 14.5245 12.4776C14.4277 12.5893 14.3188 12.6452 14.1979 12.6452C14.0829 12.6452 13.9407 12.5981 13.7714 12.5041C13.4931 12.3454 13.2299 12.2278 12.9819 12.1513C12.7278 12.0808 12.4646 12.0455 12.1924 12.0455C11.8294 12.0455 11.5511 12.1102 11.3576 12.2395C11.164 12.3747 11.0672 12.5629 11.0672 12.8039C11.0672 12.9509 11.1247 13.0714 11.2396 13.1655C11.3485 13.2595 11.4846 13.333 11.6479 13.3859C11.8113 13.4388 12.0472 13.5064 12.3557 13.5887C12.8034 13.7004 13.1724 13.8121 13.4628 13.9238C13.7532 14.0355 14.0043 14.2119 14.216 14.4529C14.4217 14.694 14.5245 15.0173 14.5245 15.423C14.5245 15.8991 14.3521 16.3077 14.0073 16.6487C13.6564 16.9897 13.1997 17.2072 12.6371 17.3013V17.8039C12.6371 17.9626 12.5856 18.089 12.4828 18.1831C12.3799 18.283 12.2499 18.333 12.0926 18.333C11.9292 18.333 11.7992 18.283 11.7024 18.1831C11.5995 18.089 11.5481 17.9626 11.5481 17.8039V17.3189C11.0037 17.2484 10.4925 17.0485 10.0145 16.7193C9.9238 16.6605 9.86028 16.5929 9.82398 16.5164C9.78164 16.44 9.76046 16.3489 9.76046 16.2431C9.76046 16.0961 9.80886 15.9668 9.90565 15.8551C9.9964 15.7434 10.1023 15.6875 10.2233 15.6875C10.2898 15.6875 10.3533 15.6963 10.4138 15.714C10.4683 15.7316 10.5469 15.7698 10.6498 15.8286C10.8978 15.9814 11.1216 16.0961 11.3213 16.1725C11.5148 16.2489 11.7538 16.2872 12.0381 16.2872C12.3648 16.2872 12.628 16.2166 12.8276 16.0755C13.0212 15.9344 13.118 15.7463 13.118 15.5111C13.118 15.3465 13.0605 15.2113 12.9456 15.1055C12.8306 15.0056 12.6854 14.9262 12.51 14.8674C12.3346 14.8086 12.0896 14.741 11.775 14.6646C11.3334 14.5588 10.9734 14.45 10.6951 14.3383C10.4108 14.2325 10.1688 14.0591 9.96917 13.818C9.76349 13.5829 9.66064 13.2654 9.66064 12.8656Z" fill="#73C8EB"/>
<path d="M15.2299 9.3816C15.6029 9.76998 16.2201 9.78045 16.611 9.40502C17.002 9.02959 17.0164 8.4125 16.6434 8.02411L12.0411 3.23187C11.8114 2.99269 11.5063 2.83858 11.177 2.7963L6.04776 2.05746C5.80036 2.02089 5.56933 1.93063 5.36079 1.8019C5.17563 1.68868 4.93524 1.72129 4.77843 1.87189L1.86971 4.66534C1.67535 4.852 1.66806 5.1627 1.8535 5.35579L4.21368 7.81336C4.7974 8.42116 5.56303 8.82052 6.39748 8.95555L9.28804 9.41899C9.81928 9.50355 10.3243 9.14085 10.4124 8.60919C10.5004 8.07752 10.1409 7.57497 9.60963 7.49041L7.69765 7.18386C7.45677 7.14524 7.28468 6.93511 7.29036 6.69345L7.30332 6.14109C7.31001 5.85627 7.56349 5.63393 7.84773 5.66465L12.1027 6.12533L15.2299 9.3816Z" fill="#73C8EB"/>
</g>
<defs>
<clipPath id="clip0">
<rect width="20" height="20" fill="white"/>
</clipPath>
</defs>
</svg>
