<svg width="18" height="18" viewBox="0 0 18 18" fill="none" xmlns="http://www.w3.org/2000/svg">
<path d="M1.25002 7.49257C1.24814 7.96442 1.38434 8.42651 1.64184 8.82192C1.89933 9.21732 2.26686 9.52876 2.69916 9.71787C3.13146 9.90698 3.60964 9.9655 4.07479 9.88622C4.53994 9.80693 4.97173 9.59331 5.31697 9.27166L8.92094 10.8989C8.89591 11.0336 8.88216 11.1702 8.87984 11.3072C8.878 11.8899 9.08518 12.454 9.46378 12.897C9.84237 13.34 10.3673 13.6325 10.9432 13.7215C11.5191 13.8104 12.1078 13.6899 12.6024 13.3818C13.097 13.0737 13.4647 12.5985 13.6388 12.0423C13.8129 11.4862 13.7817 10.8861 13.5511 10.351C13.3204 9.81588 12.9055 9.38122 12.3816 9.12594C11.8578 8.87067 11.2598 8.8117 10.6962 8.95976C10.1326 9.10781 9.64079 9.45307 9.31005 9.93284L5.92405 8.40396C6.16454 7.82323 6.16548 7.17092 5.92665 6.5895L9.30797 5.05281C9.63771 5.52971 10.1275 5.87264 10.6884 6.01938C11.2493 6.16612 11.8442 6.10696 12.3653 5.85263C12.8863 5.5983 13.2989 5.16565 13.5283 4.63315C13.7577 4.10065 13.7886 3.50358 13.6154 2.95024C13.4423 2.3969 13.0766 1.92395 12.5846 1.61716C12.0926 1.31038 11.507 1.19008 10.9339 1.2781C10.3608 1.36612 9.83827 1.65663 9.46103 2.09692C9.0838 2.53721 8.87686 3.09812 8.87776 3.67792C8.87997 3.81515 8.89389 3.95194 8.91938 4.0868L5.32477 5.72024C4.98017 5.39666 4.54832 5.18114 4.08257 5.10031C3.61683 5.01948 3.13761 5.07688 2.70413 5.26542C2.27065 5.45397 1.90192 5.76539 1.64349 6.1612C1.38506 6.55701 1.24827 7.01987 1.25002 7.49257Z" fill="#A5B4C3"/>
</svg>
