<svg width="10" height="10" viewBox="0 0 10 10" fill="none" xmlns="http://www.w3.org/2000/svg">
<path d="M0.549637 5.24802L2.03379 6.33195L1.47014 8.07749C1.37906 8.34822 1.3779 8.64113 1.46685 8.91257C1.5558 9.18401 1.7301 9.41943 1.96375 9.58374C2.1934 9.75332 2.47169 9.84417 2.75716 9.84274C3.04264 9.84131 3.32001 9.74769 3.54795 9.57582L4.99917 8.50773L6.4508 9.57456C6.68003 9.74318 6.95682 9.83476 7.24139 9.83615C7.52595 9.83753 7.80362 9.74865 8.03449 9.58228C8.26535 9.41591 8.43751 9.18061 8.52622 8.91023C8.61493 8.63984 8.61562 8.34829 8.52819 8.07749L7.96455 6.33195L9.4487 5.24802C9.67763 5.08064 9.84781 4.84519 9.93494 4.57531C10.0221 4.30543 10.0217 4.01492 9.93383 3.74527C9.84598 3.47562 9.67517 3.24063 9.44579 3.07387C9.2164 2.9071 8.94019 2.81709 8.65659 2.81668H6.83351L6.28029 1.0924C6.19329 0.820984 6.02234 0.58421 5.79209 0.416223C5.56184 0.248235 5.28418 0.157715 4.99917 0.157715C4.71415 0.157715 4.43649 0.248235 4.20624 0.416223C3.97599 0.58421 3.80504 0.820984 3.71805 1.0924L3.16482 2.81668H1.34341C1.05981 2.81709 0.783596 2.9071 0.554214 3.07387C0.324833 3.24063 0.15402 3.47562 0.0661719 3.74527C-0.0216761 4.01492 -0.0220649 4.30543 0.065061 4.57531C0.152187 4.84519 0.322371 5.08064 0.551305 5.24802H0.549637Z" fill="#D7E1EB"/>
</svg>
