<svg width="54" height="64" viewBox="0 0 54 64" fill="none" xmlns="http://www.w3.org/2000/svg">
<path d="M44.6152 5.70722L27.9088 0.13664C27.3618 -0.0455467 26.7705 -0.0455467 26.2235 0.13664L9.5171 5.70722C6.86089 6.58956 4.55028 8.28653 2.91359 10.557C1.27689 12.8275 0.397338 15.5561 0.399908 18.355V32.0002C0.399908 52.1678 24.9329 63.3063 25.9835 63.7703C26.3244 63.9218 26.6932 64 27.0662 64C27.4391 64 27.808 63.9218 28.1488 63.7703C29.1995 63.3063 53.7324 52.1678 53.7324 32.0002V18.355C53.735 15.5561 52.8554 12.8275 51.2187 10.557C49.582 8.28653 47.2714 6.58956 44.6152 5.70722ZM39.6473 25.9122L28.2555 37.3041C27.7893 37.7734 27.2346 38.1454 26.6234 38.3985C26.0123 38.6517 25.357 38.7809 24.6955 38.7787H24.6075C23.9326 38.7684 23.2667 38.6213 22.6503 38.3463C22.0338 38.0712 21.4795 37.6741 21.0209 37.1787L14.8717 30.7788C14.6054 30.5318 14.3924 30.2329 14.2457 29.9005C14.099 29.5681 14.0219 29.2093 14.0188 28.846C14.0158 28.4828 14.0871 28.1227 14.2282 27.788C14.3694 27.4532 14.5774 27.1509 14.8396 26.8994C15.1018 26.648 15.4126 26.4527 15.7529 26.3257C16.0933 26.1987 16.456 26.1425 16.8188 26.1607C17.1816 26.1789 17.5369 26.271 17.8629 26.4314C18.1888 26.5918 18.4786 26.8172 18.7143 27.0936L24.6982 33.3335L35.866 22.1336C36.369 21.6479 37.0426 21.3791 37.7417 21.3852C38.4409 21.3913 39.1097 21.6717 39.6042 22.1661C40.0986 22.6605 40.379 23.3294 40.3851 24.0285C40.3912 24.7277 40.1224 25.4013 39.6366 25.9042L39.6473 25.9122Z" fill="#5AE2D0"/>
</svg>
