<svg width="32" height="32" viewBox="0 0 32 32" fill="none" xmlns="http://www.w3.org/2000/svg">
<path d="M16 32C24.8366 32 32 24.8366 32 16C32 7.16344 24.8366 0 16 0C7.16344 0 0 7.16344 0 16C0 24.8366 7.16344 32 16 32Z" fill="url(#paint0_linear)"/>
<path fill-rule="evenodd" clip-rule="evenodd" d="M23.6999 8.75768L20.8454 23.1499C20.8454 23.1499 20.4462 24.1479 19.3484 23.6687L12.7613 18.6185L10.3659 17.4608L6.33383 16.1034C6.33383 16.1034 5.71503 15.8838 5.65523 15.4048C5.59532 14.9256 6.3538 14.6662 6.3538 14.6662L22.3825 8.37839C22.3825 8.37839 23.6998 7.79951 23.6998 8.75768H23.6999Z" fill="#FEFEFE"/>
<path fill-rule="evenodd" clip-rule="evenodd" d="M12.2558 22.9854C12.2558 22.9854 12.0635 22.9674 11.8239 22.2089C11.5844 21.4504 10.3667 17.4581 10.3667 17.4581L20.0487 11.31C20.0487 11.31 20.6076 10.9706 20.5877 11.31C20.5877 11.31 20.6875 11.3698 20.3881 11.6493C20.0886 11.9287 12.7822 18.496 12.7822 18.496L12.2559 22.9854H12.2558Z" fill="#D4E6F1"/>
<path fill-rule="evenodd" clip-rule="evenodd" d="M15.2874 20.5509L12.6819 22.9266C12.6819 22.9266 12.4782 23.0811 12.2554 22.9843L12.7543 18.5713L15.2874 20.5509Z" fill="#B6D0E5"/>
<defs>
<linearGradient id="paint0_linear" x1="15.5982" y1="29.4984" x2="16.4018" y2="2.50152" gradientUnits="userSpaceOnUse">
<stop stop-color="#19A8DD"/>
<stop offset="0.678" stop-color="#2AB2E2"/>
<stop offset="1" stop-color="#3CBDE8"/>
</linearGradient>
</defs>
</svg>
