<svg width="18" height="14" viewBox="0 0 18 14" fill="none" xmlns="http://www.w3.org/2000/svg">
<path d="M17.0942 1.83274C16.4813 2.10432 15.8228 2.28783 15.1307 2.37077C15.8449 1.94342 16.3792 1.27082 16.6339 0.478469C15.9629 0.877035 15.2285 1.15758 14.4627 1.30791C13.9477 0.758032 13.2656 0.393562 12.5222 0.27109C11.7788 0.148617 11.0158 0.274993 10.3516 0.630597C9.68744 0.986202 9.15923 1.55114 8.84902 2.2377C8.53881 2.92426 8.46394 3.69403 8.63604 4.4275C7.27641 4.35923 5.94632 4.00584 4.7321 3.39026C3.51788 2.77468 2.44666 1.91066 1.58798 0.854288C1.29437 1.36076 1.12554 1.94798 1.12554 2.57336C1.12522 3.13635 1.26386 3.69072 1.52917 4.18728C1.79447 4.68384 2.17825 5.10723 2.64643 5.41989C2.10346 5.40262 1.57247 5.2559 1.09765 4.99196V5.036C1.0976 5.82562 1.37073 6.59093 1.87071 7.20209C2.37069 7.81325 3.06671 8.23261 3.84069 8.38901C3.33699 8.52532 2.8089 8.5454 2.29631 8.44773C2.51468 9.12715 2.94004 9.72127 3.51285 10.1469C4.08566 10.5726 4.77723 10.8085 5.49076 10.8216C4.27951 11.7724 2.78361 12.2882 1.24372 12.2859C0.970945 12.286 0.6984 12.2701 0.42749 12.2382C1.99057 13.2432 3.81011 13.7766 5.6684 13.7745C11.959 13.7745 15.3978 8.56444 15.3978 4.04581C15.3978 3.899 15.3942 3.75073 15.3876 3.60393C16.0565 3.12019 16.6339 2.52117 17.0927 1.83494L17.0942 1.83274Z" fill="#D7E1EB"/>
</svg>
