<svg width="16" height="12" viewBox="0 0 16 12" fill="none" xmlns="http://www.w3.org/2000/svg">
<rect width="16" height="11.4286" rx="2" fill="white"/>
<mask id="mask0" mask-type="alpha" maskUnits="userSpaceOnUse" x="0" y="0" width="16" height="12">
<rect width="16" height="11.4286" rx="2" fill="white"/>
</mask>
<g mask="url(#mask0)">
<path fill-rule="evenodd" clip-rule="evenodd" d="M16 0H0V0.761905H16V0ZM16 1.52381H0V2.28571H16V1.52381ZM0 3.04762H16V3.80953H0V3.04762ZM16 4.57143H0V5.33333H16V4.57143ZM0 6.09524H16V6.85714H0V6.09524ZM16 7.61905H0V8.38095H16V7.61905ZM0 9.14286H16V9.90476H0V9.14286ZM16 10.6667H0V11.4286H16V10.6667Z" fill="#D02F44"/>
<rect width="6.85714" height="5.33333" fill="#46467F"/>
<g filter="url(#filter0_d)">
<path fill-rule="evenodd" clip-rule="evenodd" d="M1.52387 1.14267C1.52387 1.35307 1.35331 1.52362 1.14292 1.52362C0.932521 1.52362 0.761963 1.35307 0.761963 1.14267C0.761963 0.932277 0.932521 0.761719 1.14292 0.761719C1.35331 0.761719 1.52387 0.932277 1.52387 1.14267ZM3.04767 1.14267C3.04767 1.35307 2.87711 1.52362 2.66672 1.52362C2.45632 1.52362 2.28576 1.35307 2.28576 1.14267C2.28576 0.932277 2.45632 0.761719 2.66672 0.761719C2.87711 0.761719 3.04767 0.932277 3.04767 1.14267ZM4.19054 1.52362C4.40094 1.52362 4.5715 1.35307 4.5715 1.14267C4.5715 0.932277 4.40094 0.761719 4.19054 0.761719C3.98015 0.761719 3.80959 0.932277 3.80959 1.14267C3.80959 1.35307 3.98015 1.52362 4.19054 1.52362ZM6.0953 1.14267C6.0953 1.35307 5.92474 1.52362 5.71434 1.52362C5.50395 1.52362 5.33339 1.35307 5.33339 1.14267C5.33339 0.932277 5.50395 0.761719 5.71434 0.761719C5.92474 0.761719 6.0953 0.932277 6.0953 1.14267ZM1.90483 2.28553C2.11522 2.28553 2.28578 2.11497 2.28578 1.90458C2.28578 1.69418 2.11522 1.52363 1.90483 1.52363C1.69443 1.52363 1.52388 1.69418 1.52388 1.90458C1.52388 2.11497 1.69443 2.28553 1.90483 2.28553ZM3.80958 1.90458C3.80958 2.11497 3.63902 2.28553 3.42863 2.28553C3.21824 2.28553 3.04768 2.11497 3.04768 1.90458C3.04768 1.69418 3.21824 1.52363 3.42863 1.52363C3.63902 1.52363 3.80958 1.69418 3.80958 1.90458ZM4.95243 2.28553C5.16282 2.28553 5.33338 2.11497 5.33338 1.90458C5.33338 1.69418 5.16282 1.52363 4.95243 1.52363C4.74204 1.52363 4.57148 1.69418 4.57148 1.90458C4.57148 2.11497 4.74204 2.28553 4.95243 2.28553ZM6.0953 2.66648C6.0953 2.87687 5.92474 3.04743 5.71434 3.04743C5.50395 3.04743 5.33339 2.87687 5.33339 2.66648C5.33339 2.45608 5.50395 2.28553 5.71434 2.28553C5.92474 2.28553 6.0953 2.45608 6.0953 2.66648ZM4.19054 3.04743C4.40094 3.04743 4.5715 2.87687 4.5715 2.66648C4.5715 2.45608 4.40094 2.28553 4.19054 2.28553C3.98015 2.28553 3.80959 2.45608 3.80959 2.66648C3.80959 2.87687 3.98015 3.04743 4.19054 3.04743ZM3.04767 2.66648C3.04767 2.87687 2.87711 3.04743 2.66672 3.04743C2.45632 3.04743 2.28576 2.87687 2.28576 2.66648C2.28576 2.45608 2.45632 2.28553 2.66672 2.28553C2.87711 2.28553 3.04767 2.45608 3.04767 2.66648ZM1.14292 3.04743C1.35331 3.04743 1.52387 2.87687 1.52387 2.66648C1.52387 2.45608 1.35331 2.28553 1.14292 2.28553C0.932521 2.28553 0.761963 2.45608 0.761963 2.66648C0.761963 2.87687 0.932521 3.04743 1.14292 3.04743ZM2.28578 3.42839C2.28578 3.63878 2.11522 3.80934 1.90483 3.80934C1.69443 3.80934 1.52388 3.63878 1.52388 3.42839C1.52388 3.21799 1.69443 3.04743 1.90483 3.04743C2.11522 3.04743 2.28578 3.21799 2.28578 3.42839ZM3.42863 3.80934C3.63902 3.80934 3.80958 3.63878 3.80958 3.42839C3.80958 3.21799 3.63902 3.04743 3.42863 3.04743C3.21824 3.04743 3.04768 3.21799 3.04768 3.42839C3.04768 3.63878 3.21824 3.80934 3.42863 3.80934ZM5.33338 3.42839C5.33338 3.63878 5.16282 3.80934 4.95243 3.80934C4.74204 3.80934 4.57148 3.63878 4.57148 3.42839C4.57148 3.21799 4.74204 3.04743 4.95243 3.04743C5.16282 3.04743 5.33338 3.21799 5.33338 3.42839ZM5.71434 4.57124C5.92474 4.57124 6.0953 4.40069 6.0953 4.19029C6.0953 3.9799 5.92474 3.80934 5.71434 3.80934C5.50395 3.80934 5.33339 3.9799 5.33339 4.19029C5.33339 4.40069 5.50395 4.57124 5.71434 4.57124ZM4.5715 4.19029C4.5715 4.40069 4.40094 4.57124 4.19054 4.57124C3.98015 4.57124 3.80959 4.40069 3.80959 4.19029C3.80959 3.9799 3.98015 3.80934 4.19054 3.80934C4.40094 3.80934 4.5715 3.9799 4.5715 4.19029ZM2.66672 4.57124C2.87711 4.57124 3.04767 4.40069 3.04767 4.19029C3.04767 3.9799 2.87711 3.80934 2.66672 3.80934C2.45632 3.80934 2.28576 3.9799 2.28576 4.19029C2.28576 4.40069 2.45632 4.57124 2.66672 4.57124ZM1.52387 4.19029C1.52387 4.40069 1.35331 4.57124 1.14292 4.57124C0.932521 4.57124 0.761963 4.40069 0.761963 4.19029C0.761963 3.9799 0.932521 3.80934 1.14292 3.80934C1.35331 3.80934 1.52387 3.9799 1.52387 4.19029Z" fill="url(#paint0_linear)"/>
</g>
</g>
<defs>
<filter id="filter0_d" x="0.761963" y="0.761719" width="5.33333" height="4.80953" filterUnits="userSpaceOnUse" color-interpolation-filters="sRGB">
<feFlood flood-opacity="0" result="BackgroundImageFix"/>
<feColorMatrix in="SourceAlpha" type="matrix" values="0 0 0 0 0 0 0 0 0 0 0 0 0 0 0 0 0 0 127 0"/>
<feOffset dy="1"/>
<feColorMatrix type="matrix" values="0 0 0 0 0 0 0 0 0 0 0 0 0 0 0 0 0 0 0.06 0"/>
<feBlend mode="normal" in2="BackgroundImageFix" result="effect1_dropShadow"/>
<feBlend mode="normal" in="SourceGraphic" in2="effect1_dropShadow" result="shape"/>
</filter>
<linearGradient id="paint0_linear" x1="0.761963" y1="0.761719" x2="0.761963" y2="4.57124" gradientUnits="userSpaceOnUse">
<stop stop-color="white"/>
<stop offset="1" stop-color="#F0F0F0"/>
</linearGradient>
</defs>
</svg>
