<svg width="16" height="16" viewBox="0 0 16 16" fill="none" xmlns="http://www.w3.org/2000/svg">
<path d="M5.69227 1.33203V2.87049H3.64099V13.1269H5.69227V14.6654H6.71791V13.1269H7.74356V14.6654H8.7692V13.1269H9.53843C11.0907 13.1269 12.3589 11.8587 12.3589 10.3064C12.3589 9.2387 11.7641 8.30126 10.8846 7.82229C11.3162 7.44342 11.6221 6.9421 11.7617 6.38506C11.9014 5.82801 11.868 5.24166 11.6662 4.70402C11.4644 4.16638 11.1036 3.70295 10.6319 3.37541C10.1602 3.04787 9.59988 2.87175 9.02561 2.87049H8.7692V1.33203H7.74356V2.87049H6.71791V1.33203H5.69227ZM4.66663 3.89613H9.02561C10.023 3.89613 10.8205 4.69357 10.8205 5.69101C10.8205 6.68844 10.023 7.48588 9.02561 7.48588H4.66663V3.89613ZM4.66663 8.51152H9.53843C10.5359 8.51152 11.3333 9.30895 11.3333 10.3064C11.3333 11.3038 10.5359 12.1013 9.53843 12.1013H4.66663V8.51152Z" fill="#28323C"/>
</svg>
