<svg width="12" height="20" viewBox="0 0 12 20" fill="none" xmlns="http://www.w3.org/2000/svg">
<path d="M4.39002 16.6667C3.71215 16.666 3.06224 16.3964 2.58292 15.9171C2.10359 15.4378 1.83402 14.7879 1.83335 14.11C1.83335 13.889 1.74556 13.677 1.58928 13.5207C1.433 13.3645 1.22103 13.2767 1.00002 13.2767C0.779007 13.2767 0.567045 13.3645 0.410765 13.5207C0.254485 13.677 0.166687 13.889 0.166687 14.11V14.1667C0.166687 14.1825 0.166687 14.1967 0.166687 14.2125C0.194498 15.3144 0.651572 16.3618 1.44049 17.1316C2.22941 17.9014 3.28778 18.3326 4.39002 18.3333H5.16669V19.1667C5.16669 19.3877 5.25448 19.5996 5.41077 19.7559C5.56705 19.9122 5.77901 20 6.00002 20C6.22103 20 6.433 19.9122 6.58928 19.7559C6.74556 19.5996 6.83335 19.3877 6.83335 19.1667V18.3333H7.61002C8.61226 18.3323 9.58145 17.9748 10.3444 17.3249C11.1073 16.6749 11.6142 15.7748 11.7745 14.7855C11.9348 13.7961 11.738 12.7821 11.2194 11.9245C10.7007 11.0669 9.89398 10.4216 8.94335 10.1042L6.83335 9.4V3.33333H7.61002C8.28789 3.334 8.9378 3.60357 9.41713 4.08289C9.89645 4.56222 10.166 5.21213 10.1667 5.89C10.1667 6.11101 10.2545 6.32298 10.4108 6.47926C10.567 6.63554 10.779 6.72333 11 6.72333C11.221 6.72333 11.433 6.63554 11.5893 6.47926C11.7456 6.32298 11.8334 6.11101 11.8334 5.89V5.83333C11.8334 5.8175 11.8334 5.80333 11.8334 5.7875C11.8055 4.68561 11.3485 3.63815 10.5596 2.86838C9.77063 2.09861 8.71226 1.6674 7.61002 1.66667H6.83335V0.833333C6.83335 0.61232 6.74556 0.400358 6.58928 0.244078C6.433 0.0877974 6.22103 0 6.00002 0C5.77901 0 5.56705 0.0877974 5.41077 0.244078C5.25448 0.400358 5.16669 0.61232 5.16669 0.833333V1.66667H4.39002C3.38779 1.66774 2.4186 2.02519 1.65568 2.67515C0.892769 3.3251 0.385862 4.22519 0.225564 5.21452C0.0652674 6.20385 0.262029 7.21795 0.78068 8.07555C1.29933 8.93315 2.10607 9.57835 3.05669 9.89583L5.16669 10.6V16.6667H4.39002ZM6.83335 11.1558L8.41669 11.6842C8.99274 11.8759 9.48176 12.2664 9.79624 12.7857C10.1107 13.305 10.2301 13.9193 10.1331 14.5186C10.0361 15.1179 9.72894 15.6631 9.26666 16.0567C8.80439 16.4503 8.21714 16.6665 7.61002 16.6667H6.83335V11.1558ZM3.58335 8.31583C3.0073 8.12411 2.51828 7.73364 2.2038 7.21432C1.88932 6.695 1.76991 6.08071 1.86694 5.4814C1.96397 4.88208 2.2711 4.33685 2.73338 3.94329C3.19566 3.54972 3.7829 3.3335 4.39002 3.33333H5.16669V8.84417L3.58335 8.31583Z" fill="white"/>
</svg>
