<svg width="6" height="12" viewBox="0 0 6 12" fill="none" xmlns="http://www.w3.org/2000/svg">
<path d="M5.75376 1.58143C5.90583 1.42399 5.98997 1.21311 5.98807 0.994232C5.98617 0.77535 5.89837 0.565973 5.74359 0.411194C5.58882 0.256416 5.37944 0.168621 5.16056 0.166719C4.94168 0.164817 4.7308 0.24896 4.57336 0.401025L0.744972 4.22941C0.27547 4.69906 0.0117188 5.33594 0.0117188 6.00002C0.0117188 6.6641 0.27547 7.30098 0.744972 7.77063L4.57336 11.599C4.7308 11.7511 4.94168 11.8352 5.16056 11.8333C5.37944 11.8314 5.58882 11.7436 5.74359 11.5888C5.89837 11.4341 5.98617 11.2247 5.98807 11.0058C5.98997 10.7869 5.90583 10.5761 5.75376 10.4186L1.92287 6.59022C1.76637 6.43367 1.67846 6.22138 1.67846 6.00002C1.67846 5.77866 1.76637 5.56637 1.92287 5.40982L5.75376 1.58143Z" fill="#A5B4C3"/>
</svg>
