<svg width="10" height="14" viewBox="0 0 10 14" fill="none" xmlns="http://www.w3.org/2000/svg">
<path d="M2.69227 0.333984V1.87245H0.640991V12.1289H2.69227V13.6673H3.71791V12.1289H4.74356V13.6673H5.7692V12.1289H6.53843C8.09074 12.1289 9.35894 10.8607 9.35894 9.30834C9.35894 8.24065 8.76407 7.30322 7.88458 6.82424C8.31615 6.44537 8.62211 5.94406 8.76174 5.38701C8.90136 4.82997 8.86804 4.24361 8.66621 3.70597C8.46437 3.16833 8.10359 2.7049 7.63187 2.37737C7.16016 2.04983 6.59988 1.87371 6.02561 1.87245H5.7692V0.333984H4.74356V1.87245H3.71791V0.333984H2.69227ZM1.66663 2.89809H6.02561C7.02304 2.89809 7.82048 3.69552 7.82048 4.69296C7.82048 5.69039 7.02304 6.48783 6.02561 6.48783H1.66663V2.89809ZM1.66663 7.51347H6.53843C7.53586 7.51347 8.3333 8.31091 8.3333 9.30834C8.3333 10.3058 7.53586 11.1032 6.53843 11.1032H1.66663V7.51347Z" fill="#28323C"/>
</svg>
