<svg width="10" height="18" viewBox="0 0 10 18" fill="none" xmlns="http://www.w3.org/2000/svg">
<path d="M1.07026 15.2959C0.846488 15.5198 0.720835 15.8235 0.720947 16.14C0.721059 16.4566 0.846927 16.7602 1.07086 16.984C1.2948 17.2078 1.59845 17.3334 1.91503 17.3333C2.23161 17.3332 2.53518 17.2073 2.75896 16.9834L8.23079 11.5103C8.90199 10.8389 9.27905 9.92846 9.27905 8.9791C9.27905 8.02974 8.90199 7.11925 8.23079 6.44785L2.75418 0.974824C2.52695 0.769363 2.2294 0.659156 1.92315 0.66702C1.6169 0.674884 1.32541 0.800217 1.10902 1.01707C0.892623 1.23392 0.76791 1.52568 0.760697 1.83195C0.753483 2.13821 0.864321 2.43552 1.07026 2.66232L6.5433 8.13535C6.76703 8.35915 6.89271 8.66265 6.89271 8.9791C6.89271 9.29555 6.76703 9.59905 6.5433 9.82285L1.07026 15.2959Z" fill="#323C46"/>
</svg>
