<svg width="20" height="12" viewBox="0 0 20 12" fill="none" xmlns="http://www.w3.org/2000/svg">
<path d="M15.448 11.579L19.2705 7.75744C19.7377 7.28787 20 6.6524 20 5.98997C20 5.32754 19.7377 4.69207 19.2705 4.22251L15.448 0.400914C15.2909 0.249119 15.0804 0.165125 14.8619 0.167024C14.6434 0.168922 14.4344 0.256562 14.2799 0.411065C14.1254 0.565569 14.0377 0.774575 14.0358 0.993068C14.0339 1.21156 14.1179 1.42206 14.2697 1.57922L17.8463 5.15665H0.833317C0.612308 5.15665 0.40035 5.24445 0.244073 5.40073C0.0877957 5.557 0 5.76896 0 5.98997C0 6.21098 0.0877957 6.42294 0.244073 6.57921C0.40035 6.73549 0.612308 6.82329 0.833317 6.82329H17.8471L14.2697 10.4007C14.1901 10.4776 14.1266 10.5695 14.083 10.6712C14.0393 10.7729 14.0163 10.8822 14.0153 10.9929C14.0144 11.1035 14.0355 11.2132 14.0774 11.3157C14.1193 11.4181 14.1811 11.5111 14.2594 11.5894C14.3376 11.6676 14.4307 11.7295 14.5331 11.7714C14.6355 11.8133 14.7452 11.8344 14.8559 11.8334C14.9665 11.8324 15.0759 11.8094 15.1775 11.7658C15.2792 11.7221 15.3712 11.6586 15.448 11.579Z" fill="#A5B4C3"/>
</svg>
