<svg width="32" height="32" viewBox="0 0 32 32" fill="none" xmlns="http://www.w3.org/2000/svg">
<path fill-rule="evenodd" clip-rule="evenodd" d="M32 23.8794C32 24.0544 31.9944 24.4344 31.9837 24.7281C31.9581 25.4462 31.9013 26.3731 31.815 26.795C31.6999 27.3955 31.5051 27.978 31.2356 28.5269C30.643 29.697 29.692 30.6472 28.5212 31.2388C27.9691 31.5089 27.3833 31.704 26.7794 31.8188C26.3612 31.9031 25.4412 31.9587 24.7281 31.9844C24.4338 31.995 24.0538 32 23.8794 32H8.12313C7.94812 32 7.56812 31.9944 7.27437 31.9837C6.55625 31.9581 5.62937 31.9012 5.2075 31.8156C4.60684 31.7 4.02423 31.5049 3.475 31.2356C2.30388 30.6425 1.35303 29.6905 0.76125 28.5187C0.491059 27.9666 0.295993 27.3808 0.18125 26.7769C0.096875 26.3587 0.04125 25.4375 0.015625 24.7256C0.005 24.4319 0 24.0513 0 23.875V8.11875C0 7.94375 0.005625 7.56375 0.015625 7.27C0.044375 6.55375 0.10125 5.625 0.1875 5.205C0.302964 4.60437 0.497797 4.02176 0.766875 3.4725C1.3601 2.30293 2.311 1.35313 3.48125 0.76125C4.03339 0.491059 4.61922 0.295993 5.22312 0.18125C5.64125 0.096875 6.5625 0.04125 7.27437 0.015625C7.56812 0.005 7.94875 0 8.125 0H23.8813C24.0562 0 24.4362 0.005625 24.73 0.015625C25.4462 0.044375 26.375 0.10125 26.795 0.1875C27.3956 0.302964 27.9782 0.497797 28.5275 0.766875C29.6971 1.3601 30.6469 2.311 31.2388 3.48125C31.5089 4.03339 31.704 4.61922 31.8188 5.22312C31.9031 5.64125 31.9587 6.56125 31.9844 7.27437C31.995 7.56812 32 7.94875 32 8.12313V23.8794Z" fill="url(#paint0_linear)"/>
<path fill-rule="evenodd" clip-rule="evenodd" d="M23.7226 8.23263C22.7171 7.2197 21.5203 6.41664 20.2017 5.87009C18.8832 5.32355 17.4693 5.04441 16.042 5.04888C10.0626 5.04888 5.19072 9.91826 5.19072 15.9045C5.18902 17.8092 5.68913 19.6808 6.64072 21.3308L5.1001 26.9558L10.8551 25.4451C12.4466 26.3127 14.23 26.7676 16.0426 26.7683H16.047C22.0301 26.7683 26.9026 21.8989 26.9026 15.9126C26.9059 14.4861 26.6263 13.073 26.0802 11.7551C25.534 10.4372 24.7321 9.24061 23.7207 8.23451L23.7226 8.23263ZM16.0451 24.9408C14.4282 24.941 12.8411 24.5063 11.4501 23.682L11.1195 23.4851L7.70447 24.3783L8.61635 21.0489L8.4026 20.707C7.49596 19.2703 7.01668 17.6053 7.02072 15.9064C7.02072 10.9289 11.0689 6.87826 16.0501 6.87826C17.2354 6.87842 18.4091 7.11217 19.504 7.56615C20.599 8.02013 21.5937 8.68544 22.4314 9.52405C23.2691 10.3627 23.9333 11.3581 24.386 12.4536C24.8388 13.549 25.0713 14.7229 25.0701 15.9083C25.0657 20.8876 21.0182 24.937 16.0445 24.937L16.0451 24.9408ZM20.992 18.1783C20.722 18.0408 19.387 17.3864 19.1389 17.2958C18.8907 17.2051 18.7107 17.1589 18.5264 17.4333C18.342 17.7076 17.8251 18.3151 17.6664 18.4958C17.5076 18.6764 17.3501 18.7014 17.0807 18.5639C16.8114 18.4264 15.9339 18.1408 14.8982 17.2164C14.0932 16.4976 13.5476 15.6076 13.3889 15.3414C13.2301 15.0751 13.3707 14.922 13.5089 14.7895C13.6339 14.6689 13.7789 14.4733 13.9157 14.3145C14.0526 14.1558 14.0957 14.0445 14.1857 13.8608C14.2757 13.677 14.232 13.522 14.1639 13.3858C14.0957 13.2495 13.5514 11.9139 13.3301 11.3701C13.112 10.8383 12.8851 10.9126 12.7182 10.9033C12.5514 10.8939 12.3795 10.8951 12.2001 10.8951C12.0628 10.8988 11.9278 10.9307 11.8033 10.9889C11.6789 11.0471 11.5678 11.1303 11.477 11.2333C11.227 11.5033 10.527 12.162 10.527 13.497C10.527 14.832 11.4982 16.122 11.6345 16.3039C11.7707 16.4858 13.5476 19.2264 16.2682 20.4001C16.9145 20.6776 17.4195 20.8445 17.8132 20.9739C18.3666 21.1406 18.9509 21.1772 19.5207 21.0808C20.0426 21.0039 21.1257 20.4251 21.3526 19.792C21.5795 19.1589 21.5795 18.6151 21.512 18.5033C21.4445 18.3914 21.2676 18.3158 20.9939 18.177L20.992 18.1783Z" fill="white"/>
<defs>
<linearGradient id="paint0_linear" x1="15.9308" y1="0.026525" x2="15.9308" y2="31.8879" gradientUnits="userSpaceOnUse">
<stop stop-color="#61FD7D"/>
<stop offset="1" stop-color="#2BB826"/>
</linearGradient>
</defs>
</svg>
