<svg width="28" height="22" viewBox="0 0 28 22" fill="none" xmlns="http://www.w3.org/2000/svg">
<path d="M26.2303 5.1965C25.9178 4.82144 25.5265 4.51978 25.0842 4.31297C24.642 4.10615 24.1596 3.99924 23.6714 3.99984H5.70699L5.66032 3.60984C5.56482 2.79919 5.17519 2.05176 4.56531 1.50926C3.95542 0.966752 3.16768 0.666884 2.35143 0.666504L2.10476 0.666504C1.81008 0.666504 1.52746 0.783567 1.31909 0.991941C1.11072 1.20031 0.993652 1.48293 0.993652 1.77762C0.993652 2.0723 1.11072 2.35492 1.31909 2.56329C1.52746 2.77166 1.81008 2.88873 2.10476 2.88873H2.35143C2.62358 2.88876 2.88625 2.98868 3.08962 3.16952C3.29299 3.35036 3.42292 3.59956 3.45476 3.86984L4.98365 16.8698C5.14238 18.2218 5.79196 19.4685 6.80911 20.3732C7.82625 21.2779 9.14016 21.7776 10.5014 21.7776H22.1048C22.3994 21.7776 22.6821 21.6606 22.8904 21.4522C23.0988 21.2438 23.2159 20.9612 23.2159 20.6665C23.2159 20.3718 23.0988 20.0892 22.8904 19.8808C22.6821 19.6725 22.3994 19.5554 22.1048 19.5554H10.5014C9.81371 19.5535 9.14343 19.3389 8.58247 18.941C8.02151 18.5432 7.59733 17.9816 7.3681 17.3332H20.6125C21.9151 17.3333 23.1762 16.8757 24.1757 16.0403C25.1751 15.205 25.8492 14.0451 26.0803 12.7632L26.9525 7.92539C27.0396 7.4454 27.02 6.95213 26.8952 6.48055C26.7704 6.00896 26.5434 5.57059 26.2303 5.1965Z" fill="#5AE2D0"/>
</svg>
