<svg width="10" height="18" viewBox="0 0 10 18" fill="none" xmlns="http://www.w3.org/2000/svg">
<path d="M8.93406 2.68708C9.1513 2.46216 9.2715 2.16091 9.26879 1.84822C9.26607 1.53553 9.14065 1.23642 8.91954 1.01531C8.69842 0.794199 8.39931 0.668778 8.08663 0.666061C7.77394 0.663344 7.47269 0.783548 7.24777 1.00078L1.77865 6.46991C1.10793 7.14083 0.73114 8.05067 0.73114 8.99935C0.73114 9.94803 1.10793 10.8579 1.77865 11.5288L7.24777 16.9979C7.47269 17.2151 7.77394 17.3354 8.08663 17.3326C8.39931 17.3299 8.69842 17.2045 8.91954 16.9834C9.14065 16.7623 9.26607 16.4632 9.26879 16.1505C9.2715 15.8378 9.1513 15.5365 8.93406 15.3116L3.46136 9.84249C3.23779 9.61885 3.11219 9.31557 3.11219 8.99935C3.11219 8.68312 3.23779 8.37984 3.46136 8.1562L8.93406 2.68708Z" fill="#A5B4C3"/>
</svg>
