<svg width="12" height="15" viewBox="0 0 12 15" fill="none" xmlns="http://www.w3.org/2000/svg">
<path d="M11.648 11.4103C11.444 11.8857 11.192 12.3391 10.8959 12.7634C10.5004 13.3283 10.1755 13.7187 9.92658 13.936C9.53987 14.291 9.12444 14.4737 8.68028 14.484C8.36208 14.484 7.97758 14.3934 7.52974 14.2093C7.08042 14.0259 6.66793 13.936 6.29007 13.936C5.89452 13.936 5.47025 14.0259 5.01578 14.2093C4.56204 14.3934 4.19523 14.4899 3.91459 14.4988C3.48958 14.5172 3.06457 14.3301 2.64104 13.936C2.37071 13.7003 2.03262 13.2952 1.62676 12.7221C1.19218 12.1115 0.834934 11.4007 0.555033 10.5927C0.255243 9.71834 0.10498 8.87274 0.10498 8.05366C0.10498 7.11599 0.307541 6.30649 0.713398 5.62883C1.02037 5.09662 1.45922 4.65244 1.98769 4.33907C2.5088 4.02652 3.10367 3.85822 3.71129 3.85145C4.05012 3.85145 4.49428 3.95605 5.04451 4.16229C5.59473 4.36853 5.94829 4.47313 6.10224 4.47313C6.21862 4.47313 6.60975 4.35012 7.27562 4.10631C7.90392 3.88018 8.43426 3.78663 8.86885 3.82346C10.0474 3.91848 10.932 4.38253 11.5205 5.21929C10.4672 5.85791 9.94647 6.75138 9.95678 7.89824C9.96562 8.79172 10.2905 9.53493 10.9269 10.1249C11.2082 10.3942 11.5365 10.6096 11.8955 10.7606C11.8174 10.9867 11.7349 11.2026 11.648 11.4103ZM8.94692 0.780638C8.94692 1.48039 8.69059 2.13448 8.18161 2.73921C7.56583 3.45812 6.82188 3.87429 6.01532 3.80873C6.00477 3.72074 5.99961 3.63218 5.99985 3.54356C5.99985 2.87106 6.29154 2.15216 6.81231 1.56363C7.07158 1.26605 7.40157 1.01782 7.80154 0.820414C8.20076 0.625956 8.5779 0.518415 8.93293 0.5C8.9425 0.594283 8.94692 0.687829 8.94692 0.780638Z" fill="white"/>
</svg>
