<svg width="36" height="16" viewBox="0 0 36 16" fill="none" xmlns="http://www.w3.org/2000/svg">
<path d="M5.01595 13.7102C4.96289 13.7615 4.92056 13.8228 4.89145 13.8905C4.86233 13.9583 4.84701 14.0312 4.84636 14.105C4.84572 14.1787 4.85978 14.2519 4.88771 14.3202C4.91565 14.3885 4.9569 14.4505 5.00906 14.5026C5.06122 14.5548 5.12325 14.5961 5.19153 14.624C5.25981 14.6519 5.33296 14.666 5.40673 14.6653C5.48049 14.6647 5.55339 14.6494 5.62117 14.6203C5.68895 14.5911 5.75026 14.5488 5.8015 14.4958L10.3415 9.95576C10.8616 9.43449 11.1537 8.72821 11.1537 7.99187C11.1537 7.25553 10.8616 6.54925 10.3415 6.02798L5.8015 1.48798C5.69673 1.38678 5.55639 1.33079 5.41073 1.33205C5.26506 1.33332 5.12572 1.39175 5.02272 1.49475C4.91971 1.59775 4.86128 1.73709 4.86002 1.88276C4.85875 2.02842 4.91475 2.16876 5.01595 2.27354L9.55595 6.81354C9.8684 7.12608 10.0439 7.54993 10.0439 7.99187C10.0439 8.43381 9.8684 8.85766 9.55595 9.17021L5.01595 13.7102Z" fill="#A5B4C3"/>
<path d="M33.11 6.03682L28.5747 1.50146C28.5235 1.44846 28.4622 1.40618 28.3945 1.37709C28.3268 1.348 28.254 1.33269 28.1803 1.33205C28.1066 1.33141 28.0335 1.34545 27.9653 1.37336C27.8971 1.40126 27.8351 1.44247 27.783 1.49458C27.7309 1.54669 27.6897 1.60866 27.6618 1.67686C27.6339 1.74507 27.6199 1.81815 27.6205 1.89184C27.6211 1.96553 27.6365 2.03836 27.6655 2.10607C27.6946 2.17378 27.7369 2.23502 27.7899 2.28621L32.3253 6.82157C32.6374 7.1338 32.8127 7.55721 32.8127 7.9987C32.8127 8.44019 32.6374 8.8636 32.3253 9.17583L27.7899 13.7112C27.7369 13.7624 27.6946 13.8236 27.6655 13.8913C27.6365 13.959 27.6211 14.0319 27.6205 14.1056C27.6199 14.1792 27.6339 14.2523 27.6618 14.3205C27.6897 14.3887 27.7309 14.4507 27.783 14.5028C27.8351 14.5549 27.8971 14.5961 27.9653 14.624C28.0335 14.6519 28.1066 14.666 28.1803 14.6653C28.254 14.6647 28.3268 14.6494 28.3945 14.6203C28.4622 14.5912 28.5235 14.5489 28.5747 14.4959L33.11 9.96058C33.6302 9.4402 33.9225 8.73451 33.9225 7.9987C33.9225 7.26288 33.6302 6.5572 33.11 6.03682Z" fill="#A5B4C3"/>
<path d="M22.6324 14.6566C22.5226 14.6566 22.4154 14.624 22.3241 14.5631C22.2329 14.5021 22.1618 14.4154 22.1198 14.314C22.0778 14.2126 22.0668 14.101 22.0882 13.9934C22.1096 13.8858 22.1624 13.7869 22.24 13.7093L27.5601 8.38915C27.6642 8.28508 27.7226 8.14394 27.7226 7.99678C27.7226 7.84961 27.6642 7.70848 27.5601 7.6044L22.24 2.28429C22.1389 2.17962 22.083 2.03943 22.0842 1.89391C22.0855 1.7484 22.1439 1.6092 22.2468 1.5063C22.3497 1.4034 22.4889 1.34504 22.6344 1.34377C22.7799 1.34251 22.9201 1.39845 23.0248 1.49954L28.3449 6.81965C28.657 7.13188 28.8323 7.55529 28.8323 7.99678C28.8323 8.43827 28.657 8.86168 28.3449 9.17391L23.0248 14.494C22.9207 14.5981 22.7796 14.6566 22.6324 14.6566Z" fill="#A5B4C3"/>
</svg>
