<svg width="20" height="21" viewBox="0 0 20 21" fill="none" xmlns="http://www.w3.org/2000/svg">
<path d="M17.9838 6.57622C17.7604 6.35284 17.4574 6.22736 17.1414 6.22736C16.8254 6.22736 16.5224 6.35284 16.299 6.57622L10.8346 12.0406C10.608 12.2581 10.3062 12.3795 9.99216 12.3795C9.67814 12.3795 9.37629 12.2581 9.14974 12.0406L3.68533 6.57622C3.46061 6.35917 3.15962 6.23907 2.8472 6.24179C2.53478 6.2445 2.23593 6.36982 2.01501 6.59074C1.79409 6.81166 1.66878 7.11051 1.66606 7.42293C1.66335 7.73535 1.78345 8.03633 2.0005 8.26106L7.46371 13.7255C7.79565 14.0575 8.18974 14.3208 8.62347 14.5005C9.05721 14.6802 9.52208 14.7727 9.99156 14.7727C10.461 14.7727 10.9259 14.6802 11.3596 14.5005C11.7934 14.3208 12.1875 14.0575 12.5194 13.7255L17.9838 8.26106C18.2072 8.03761 18.3327 7.7346 18.3327 7.41864C18.3327 7.10269 18.2072 6.79967 17.9838 6.57622Z" fill="#A5B4C3"/>
</svg>
