<svg width="6" height="12" viewBox="0 0 6 12" fill="none" xmlns="http://www.w3.org/2000/svg">
<path d="M0.388944 10.9969C0.342515 11.0418 0.305482 11.0954 0.280005 11.1547C0.254529 11.214 0.241119 11.2778 0.240558 11.3423C0.239997 11.4069 0.252296 11.4709 0.276738 11.5306C0.301181 11.5904 0.337276 11.6447 0.382918 11.6903C0.42856 11.7359 0.482836 11.772 0.542577 11.7965C0.602318 11.8209 0.666329 11.8332 0.730875 11.8327C0.79542 11.8321 0.859208 11.8187 0.918515 11.7932C0.977823 11.7677 1.03146 11.7307 1.0763 11.6843L5.0488 7.71178C5.50387 7.25567 5.75943 6.63768 5.75943 5.99338C5.75943 5.34908 5.50387 4.73108 5.0488 4.27497L1.0763 0.302473C0.984623 0.213924 0.86183 0.164926 0.734373 0.166034C0.606917 0.167142 0.484994 0.218265 0.394865 0.308394C0.304736 0.398523 0.253612 0.520446 0.252505 0.647903C0.251397 0.77536 0.300395 0.898152 0.388944 0.989834L4.36144 4.96233C4.63484 5.23581 4.78842 5.60668 4.78842 5.99338C4.78842 6.38007 4.63484 6.75094 4.36144 7.02442L0.388944 10.9969Z" fill="#F3F6FB"/>
</svg>
