<svg width="20" height="24" viewBox="0 0 20 24" fill="none" xmlns="http://www.w3.org/2000/svg">
<path d="M1.76433 23.7602C2.25576 23.9957 2.79908 24.0596 3.32342 23.9437C3.84775 23.8278 4.32876 23.5374 4.70368 23.1105L10.0001 17.2052L15.2965 23.1105C15.5435 23.3914 15.8377 23.6145 16.1621 23.7671C16.4865 23.9197 16.8347 23.9986 17.1865 23.9993C17.5481 23.9982 17.9059 23.9169 18.2395 23.7602C18.7349 23.5354 19.1584 23.1484 19.4546 22.6497C19.7508 22.1509 19.906 21.5636 19.8999 20.9645V5.04463C19.8985 3.7072 19.4239 2.42501 18.5804 1.47931C17.7368 0.533603 16.593 0.00160203 15.4 0L4.60018 0C3.40716 0.00160203 2.26342 0.533603 1.41983 1.47931C0.57624 2.42501 0.101683 3.7072 0.100254 5.04463V20.9645C0.0944466 21.5641 0.250171 22.1517 0.547064 22.6505C0.843958 23.1493 1.2682 23.5361 1.76433 23.7602Z" fill="#C3BEFF"/>
</svg>
