<svg width="12" height="12" viewBox="0 0 12 12" fill="none" xmlns="http://www.w3.org/2000/svg">
<path d="M8.26155 7.23388L8.42109 7.39353C8.57529 7.54837 8.78091 7.63366 8.99983 7.63366C9.21874 7.63366 9.42436 7.54837 9.57831 7.39381L11.7599 5.21082C11.9146 5.05652 11.9998 4.85077 11.9998 4.6317C11.9998 4.41263 11.9146 4.20689 11.7601 4.05284L11.6003 3.89293C11.4938 3.78634 11.3212 3.78634 11.2147 3.89293L8.26155 6.848C8.155 6.95457 8.155 7.12726 8.26155 7.23388Z" fill="#5AE2D0"/>
<path d="M4.76327 3.73282C4.81653 3.78613 4.88633 3.81277 4.95611 3.81277C5.02588 3.81277 5.09566 3.78613 5.14894 3.73282L8.10207 0.777746C8.20861 0.671152 8.20861 0.498439 8.10207 0.391845L7.94253 0.232198C7.6341 -0.0774844 7.09318 -0.0772287 6.78531 0.231942L4.60373 2.4149C4.44899 2.56921 4.36377 2.77496 4.36377 2.99402C4.36377 3.21309 4.44899 3.41884 4.60347 3.57289L4.76327 3.73282Z" fill="#5AE2D0"/>
<path d="M7.49041 6.46168C7.54367 6.51499 7.61347 6.54164 7.68324 6.54164C7.75302 6.54164 7.82279 6.51499 7.87608 6.46168L10.8292 3.50661C10.9357 3.40002 10.9357 3.22731 10.8292 3.12071L8.87324 1.16344C8.7667 1.05685 8.59411 1.05685 8.48759 1.16344L5.53447 4.11851C5.42792 4.22511 5.42792 4.39782 5.53447 4.50441L5.92661 4.89681C3.81465 6.72805 1.1002 9.35524 0.319602 10.1363C0.113446 10.3426 0 10.6166 0 10.9081C0 11.5102 0.489247 11.9998 1.09092 11.9998C1.38229 11.9998 1.65608 11.8863 1.86223 11.68C2.80189 10.7397 5.36342 8.08526 7.10481 6.07581L7.49041 6.46168Z" fill="#5AE2D0"/>
</svg>
