<svg width="24" height="24" viewBox="0 0 24 24" fill="none" xmlns="http://www.w3.org/2000/svg">
<path d="M10.39 18.6667C9.71215 18.666 9.06224 18.3964 8.58292 17.9171C8.10359 17.4378 7.83402 16.7879 7.83335 16.11C7.83335 15.889 7.74556 15.677 7.58928 15.5207C7.433 15.3645 7.22103 15.2767 7.00002 15.2767C6.77901 15.2767 6.56705 15.3645 6.41076 15.5207C6.25448 15.677 6.16669 15.889 6.16669 16.11V16.1667C6.16669 16.1825 6.16669 16.1967 6.16669 16.2125C6.1945 17.3144 6.65157 18.3618 7.44049 19.1316C8.22941 19.9014 9.28778 20.3326 10.39 20.3333H11.1667V21.1667C11.1667 21.3877 11.2545 21.5996 11.4108 21.7559C11.567 21.9122 11.779 22 12 22C12.221 22 12.433 21.9122 12.5893 21.7559C12.7456 21.5996 12.8334 21.3877 12.8334 21.1667V20.3333H13.61C14.6123 20.3323 15.5814 19.9748 16.3444 19.3249C17.1073 18.6749 17.6142 17.7748 17.7745 16.7855C17.9348 15.7961 17.738 14.7821 17.2194 13.9245C16.7007 13.0669 15.894 12.4216 14.9434 12.1042L12.8334 11.4V5.33333H13.61C14.2879 5.334 14.9378 5.60357 15.4171 6.08289C15.8965 6.56222 16.166 7.21213 16.1667 7.89C16.1667 8.11101 16.2545 8.32298 16.4108 8.47926C16.567 8.63554 16.779 8.72333 17 8.72333C17.221 8.72333 17.433 8.63554 17.5893 8.47926C17.7456 8.32298 17.8334 8.11101 17.8334 7.89V7.83333C17.8334 7.8175 17.8334 7.80333 17.8334 7.7875C17.8055 6.68561 17.3485 5.63815 16.5596 4.86838C15.7706 4.09861 14.7123 3.6674 13.61 3.66667H12.8334V2.83333C12.8334 2.61232 12.7456 2.40036 12.5893 2.24408C12.433 2.0878 12.221 2 12 2C11.779 2 11.567 2.0878 11.4108 2.24408C11.2545 2.40036 11.1667 2.61232 11.1667 2.83333V3.66667H10.39C9.38779 3.66774 8.4186 4.02519 7.65568 4.67515C6.89277 5.3251 6.38586 6.22519 6.22556 7.21452C6.06527 8.20385 6.26203 9.21795 6.78068 10.0755C7.29933 10.9331 8.10607 11.5784 9.05669 11.8958L11.1667 12.6V18.6667H10.39ZM12.8334 13.1558L14.4167 13.6842C14.9927 13.8759 15.4818 14.2664 15.7962 14.7857C16.1107 15.305 16.2301 15.9193 16.1331 16.5186C16.0361 17.1179 15.7289 17.6631 15.2667 18.0567C14.8044 18.4503 14.2171 18.6665 13.61 18.6667H12.8334V13.1558ZM9.58335 10.3158C9.0073 10.1241 8.51828 9.73364 8.2038 9.21432C7.88932 8.695 7.76991 8.08071 7.86694 7.4814C7.96397 6.88208 8.2711 6.33685 8.73338 5.94329C9.19566 5.54972 9.7829 5.3335 10.39 5.33333H11.1667V10.8442L9.58335 10.3158Z" fill="white"/>
</svg>
