<svg width="9" height="16" viewBox="0 0 9 16" fill="none" xmlns="http://www.w3.org/2000/svg">
<path d="M3.2925 13C2.7841 12.9995 2.29666 12.7973 1.93717 12.4378C1.57768 12.0783 1.3755 11.5909 1.375 11.0825C1.375 10.9167 1.30915 10.7578 1.19194 10.6406C1.07473 10.5233 0.91576 10.4575 0.75 10.4575C0.58424 10.4575 0.425269 10.5233 0.308058 10.6406C0.190848 10.7578 0.125 10.9167 0.125 11.0825V11.125C0.125 11.1369 0.125 11.1475 0.125 11.1594C0.145858 11.9858 0.488664 12.7714 1.08035 13.3487C1.67204 13.926 2.46582 14.2494 3.2925 14.25H3.875V14.875C3.875 15.0408 3.94085 15.1997 4.05806 15.3169C4.17527 15.4342 4.33424 15.5 4.5 15.5C4.66576 15.5 4.82473 15.4342 4.94194 15.3169C5.05915 15.1997 5.125 15.0408 5.125 14.875V14.25H5.7075C6.45918 14.2492 7.18607 13.9811 7.75825 13.4936C8.33044 13.0062 8.71062 12.3311 8.83084 11.5891C8.95106 10.8471 8.80349 10.0865 8.41451 9.44334C8.02552 8.80014 7.42047 8.31624 6.7075 8.07812L5.125 7.55V3H5.7075C6.2159 3.0005 6.70334 3.20268 7.06283 3.56217C7.42232 3.92166 7.6245 4.4091 7.625 4.9175C7.625 5.08326 7.69085 5.24223 7.80806 5.35944C7.92527 5.47665 8.08424 5.5425 8.25 5.5425C8.41576 5.5425 8.57473 5.47665 8.69194 5.35944C8.80915 5.24223 8.875 5.08326 8.875 4.9175V4.875C8.875 4.86312 8.875 4.8525 8.875 4.84063C8.85414 4.01421 8.51134 3.22861 7.91965 2.65128C7.32796 2.07396 6.53418 1.75055 5.7075 1.75H5.125V1.125C5.125 0.95924 5.05915 0.800269 4.94194 0.683058C4.82473 0.565848 4.66576 0.5 4.5 0.5C4.33424 0.5 4.17527 0.565848 4.05806 0.683058C3.94085 0.800269 3.875 0.95924 3.875 1.125V1.75H3.2925C2.54082 1.7508 1.81393 2.0189 1.24175 2.50636C0.669562 2.99383 0.289381 3.66889 0.169158 4.41089C0.0489353 5.15289 0.196507 5.91346 0.585495 6.55666C0.974483 7.19986 1.57953 7.68376 2.2925 7.92188L3.875 8.45V13H3.2925ZM5.125 8.86687L6.3125 9.26312C6.74454 9.40692 7.11131 9.69977 7.34717 10.0893C7.58303 10.4788 7.67258 10.9395 7.59981 11.389C7.52704 11.8384 7.29669 12.2474 6.94998 12.5425C6.60327 12.8377 6.16284 12.9999 5.7075 13H5.125V8.86687ZM2.6875 6.73688C2.25546 6.59308 1.88869 6.30023 1.65283 5.91074C1.41697 5.52125 1.32742 5.06053 1.40019 4.61105C1.47296 4.16156 1.70331 3.75264 2.05002 3.45746C2.39673 3.16229 2.83716 3.00013 3.2925 3H3.875V7.13312L2.6875 6.73688Z" fill="#F9F9F9"/>
</svg>
