<svg width="40" height="40" viewBox="0 0 40 40" fill="none" xmlns="http://www.w3.org/2000/svg">
<path d="M27.5393 24.1102L28.0711 24.6424C28.5851 25.1585 29.2705 25.4428 30.0002 25.4428C30.7299 25.4428 31.4153 25.1585 31.9285 24.6433L39.2002 17.3669C39.716 16.8525 40.0001 16.1667 40.0001 15.4365C40.0001 14.7063 39.716 14.0205 39.2011 13.507L38.6684 12.974C38.3133 12.6187 37.738 12.6187 37.383 12.974L27.5393 22.824C27.1842 23.1792 27.1842 23.7548 27.5393 24.1102Z" fill="#73879B"/>
<path d="M15.8766 12.4424C16.0541 12.6201 16.2868 12.7089 16.5194 12.7089C16.7519 12.7089 16.9845 12.6201 17.1621 12.4424L27.0058 2.59243C27.3609 2.23713 27.3609 1.66143 27.0058 1.30612L26.474 0.773975C25.4459 -0.258276 23.6429 -0.257424 22.6166 0.773123L15.3448 8.0495C14.829 8.56384 14.5449 9.24965 14.5449 9.97986C14.5449 10.7101 14.829 11.3959 15.3439 11.9094L15.8766 12.4424Z" fill="#73879B"/>
<path d="M24.9678 21.5401C25.1453 21.7177 25.378 21.8066 25.6106 21.8066C25.8431 21.8066 26.0757 21.7177 26.2533 21.5401L36.097 11.69C36.4521 11.3347 36.4521 10.759 36.097 10.4037L29.5772 3.87964C29.222 3.52433 28.6468 3.52433 28.2917 3.87964L18.448 13.7297C18.0929 14.085 18.0929 14.6607 18.448 15.016L19.7552 16.3239C12.7154 22.4279 3.6673 31.185 1.06533 33.7887C0.37815 34.4763 0 35.3894 0 36.3613C0 38.3681 1.63081 40 3.63636 40C4.6076 40 5.52021 39.6216 6.20739 38.934C9.33955 35.7997 17.8779 26.9519 23.6825 20.2538L24.9678 21.5401Z" fill="#73879B"/>
</svg>
