<svg width="32" height="32" viewBox="0 0 32 32" fill="none" xmlns="http://www.w3.org/2000/svg">
<path d="M28.2303 7.1965C27.9178 6.82144 27.5265 6.51978 27.0842 6.31297C26.642 6.10615 26.1596 5.99924 25.6714 5.99984H7.70699L7.66032 5.60984C7.56482 4.79919 7.17519 4.05176 6.56531 3.50926C5.95542 2.96675 5.16768 2.66688 4.35143 2.6665L4.10476 2.6665C3.81008 2.6665 3.52746 2.78357 3.31909 2.99194C3.11072 3.20031 2.99365 3.48293 2.99365 3.77762C2.99365 4.0723 3.11072 4.35492 3.31909 4.56329C3.52746 4.77166 3.81008 4.88873 4.10476 4.88873H4.35143C4.62358 4.88876 4.88625 4.98868 5.08962 5.16952C5.29299 5.35036 5.42292 5.59956 5.45476 5.86984L6.98365 18.8698C7.14238 20.2218 7.79196 21.4685 8.80911 22.3732C9.82625 23.2779 11.1402 23.7776 12.5014 23.7776H24.1048C24.3994 23.7776 24.6821 23.6606 24.8904 23.4522C25.0988 23.2438 25.2159 22.9612 25.2159 22.6665C25.2159 22.3718 25.0988 22.0892 24.8904 21.8808C24.6821 21.6725 24.3994 21.5554 24.1048 21.5554H12.5014C11.8137 21.5535 11.1434 21.3389 10.5825 20.941C10.0215 20.5432 9.59733 19.9816 9.3681 19.3332H22.6125C23.9151 19.3333 25.1762 18.8757 26.1757 18.0403C27.1751 17.205 27.8492 16.0451 28.0803 14.7632L28.9525 9.92539C29.0396 9.4454 29.02 8.95213 28.8952 8.48055C28.7704 8.00896 28.5434 7.57059 28.2303 7.1965Z" fill="#5AE2D0"/>
<path d="M10.7715 29.3331C11.9988 29.3331 12.9938 28.3382 12.9938 27.1109C12.9938 25.8836 11.9988 24.8887 10.7715 24.8887C9.54424 24.8887 8.54932 25.8836 8.54932 27.1109C8.54932 28.3382 9.54424 29.3331 10.7715 29.3331Z" fill="#5AE2D0"/>
<path d="M21.8824 29.3331C23.1097 29.3331 24.1046 28.3382 24.1046 27.1109C24.1046 25.8836 23.1097 24.8887 21.8824 24.8887C20.6551 24.8887 19.6602 25.8836 19.6602 27.1109C19.6602 28.3382 20.6551 29.3331 21.8824 29.3331Z" fill="#5AE2D0"/>
</svg>
