<svg width="18" height="18" viewBox="0 0 18 18" fill="none" xmlns="http://www.w3.org/2000/svg">
<path d="M17.0942 2.13317V15.8665C17.0942 16.2665 16.9497 16.6109 16.6608 16.8998C16.3719 17.1887 16.0275 17.3332 15.6275 17.3332H1.89416C1.49416 17.3332 1.14971 17.1887 0.860824 16.8998C0.571935 16.6109 0.42749 16.2665 0.42749 15.8665V2.13317C0.42749 1.73317 0.571935 1.38873 0.860824 1.09984C1.14971 0.810948 1.49416 0.666504 1.89416 0.666504H15.6275C16.0275 0.666504 16.3719 0.810948 16.6608 1.09984C16.9497 1.38873 17.0942 1.73317 17.0942 2.13317ZM13.9775 4.79983L14.3108 2.83317C13.833 2.6665 13.0386 2.58317 11.9275 2.58317C11.0497 2.58317 10.3664 2.90539 9.87749 3.54984C9.5886 3.92761 9.44416 4.58872 9.44416 5.53317V6.83317H8.12749V8.74983H9.44416V15.4165H11.9275V8.74983H13.8942L14.0442 6.83317H11.9275V5.33317C11.9275 4.8665 12.2553 4.63317 12.9108 4.63317C13.2553 4.63317 13.6108 4.68872 13.9775 4.79983Z" fill="#D7E1EB"/>
</svg>
