<svg width="16" height="16" viewBox="0 0 16 16" fill="none" xmlns="http://www.w3.org/2000/svg">
<path d="M1.33352 7.99211C1.33152 8.49542 1.4768 8.98832 1.75145 9.41008C2.02611 9.83185 2.41815 10.1641 2.87927 10.3658C3.34039 10.5675 3.85045 10.6299 4.3466 10.5453C4.84276 10.4608 5.30334 10.2329 5.6716 9.88982L9.51583 11.6255C9.48913 11.7692 9.47446 11.9149 9.47199 12.0611C9.47003 12.6826 9.69102 13.2843 10.0949 13.7568C10.4987 14.2293 11.0586 14.5414 11.6729 14.6363C12.2871 14.7311 12.9151 14.6026 13.4427 14.274C13.9703 13.9453 14.3625 13.4384 14.5482 12.8452C14.7339 12.252 14.7007 11.6119 14.4546 11.0411C14.2086 10.4703 13.766 10.0067 13.2073 9.73438C12.6485 9.46209 12.0106 9.39919 11.4094 9.55712C10.8083 9.71504 10.2837 10.0833 9.93088 10.5951L6.31914 8.96427C6.57567 8.34482 6.57667 7.64902 6.32192 7.02884L9.92866 5.38971C10.2804 5.8984 10.8028 6.26419 11.4011 6.42071C11.9994 6.57723 12.634 6.51413 13.1898 6.24284C13.7456 5.97156 14.1857 5.51006 14.4303 4.94207C14.675 4.37407 14.708 3.7372 14.5233 3.14697C14.3386 2.55674 13.9485 2.05225 13.4237 1.72501C12.8989 1.39777 12.2743 1.26946 11.663 1.36335C11.0517 1.45724 10.4943 1.76711 10.0919 2.23675C9.68954 2.7064 9.46881 3.30471 9.46977 3.92315C9.47213 4.06953 9.48698 4.21544 9.51416 4.35929L5.67992 6.10163C5.31235 5.75648 4.8517 5.52659 4.35491 5.44037C3.85811 5.35415 3.34694 5.41538 2.88457 5.61649C2.42219 5.81761 2.02887 6.14979 1.75322 6.57198C1.47756 6.99418 1.33165 7.4879 1.33352 7.99211Z" fill="#73879B"/>
</svg>
