<svg width="24" height="24" viewBox="0 0 24 24" fill="none" xmlns="http://www.w3.org/2000/svg">
<path d="M10.3333 7V2H13.6667V7C13.6667 7.44203 13.4911 7.86595 13.1785 8.17851C12.8659 8.49107 12.442 8.66667 12 8.66667C11.558 8.66667 11.134 8.49107 10.8215 8.17851C10.5089 7.86595 10.3333 7.44203 10.3333 7ZM15.3333 6.16667H22C21.9987 5.062 21.5593 4.00296 20.7782 3.22185C19.997 2.44073 18.938 2.00132 17.8333 2L15.3333 2V6.16667ZM8.66667 2H6.16667C5.062 2.00132 4.00296 2.44073 3.22185 3.22185C2.44073 4.00296 2.00132 5.062 2 6.16667H8.66667V2ZM22 7.83333V17.8333C21.9987 18.938 21.5593 19.997 20.7782 20.7782C19.997 21.5593 18.938 21.9987 17.8333 22H6.16667C5.062 21.9987 4.00296 21.5593 3.22185 20.7782C2.44073 19.997 2.00132 18.938 2 17.8333L2 7.83333H8.785C8.96689 8.54799 9.38171 9.18166 9.96393 9.63426C10.5461 10.0868 11.2626 10.3326 12 10.3326C12.7374 10.3326 13.4539 10.0868 14.0361 9.63426C14.6183 9.18166 15.0331 8.54799 15.215 7.83333H22ZM18.6667 17.8333C18.6667 17.6123 18.5789 17.4004 18.4226 17.2441C18.2663 17.0878 18.0543 17 17.8333 17H15.3333C15.1123 17 14.9004 17.0878 14.7441 17.2441C14.5878 17.4004 14.5 17.6123 14.5 17.8333C14.5 18.0543 14.5878 18.2663 14.7441 18.4226C14.9004 18.5789 15.1123 18.6667 15.3333 18.6667H17.8333C18.0543 18.6667 18.2663 18.5789 18.4226 18.4226C18.5789 18.2663 18.6667 18.0543 18.6667 17.8333Z" fill="#A5B4C3"/>
</svg>
