<svg width="14" height="14" viewBox="0 0 14 14" fill="none" xmlns="http://www.w3.org/2000/svg">
<path d="M1.80799 7.28878L3.5395 8.55337L2.88192 10.5898C2.77565 10.9057 2.7743 11.2474 2.87808 11.5641C2.98185 11.8808 3.18519 12.1554 3.45779 12.3471C3.72571 12.545 4.05039 12.651 4.38344 12.6493C4.71649 12.6476 5.04009 12.5384 5.30603 12.3379L6.99911 11.0918L8.69268 12.3364C8.96012 12.5331 9.28304 12.64 9.61503 12.6416C9.94702 12.6432 10.271 12.5395 10.5403 12.3454C10.8097 12.1513 11.0105 11.8768 11.114 11.5614C11.2175 11.2459 11.2183 10.9058 11.1163 10.5898L10.4587 8.55337L12.1902 7.28878C12.4573 7.09351 12.6559 6.81882 12.7575 6.50396C12.8592 6.1891 12.8587 5.85017 12.7562 5.53558C12.6537 5.22099 12.4544 4.94684 12.1868 4.75227C11.9192 4.55771 11.597 4.4527 11.2661 4.45223H9.13917L8.49375 2.44056C8.39225 2.12391 8.19281 1.84768 7.92419 1.65169C7.65556 1.4557 7.33163 1.3501 6.99911 1.3501C6.66659 1.3501 6.34266 1.4557 6.07403 1.65169C5.80541 1.84768 5.60596 2.12391 5.50447 2.44056L4.85904 4.45223H2.73406C2.40319 4.4527 2.08094 4.55771 1.81333 4.75227C1.54572 4.94684 1.34644 5.22099 1.24395 5.53558C1.14146 5.85017 1.14101 6.1891 1.24265 6.50396C1.3443 6.81882 1.54285 7.09351 1.80994 7.28878H1.80799Z" fill="#D7E1EB"/>
</svg>
