<svg width="24" height="24" viewBox="0 0 24 24" fill="none" xmlns="http://www.w3.org/2000/svg">
<path d="M21.1667 20.3333H4.5C4.27899 20.3333 4.06702 20.2455 3.91074 20.0893C3.75446 19.933 3.66667 19.721 3.66667 19.5V2.83333C3.66667 2.61232 3.57887 2.40036 3.42259 2.24408C3.26631 2.0878 3.05435 2 2.83333 2C2.61232 2 2.40036 2.0878 2.24408 2.24408C2.0878 2.40036 2 2.61232 2 2.83333V19.5C2 20.163 2.26339 20.7989 2.73223 21.2678C3.20107 21.7366 3.83696 22 4.5 22H21.1667C21.3877 22 21.5996 21.9122 21.7559 21.7559C21.9122 21.5996 22 21.3877 22 21.1667C22 20.9457 21.9122 20.7337 21.7559 20.5774C21.5996 20.4211 21.3877 20.3333 21.1667 20.3333Z" fill="#A5B4C3"/>
<path d="M14.5 18.668C14.721 18.668 14.9329 18.5802 15.0892 18.4239C15.2455 18.2676 15.3333 18.0556 15.3333 17.8346V12.0013C15.3333 11.7803 15.2455 11.5683 15.0892 11.412C14.9329 11.2558 14.721 11.168 14.5 11.168C14.2789 11.168 14.067 11.2558 13.9107 11.412C13.7544 11.5683 13.6666 11.7803 13.6666 12.0013V17.8346C13.6666 18.0556 13.7544 18.2676 13.9107 18.4239C14.067 18.5802 14.2789 18.668 14.5 18.668Z" fill="#A5B4C3"/>
<path d="M7.83333 18.668C8.05435 18.668 8.26631 18.5802 8.42259 18.4239C8.57887 18.2676 8.66667 18.0556 8.66667 17.8346V12.0013C8.66667 11.7803 8.57887 11.5683 8.42259 11.412C8.26631 11.2558 8.05435 11.168 7.83333 11.168C7.61232 11.168 7.40036 11.2558 7.24408 11.412C7.0878 11.5683 7 11.7803 7 12.0013V17.8346C7 18.0556 7.0878 18.2676 7.24408 18.4239C7.40036 18.5802 7.61232 18.668 7.83333 18.668Z" fill="#A5B4C3"/>
<path d="M17.8333 18.6667C18.0543 18.6667 18.2663 18.5789 18.4226 18.4226C18.5789 18.2663 18.6667 18.0543 18.6667 17.8333V7.83333C18.6667 7.61232 18.5789 7.40036 18.4226 7.24408C18.2663 7.0878 18.0543 7 17.8333 7C17.6123 7 17.4004 7.0878 17.2441 7.24408C17.0878 7.40036 17 7.61232 17 7.83333V17.8333C17 18.0543 17.0878 18.2663 17.2441 18.4226C17.4004 18.5789 17.6123 18.6667 17.8333 18.6667Z" fill="#A5B4C3"/>
<path d="M11.1667 18.6667C11.3877 18.6667 11.5997 18.5789 11.756 18.4226C11.9122 18.2663 12 18.0543 12 17.8333V7.83333C12 7.61232 11.9122 7.40036 11.756 7.24408C11.5997 7.0878 11.3877 7 11.1667 7C10.9457 7 10.7337 7.0878 10.5775 7.24408C10.4212 7.40036 10.3334 7.61232 10.3334 7.83333V17.8333C10.3334 18.0543 10.4212 18.2663 10.5775 18.4226C10.7337 18.5789 10.9457 18.6667 11.1667 18.6667Z" fill="#A5B4C3"/>
</svg>
