<svg width="32" height="32" viewBox="0 0 32 32" fill="none" xmlns="http://www.w3.org/2000/svg">
<g clip-path="url(#clip0)">
<path d="M27.9033 7.19797C27.5908 6.8229 27.1995 6.52125 26.7572 6.31443C26.315 6.10761 25.8326 6.00071 25.3444 6.0013H7.37996L7.33329 5.6113C7.23779 4.80066 6.84816 4.05323 6.23828 3.51072C5.6284 2.96822 4.84066 2.66835 4.0244 2.66797L3.77774 2.66797C3.48305 2.66797 3.20044 2.78503 2.99206 2.99341C2.78369 3.20178 2.66663 3.48439 2.66663 3.77908C2.66663 4.07376 2.78369 4.35638 2.99206 4.56475C3.20044 4.77313 3.48305 4.89019 3.77774 4.89019H4.0244C4.29655 4.89023 4.55922 4.99014 4.76259 5.17099C4.96597 5.35183 5.0959 5.60102 5.12774 5.8713L6.65663 18.8713C6.81535 20.2233 7.46493 21.4699 8.48208 22.3746C9.49922 23.2793 10.8131 23.7791 12.1744 23.7791H23.7777C24.0724 23.7791 24.355 23.662 24.5634 23.4536C24.7718 23.2453 24.8888 22.9627 24.8888 22.668C24.8888 22.3733 24.7718 22.0907 24.5634 21.8823C24.355 21.6739 24.0724 21.5569 23.7777 21.5569H12.1744C11.4867 21.5549 10.8164 21.3403 10.2554 20.9425C9.69448 20.5446 9.27031 19.983 9.04107 19.3346H22.2855C23.5881 19.3347 24.8492 18.8771 25.8487 18.0418C26.8481 17.2065 27.5222 16.0465 27.7533 14.7646L28.6255 9.92686C28.7126 9.44687 28.693 8.9536 28.5682 8.48201C28.4434 8.01042 28.2164 7.57205 27.9033 7.19797V7.19797Z" fill="#73C8EB"/>
<path d="M10.4444 29.3351C11.6717 29.3351 12.6666 28.3402 12.6666 27.1129C12.6666 25.8855 11.6717 24.8906 10.4444 24.8906C9.21709 24.8906 8.22217 25.8855 8.22217 27.1129C8.22217 28.3402 9.21709 29.3351 10.4444 29.3351Z" fill="#73C8EB"/>
<path d="M21.5555 29.3351C22.7828 29.3351 23.7777 28.3402 23.7777 27.1129C23.7777 25.8855 22.7828 24.8906 21.5555 24.8906C20.3282 24.8906 19.3333 25.8855 19.3333 27.1129C19.3333 28.3402 20.3282 29.3351 21.5555 29.3351Z" fill="#73C8EB"/>
</g>
<defs>
<clipPath id="clip0">
<rect width="26.6667" height="26.6667" fill="white" transform="translate(2.66663 2.66797)"/>
</clipPath>
</defs>
</svg>
