<svg width="24" height="24" viewBox="0 0 24 24" fill="none" xmlns="http://www.w3.org/2000/svg">
<path d="M21.1667 11.1667H12.8333V2.83333C12.8333 2.61232 12.7455 2.40036 12.5893 2.24408C12.433 2.0878 12.221 2 12 2C11.779 2 11.567 2.0878 11.4107 2.24408C11.2545 2.40036 11.1667 2.61232 11.1667 2.83333V11.1667H2.83333C2.61232 11.1667 2.40036 11.2545 2.24408 11.4107C2.0878 11.567 2 11.779 2 12C2 12.221 2.0878 12.433 2.24408 12.5893C2.40036 12.7455 2.61232 12.8333 2.83333 12.8333H11.1667V21.1667C11.1667 21.3877 11.2545 21.5996 11.4107 21.7559C11.567 21.9122 11.779 22 12 22C12.221 22 12.433 21.9122 12.5893 21.7559C12.7455 21.5996 12.8333 21.3877 12.8333 21.1667V12.8333H21.1667C21.3877 12.8333 21.5996 12.7455 21.7559 12.5893C21.9122 12.433 22 12.221 22 12C22 11.779 21.9122 11.567 21.7559 11.4107C21.5996 11.2545 21.3877 11.1667 21.1667 11.1667Z" fill="white"/>
</svg>
