<svg width="24" height="24" viewBox="0 0 24 24" fill="none" xmlns="http://www.w3.org/2000/svg">
<path d="M2.24382 9.12727C2.06427 8.79424 1.98109 8.41776 2.00361 8.04008C2.02613 7.6624 2.15346 7.29848 2.37131 6.98914C2.72732 6.46678 3.2041 6.03803 3.76118 5.73925L10.0114 2.48622C10.6258 2.16678 11.308 2 12.0004 2C12.6928 2 13.3751 2.16678 13.9894 2.48622L20.2388 5.74175C20.7959 6.04053 21.2727 6.46928 21.6287 6.99164C21.8465 7.30097 21.9739 7.6649 21.9964 8.04258C22.0189 8.42026 21.9357 8.79674 21.7562 9.12977C21.5629 9.49543 21.273 9.80105 20.918 10.0133C20.563 10.2256 20.1566 10.3365 19.743 10.3338H4.2578C3.8438 10.3364 3.43705 10.2253 3.0819 10.0125C2.72675 9.79973 2.43685 9.49352 2.24382 9.12727ZM21.1662 20.3329C21.1662 19.8909 20.9907 19.467 20.6781 19.1545C20.3656 18.842 19.9417 18.6664 19.4997 18.6664V12.0003H17.8332V18.6664H15.3334V12.0003H13.6669V18.6664H10.3339V12.0003H8.66739V18.6664H6.16762V12.0003H4.50111V18.6664C4.05912 18.6664 3.63524 18.842 3.32271 19.1545C3.01018 19.467 2.8346 19.8909 2.8346 20.3329C2.61361 20.3329 2.40166 20.4207 2.2454 20.577C2.08913 20.7332 2.00134 20.9452 2.00134 21.1662C2.00134 21.3872 2.08913 21.5991 2.2454 21.7554C2.40166 21.9116 2.61361 21.9994 2.8346 21.9994H21.1662C21.3872 21.9994 21.5992 21.9116 21.7554 21.7554C21.9117 21.5991 21.9995 21.3872 21.9995 21.1662C21.9995 20.9452 21.9117 20.7332 21.7554 20.577C21.5992 20.4207 21.3872 20.3329 21.1662 20.3329Z" fill="#73C8EB"/>
</svg>
