<svg width="32" height="32" viewBox="0 0 32 32" fill="none" xmlns="http://www.w3.org/2000/svg">
<path d="M17.5712 15.9918L29.008 4.55492C29.2104 4.34536 29.3224 4.06469 29.3199 3.77335C29.3174 3.48202 29.2005 3.20333 28.9945 2.99732C28.7885 2.79131 28.5098 2.67445 28.2185 2.67192C27.9271 2.66939 27.6465 2.78138 27.4369 2.98378L16 14.4207L4.56315 2.98378C4.35359 2.78138 4.07291 2.66939 3.78158 2.67192C3.49024 2.67445 3.21156 2.79131 3.00555 2.99732C2.79953 3.20333 2.68268 3.48202 2.68015 3.77335C2.67761 4.06469 2.78961 4.34536 2.99201 4.55492L14.4289 15.9918L2.99201 27.4287C2.78371 27.637 2.66669 27.9196 2.66669 28.2142C2.66669 28.5089 2.78371 28.7914 2.99201 28.9998C3.20038 29.2081 3.48295 29.3251 3.77758 29.3251C4.07221 29.3251 4.35478 29.2081 4.56315 28.9998L16 17.5629L27.4369 28.9998C27.6453 29.2081 27.9278 29.3251 28.2225 29.3251C28.5171 29.3251 28.7997 29.2081 29.008 28.9998C29.2163 28.7914 29.3334 28.5089 29.3334 28.2142C29.3334 27.9196 29.2163 27.637 29.008 27.4287L17.5712 15.9918Z" fill="#A5B4C3"/>
</svg>
