<svg width="18" height="18" viewBox="0 0 18 18" fill="none" xmlns="http://www.w3.org/2000/svg">
<path d="M15.6667 8.16667C15.4457 8.16667 15.2337 8.25446 15.0774 8.41074C14.9211 8.56702 14.8333 8.77899 14.8333 9V14C14.8333 14.221 14.7455 14.433 14.5893 14.5893C14.433 14.7455 14.221 14.8333 14 14.8333H4C3.77899 14.8333 3.56702 14.7455 3.41074 14.5893C3.25446 14.433 3.16667 14.221 3.16667 14V4C3.16667 3.77899 3.25446 3.56702 3.41074 3.41074C3.56702 3.25446 3.77899 3.16667 4 3.16667H9C9.22101 3.16667 9.43297 3.07887 9.58926 2.92259C9.74554 2.76631 9.83333 2.55435 9.83333 2.33333C9.83333 2.11232 9.74554 1.90036 9.58926 1.74408C9.43297 1.5878 9.22101 1.5 9 1.5H4C3.33696 1.5 2.70107 1.76339 2.23223 2.23223C1.76339 2.70107 1.5 3.33696 1.5 4V14C1.5 14.663 1.76339 15.2989 2.23223 15.7678C2.70107 16.2366 3.33696 16.5 4 16.5H14C14.663 16.5 15.2989 16.2366 15.7678 15.7678C16.2366 15.2989 16.5 14.663 16.5 14V9C16.5 8.77899 16.4122 8.56702 16.2559 8.41074C16.0996 8.25446 15.8877 8.16667 15.6667 8.16667Z" fill="#A5B4C3"/>
<path d="M12.3334 3.16667H13.65L8.40836 8.4C8.33026 8.47747 8.26826 8.56964 8.22595 8.67119C8.18365 8.77274 8.16187 8.88166 8.16187 8.99167C8.16187 9.10168 8.18365 9.2106 8.22595 9.31215C8.26826 9.4137 8.33026 9.50586 8.40836 9.58333C8.48583 9.66144 8.578 9.72344 8.67955 9.76574C8.7811 9.80805 8.89002 9.82983 9.00003 9.82983C9.11004 9.82983 9.21896 9.80805 9.32051 9.76574C9.42206 9.72344 9.51423 9.66144 9.5917 9.58333L14.8334 4.35V5.66667C14.8334 5.88768 14.9212 6.09964 15.0774 6.25592C15.2337 6.4122 15.4457 6.5 15.6667 6.5C15.8877 6.5 16.0997 6.4122 16.256 6.25592C16.4122 6.09964 16.5 5.88768 16.5 5.66667V2.33333C16.5 2.11232 16.4122 1.90036 16.256 1.74408C16.0997 1.5878 15.8877 1.5 15.6667 1.5H12.3334C12.1123 1.5 11.9004 1.5878 11.7441 1.74408C11.5878 1.90036 11.5 2.11232 11.5 2.33333C11.5 2.55435 11.5878 2.76631 11.7441 2.92259C11.9004 3.07887 12.1123 3.16667 12.3334 3.16667Z" fill="#A5B4C3"/>
</svg>
