<svg width="17" height="17" viewBox="0 0 17 17" fill="none" xmlns="http://www.w3.org/2000/svg">
<path d="M15.9391 6.93309H15.2947V6.89989H8.09472V10.0998H12.6159C11.9563 11.9626 10.1839 13.2998 8.09472 13.2998C5.44392 13.2998 3.29473 11.1506 3.29473 8.49986C3.29473 5.84911 5.44392 3.69994 8.09472 3.69994C9.31832 3.69994 10.4315 4.16154 11.2791 4.91552L13.5419 2.65276C12.1131 1.32119 10.2019 0.5 8.09472 0.5C3.67672 0.5 0.0947266 4.08194 0.0947266 8.49986C0.0947266 12.9178 3.67672 16.4997 8.09472 16.4997C12.5127 16.4997 16.0947 12.9178 16.0947 8.49986C16.0947 7.96347 16.0395 7.43988 15.9391 6.93309Z" fill="#F9F9F9"/>
<path d="M1.01709 4.77632L3.64549 6.70389C4.35669 4.94312 6.07909 3.69994 8.09469 3.69994C9.31829 3.69994 10.4315 4.16153 11.2791 4.91552L13.5419 2.65276C12.1131 1.32119 10.2019 0.5 8.09469 0.5C5.02189 0.5 2.35709 2.23477 1.01709 4.77632Z" fill="#FF3D00"/>
<path d="M8.09465 16.4994C10.1611 16.4994 12.0387 15.7086 13.4583 14.4226L10.9823 12.3275C10.1521 12.9588 9.13764 13.3003 8.09465 13.2994C6.01385 13.2994 4.24705 11.9727 3.58145 10.1211L0.972656 12.1311C2.29666 14.7218 4.98545 16.4994 8.09465 16.4994Z" fill="#4CAF50"/>
<path d="M15.9391 6.93359H15.2947V6.90039H8.09473V10.1003H12.6159C12.3004 10.9869 11.7321 11.7616 10.9811 12.3287L10.9823 12.3279L13.4583 14.4231C13.2831 14.5823 16.0947 12.5003 16.0947 8.50036C16.0947 7.96397 16.0395 7.44038 15.9391 6.93359Z" fill="#1976D2"/>
</svg>
