<svg width="20" height="20" viewBox="0 0 20 20" fill="none" xmlns="http://www.w3.org/2000/svg">
<path d="M13.1414 11.7121L13.363 11.9338C13.5771 12.1488 13.8627 12.2673 14.1668 12.2673C14.4708 12.2673 14.7564 12.1488 14.9702 11.9342L18.0001 8.90233C18.215 8.68802 18.3334 8.40227 18.3334 8.09801C18.3334 7.79376 18.215 7.508 18.0005 7.29405L17.7785 7.07197C17.6305 6.92393 17.3908 6.92393 17.2429 7.07197L13.1414 11.1761C12.9934 11.3241 12.9934 11.564 13.1414 11.7121Z" fill="#73C8EB"/>
<path d="M8.28197 6.85232C8.35594 6.92636 8.45289 6.96336 8.5498 6.96336C8.64671 6.96336 8.74362 6.92636 8.81762 6.85232L12.9192 2.74815C13.0671 2.6001 13.0671 2.36023 12.9192 2.21219L12.6976 1.99046C12.2692 1.56035 11.5179 1.56071 11.0903 1.9901L8.06038 5.02193C7.84547 5.23623 7.72711 5.52199 7.72711 5.82624C7.72711 6.1305 7.84547 6.41625 8.06003 6.6302L8.28197 6.85232Z" fill="#73C8EB"/>
<path d="M12.0699 10.6414C12.1439 10.7155 12.2408 10.7525 12.3378 10.7525C12.4347 10.7525 12.5316 10.7155 12.6056 10.6414L16.7071 6.53724C16.8551 6.3892 16.8551 6.14932 16.7071 6.00128L13.9905 3.28291C13.8425 3.13486 13.6028 3.13486 13.4549 3.28291L9.35337 7.38708C9.2054 7.53512 9.2054 7.775 9.35337 7.92304L9.898 8.46802C6.96476 11.0114 3.19473 14.6601 2.11057 15.745C1.82425 16.0315 1.66669 16.412 1.66669 16.8169C1.66669 17.6531 2.34619 18.333 3.18184 18.333C3.58652 18.333 3.96677 18.1754 4.2531 17.8889C5.55816 16.5829 9.1158 12.8963 11.5344 10.1055L12.0699 10.6414Z" fill="#73C8EB"/>
</svg>
