<svg width="40" height="40" viewBox="0 0 40 40" fill="none" xmlns="http://www.w3.org/2000/svg">
<rect width="40" height="40" rx="6" fill="#E7F8FF"/>
<path d="M25.8333 12.5H14.1667C11.8333 12.5 10 14.3333 10 16.6667H30C30 14.3333 28.1667 12.5 25.8333 12.5Z" fill="#A5B4C3"/>
<path d="M10 23.332C10 25.6654 11.8333 27.4987 14.1667 27.4987H25.8333C28.1667 27.4987 30 25.6654 30 23.332V18.332H10V23.332ZM15.8333 22.9154C15.8333 23.582 15.25 24.1654 14.5833 24.1654C13.9167 24.1654 13.3333 23.582 13.3333 22.9154C13.3333 22.2487 13.9167 21.6654 14.5833 21.6654C15.25 21.6654 15.8333 22.2487 15.8333 22.9154Z" fill="#A5B4C3"/>
</svg>
