<svg width="24" height="24" viewBox="0 0 24 24" fill="none" xmlns="http://www.w3.org/2000/svg">
<path d="M10.3333 21.1654C10.3333 21.3864 10.2455 21.5983 10.0893 21.7546C9.93297 21.9109 9.72101 21.9987 9.5 21.9987H2.83333C2.61232 21.9987 2.40036 21.9109 2.24408 21.7546C2.0878 21.5983 2 21.3864 2 21.1654C2 20.9444 2.0878 20.7324 2.24408 20.5761C2.40036 20.4198 2.61232 20.332 2.83333 20.332H9.5C9.72101 20.332 9.93297 20.4198 10.0893 20.5761C10.2455 20.7324 10.3333 20.9444 10.3333 21.1654Z" fill="#73C8EB"/>
<path d="M2.83333 18.6667H7.83333C8.05435 18.6667 8.26631 18.5789 8.42259 18.4226C8.57887 18.2663 8.66667 18.0543 8.66667 17.8333C8.66667 17.6123 8.57887 17.4004 8.42259 17.2441C8.26631 17.0878 8.05435 17 7.83333 17H2.83333C2.61232 17 2.40036 17.0878 2.24408 17.2441C2.0878 17.4004 2 17.6123 2 17.8333C2 18.0543 2.0878 18.2663 2.24408 18.4226C2.40036 18.5789 2.61232 18.6667 2.83333 18.6667V18.6667Z" fill="#73C8EB"/>
<path d="M2.83333 15.3346H6.16667C6.38768 15.3346 6.59964 15.2468 6.75592 15.0906C6.9122 14.9343 7 14.7223 7 14.5013C7 14.2803 6.9122 14.0683 6.75592 13.912C6.59964 13.7558 6.38768 13.668 6.16667 13.668H2.83333C2.61232 13.668 2.40036 13.7558 2.24408 13.912C2.0878 14.0683 2 14.2803 2 14.5013C2 14.7223 2.0878 14.9343 2.24408 15.0906C2.40036 15.2468 2.61232 15.3346 2.83333 15.3346V15.3346Z" fill="#73C8EB"/>
<path d="M12 2C9.34783 2 6.8043 3.05357 4.92893 4.92893C3.05357 6.8043 2 9.34783 2 12C2 12.0508 2.00667 12.1 2.0075 12.1508C2.27216 12.0538 2.55147 12.0028 2.83333 12H6.16667C6.57575 11.9986 6.97888 12.098 7.34046 12.2893C7.70205 12.4806 8.01096 12.758 8.23993 13.097C8.46889 13.436 8.61087 13.8262 8.65332 14.2331C8.69577 14.64 8.63739 15.051 8.48333 15.43C8.82454 15.5195 9.14271 15.6809 9.41658 15.9032C9.69045 16.1255 9.91373 16.4037 10.0715 16.7193C10.2292 17.0348 10.3179 17.3803 10.3314 17.7328C10.3449 18.0853 10.2831 18.4366 10.15 18.7633C10.4833 18.8483 10.795 19.0024 11.065 19.2154C11.335 19.4285 11.5572 19.6958 11.7174 20.0002C11.8775 20.3046 11.972 20.6392 11.9947 20.9824C12.0174 21.3256 11.9678 21.6697 11.8492 21.9925C11.9 21.9925 11.9492 22 12 22C14.6522 22 17.1957 20.9464 19.0711 19.0711C20.9464 17.1957 22 14.6522 22 12C22 9.34783 20.9464 6.8043 19.0711 4.92893C17.1957 3.05357 14.6522 2 12 2V2ZM15.0892 15.0892C14.9329 15.2454 14.721 15.3332 14.5 15.3332C14.279 15.3332 14.0671 15.2454 13.9108 15.0892L11.4108 12.5892C11.2545 12.4329 11.1667 12.221 11.1667 12V7.83333C11.1667 7.61232 11.2545 7.40036 11.4107 7.24408C11.567 7.0878 11.779 7 12 7C12.221 7 12.433 7.0878 12.5893 7.24408C12.7455 7.40036 12.8333 7.61232 12.8333 7.83333V11.655L15.0892 13.9108C15.2454 14.0671 15.3332 14.279 15.3332 14.5C15.3332 14.721 15.2454 14.9329 15.0892 15.0892V15.0892Z" fill="#73C8EB"/>
</svg>
