<svg width="24" height="24" viewBox="0 0 24 24" fill="none" xmlns="http://www.w3.org/2000/svg">
<path d="M21.1667 8.66669C20.7067 8.66669 20.3333 8.29419 20.3333 7.83336V4.50001C20.3333 4.04001 19.9592 3.66667 19.5 3.66667H16.1666C15.7066 3.66667 15.3333 3.29417 15.3333 2.83334C15.3333 2.3725 15.7066 2 16.1666 2H19.5C20.8783 2 22 3.12167 22 4.50001V7.83336C22 8.29419 21.6267 8.66669 21.1667 8.66669Z" fill="#A5B4C3"/>
<path d="M19.5 21.9987H16.1666C15.7066 21.9987 15.3333 21.6262 15.3333 21.1654C15.3333 20.7046 15.7066 20.332 16.1666 20.332H19.5C19.9592 20.332 20.3333 19.9587 20.3333 19.4987V16.1654C20.3333 15.7045 20.7067 15.332 21.1667 15.332C21.6267 15.332 22 15.7045 22 16.1654V19.4987C22 20.8771 20.8783 21.9987 19.5 21.9987Z" fill="#A5B4C3"/>
<path d="M7.83336 21.9987H4.50001C3.12167 21.9987 2 20.8771 2 19.4987V16.1654C2 15.7045 2.37333 15.332 2.83334 15.332C3.29334 15.332 3.66667 15.7045 3.66667 16.1654V19.4987C3.66667 19.9587 4.04084 20.332 4.50001 20.332H7.83336C8.29336 20.332 8.66669 20.7046 8.66669 21.1654C8.66669 21.6262 8.29336 21.9987 7.83336 21.9987Z" fill="#A5B4C3"/>
<path d="M2.83334 8.66669C2.37333 8.66669 2 8.29419 2 7.83336V4.50001C2 3.12167 3.12167 2 4.50001 2H7.83336C8.29336 2 8.66669 2.3725 8.66669 2.83334C8.66669 3.29417 8.29336 3.66667 7.83336 3.66667H4.50001C4.04084 3.66667 3.66667 4.04001 3.66667 4.50001V7.83336C3.66667 8.29419 3.29334 8.66669 2.83334 8.66669Z" fill="#A5B4C3"/>
<path d="M17.0001 11.168C16.5401 11.168 16.1668 10.7955 16.1668 10.3347V7.83464H7.83342V10.3347C7.83342 10.7955 7.46009 11.168 7.00008 11.168C6.54008 11.168 6.16675 10.7955 6.16675 10.3347V7.83464C6.16675 6.91547 6.91425 6.16797 7.83342 6.16797H16.1668C17.086 6.16797 17.8335 6.91547 17.8335 7.83464V10.3347C17.8335 10.7955 17.4601 11.168 17.0001 11.168Z" fill="#A5B4C3"/>
<path d="M19.5001 13.6654C19.5001 14.1262 19.1267 14.4987 18.6667 14.4987H17.8334V16.1654C17.8334 17.0845 17.0859 17.832 16.1667 17.832H7.83335C6.91418 17.832 6.16667 17.0845 6.16667 16.1654V14.4987H5.33334C4.87333 14.4987 4.5 14.1262 4.5 13.6654C4.5 13.2045 4.87333 12.832 5.33334 12.832H18.6667C19.1267 12.832 19.5001 13.2045 19.5001 13.6654Z" fill="#A5B4C3"/>
</svg>
