<svg width="24" height="24" viewBox="0 0 24 24" fill="none" xmlns="http://www.w3.org/2000/svg">
<path d="M17 12C17 11.0111 16.7068 10.0444 16.1574 9.22214C15.6079 8.3999 14.8271 7.75903 13.9134 7.3806C12.9998 7.00216 11.9945 6.90314 11.0246 7.09607C10.0546 7.28899 9.16373 7.7652 8.46447 8.46446C7.76521 9.16372 7.289 10.0546 7.09608 11.0245C6.90315 11.9944 7.00217 12.9998 7.38061 13.9134C7.75904 14.827 8.39991 15.6079 9.22215 16.1573C10.0444 16.7068 11.0111 17 12 17C13.3257 16.9987 14.5967 16.4715 15.5341 15.5341C16.4715 14.5967 16.9987 13.3257 17 12ZM14.1925 12.9233L12.615 15.0258C12.5434 15.1214 12.4506 15.1989 12.3439 15.2524C12.2371 15.3058 12.1194 15.3336 12 15.3336C11.8806 15.3336 11.7629 15.3058 11.6561 15.2524C11.5494 15.1989 11.4566 15.1214 11.385 15.0258L9.8075 12.9233C9.60789 12.6569 9.5 12.3329 9.5 12C9.5 11.6671 9.60789 11.3431 9.8075 11.0767L11.385 8.97416C11.4566 8.87861 11.5494 8.80105 11.6561 8.74762C11.7629 8.6942 11.8806 8.66638 12 8.66638C12.1194 8.66638 12.2371 8.6942 12.3439 8.74762C12.4506 8.80105 12.5434 8.87861 12.615 8.97416L14.1925 11.0767C14.3921 11.3431 14.5 11.6671 14.5 12C14.5 12.3329 14.3921 12.6569 14.1925 12.9233ZM9.97084 2.20749C11.3095 1.93084 12.6905 1.93084 14.0292 2.20749L13.2892 4.75499C13.2389 4.93551 13.1281 5.09325 12.9753 5.20173C12.8225 5.31022 12.637 5.36286 12.45 5.35083C12.3017 5.33999 12.1517 5.33333 12 5.33333C11.8483 5.33333 11.6983 5.33999 11.55 5.35083C11.363 5.36271 11.1777 5.31 11.0249 5.20154C10.8721 5.09307 10.7613 4.93543 10.7108 4.75499L9.97084 2.20749ZM14.8825 5.24416L15.6242 2.68999C16.9126 3.19475 18.0827 3.96038 19.0612 4.93883C20.0396 5.91729 20.8053 7.08743 21.31 8.37583L18.7558 9.1175C18.5795 9.17042 18.3905 9.16245 18.2192 9.09488C18.0479 9.02731 17.9044 8.90407 17.8117 8.745C17.2097 7.67468 16.3253 6.79029 15.255 6.18833C15.0959 6.09562 14.9727 5.95207 14.9051 5.7808C14.8375 5.60953 14.8296 5.42051 14.8825 5.24416ZM18.6492 11.55C18.6371 11.363 18.6898 11.1775 18.7983 11.0247C18.9068 10.872 19.0645 10.7611 19.245 10.7108L21.7925 9.97083C22.0692 11.3095 22.0692 12.6905 21.7925 14.0292L19.245 13.2892C19.0645 13.2389 18.9068 13.128 18.7983 12.9752C18.6898 12.8225 18.6371 12.637 18.6492 12.45C18.66 12.3017 18.6667 12.1517 18.6667 12C18.6667 11.8483 18.66 11.6983 18.6492 11.55ZM5.245 9.0725L2.73084 8.26416C3.24395 7.00042 4.00911 5.85443 4.97963 4.89608C5.95016 3.93773 7.10571 3.18711 8.37584 2.68999L9.1175 5.24416C9.17041 5.42072 9.16235 5.60995 9.09463 5.78137C9.02691 5.95279 8.90346 6.09643 8.74417 6.18916C7.68713 6.78419 6.8113 7.65483 6.21 8.70833C6.11491 8.87009 5.96732 8.99444 5.79176 9.06069C5.6162 9.12694 5.42326 9.13111 5.245 9.0725ZM14.1433 21.7625C12.732 22.0792 11.268 22.0792 9.85667 21.7625L10.6733 19.22C10.7272 19.0444 10.8388 18.8921 10.9901 18.7879C11.1414 18.6837 11.3234 18.6336 11.5067 18.6458C11.6733 18.6592 11.8342 18.6667 12 18.6667C12.1658 18.6667 12.3333 18.6592 12.4933 18.6458C12.6766 18.6336 12.8587 18.6837 13.0099 18.7879C13.1612 18.8921 13.2728 19.0444 13.3267 19.22L14.1433 21.7625ZM5.35417 12.4933C5.36638 12.6766 5.31632 12.8586 5.2121 13.0099C5.10788 13.1612 4.95561 13.2728 4.78 13.3267L2.2375 14.1433C1.92083 12.732 1.92083 11.268 2.2375 9.85666L4.78 10.6733C4.95561 10.7272 5.10788 10.8388 5.2121 10.9901C5.31632 11.1413 5.36638 11.3234 5.35417 11.5067C5.34084 11.6667 5.33334 11.8333 5.33334 12C5.33334 12.1667 5.34084 12.3333 5.35417 12.4933ZM18.7558 14.8825L21.31 15.6242C20.8129 16.8943 20.0623 18.0498 19.1039 19.0204C18.1456 19.9909 16.9996 20.756 15.7358 21.2692L14.9275 18.755C14.8684 18.5768 14.8723 18.3837 14.9386 18.208C15.0049 18.0323 15.1296 17.8848 15.2917 17.79C16.3454 17.1887 17.2163 16.3129 17.8117 15.2558C17.9041 15.0965 18.0476 14.973 18.2189 14.9053C18.3903 14.8375 18.5794 14.8295 18.7558 14.8825ZM9.0725 18.755L8.26417 21.2692C7.01865 20.7638 5.88717 20.0137 4.93673 19.0633C3.98628 18.1128 3.23618 16.9814 2.73084 15.7358L5.245 14.9275C5.42332 14.8685 5.6165 14.8725 5.79218 14.939C5.96787 15.0054 6.11538 15.1302 6.21 15.2925C6.80486 16.3343 7.66816 17.1976 8.71 17.7925C8.87105 17.8876 8.99477 18.0349 9.06069 18.2099C9.12662 18.385 9.13078 18.5773 9.0725 18.755Z" fill="#73C8EB"/>
</svg>
