<svg width="40" height="40" viewBox="0 0 40 40" fill="none" xmlns="http://www.w3.org/2000/svg">
<rect width="40" height="40" rx="6" fill="#E7F8FF"/>
<path d="M25.8333 13.3333H24.9167C24.7233 12.3928 24.2115 11.5478 23.4677 10.9406C22.7239 10.3334 21.7935 10.0012 20.8333 10L19.1667 10C18.2065 10.0012 17.2761 10.3334 16.5323 10.9406C15.7885 11.5478 15.2767 12.3928 15.0833 13.3333H14.1667C13.062 13.3347 12.003 13.7741 11.2218 14.5552C10.4407 15.3363 10.0013 16.3953 10 17.5V20H30V17.5C29.9987 16.3953 29.5593 15.3363 28.7782 14.5552C27.997 13.7741 26.938 13.3347 25.8333 13.3333ZM16.82 13.3333C16.9917 12.8476 17.3094 12.4267 17.7294 12.1284C18.1495 11.8301 18.6514 11.6688 19.1667 11.6667H20.8333C21.3485 11.6688 21.8505 11.8301 22.2706 12.1284C22.6906 12.4267 23.0083 12.8476 23.18 13.3333H16.82Z" fill="#A5B4C3"/>
<path d="M20.8333 22.5013C20.8333 22.7223 20.7455 22.9343 20.5893 23.0906C20.433 23.2468 20.221 23.3346 20 23.3346C19.779 23.3346 19.567 23.2468 19.4107 23.0906C19.2545 22.9343 19.1667 22.7223 19.1667 22.5013V21.668H10V25.8346C10.0013 26.9393 10.4407 27.9983 11.2218 28.7795C12.003 29.5606 13.062 30 14.1667 30.0013H25.8333C26.938 30 27.997 29.5606 28.7782 28.7795C29.5593 27.9983 29.9987 26.9393 30 25.8346V21.668H20.8333V22.5013Z" fill="#A5B4C3"/>
</svg>
