<svg width="24" height="24" viewBox="0 0 24 24" fill="none" xmlns="http://www.w3.org/2000/svg">
<path d="M17.8333 4.5H6.16667C3.83333 4.5 2 6.33333 2 8.66667H22C22 6.33333 20.1667 4.5 17.8333 4.5Z" fill="#73C8EB"/>
<path d="M2 15.332C2 17.6654 3.83333 19.4987 6.16667 19.4987H17.8333C20.1667 19.4987 22 17.6654 22 15.332V10.332H2V15.332ZM7.83333 14.9154C7.83333 15.582 7.25 16.1654 6.58333 16.1654C5.91667 16.1654 5.33333 15.582 5.33333 14.9154C5.33333 14.2487 5.91667 13.6654 6.58333 13.6654C7.25 13.6654 7.83333 14.2487 7.83333 14.9154Z" fill="#73C8EB"/>
</svg>
