<svg width="18" height="18" viewBox="0 0 18 18" fill="none" xmlns="http://www.w3.org/2000/svg">
<path d="M9.0625 11.6667H3.85417C3.16375 11.6658 2.50185 11.3912 2.01366 10.903C1.52546 10.4148 1.25083 9.75291 1.25 9.0625L1.25 3.85417C1.25083 3.16375 1.52546 2.50185 2.01366 2.01366C2.50185 1.52546 3.16375 1.25083 3.85417 1.25L9.0625 1.25C9.75291 1.25083 10.4148 1.52546 10.903 2.01366C11.3912 2.50185 11.6658 3.16375 11.6667 3.85417V9.0625C11.6658 9.75291 11.3912 10.4148 10.903 10.903C10.4148 11.3912 9.75291 11.6658 9.0625 11.6667ZM13.75 11.1458V4.375C13.75 4.23687 13.6951 4.10439 13.5975 4.00672C13.4998 3.90904 13.3673 3.85417 13.2292 3.85417C13.091 3.85417 12.9586 3.90904 12.8609 4.00672C12.7632 4.10439 12.7083 4.23687 12.7083 4.375V11.1458C12.7083 11.5602 12.5437 11.9577 12.2507 12.2507C11.9577 12.5437 11.5602 12.7083 11.1458 12.7083H4.375C4.23687 12.7083 4.10439 12.7632 4.00672 12.8609C3.90904 12.9586 3.85417 13.091 3.85417 13.2292C3.85417 13.3673 3.90904 13.4998 4.00672 13.5975C4.10439 13.6951 4.23687 13.75 4.375 13.75H11.1458C11.8362 13.7492 12.4981 13.4745 12.9863 12.9863C13.4745 12.4981 13.7492 11.8362 13.75 11.1458Z" fill="#A5B4C3"/>
</svg>
