<svg width="24" height="24" viewBox="0 0 24 24" fill="none" xmlns="http://www.w3.org/2000/svg">
<path d="M17.8355 2H13.6709C13.45 2 13.2382 2.08775 13.082 2.24395C12.9258 2.40015 12.838 2.61201 12.838 2.83291C12.838 3.05381 12.9258 3.26566 13.082 3.42186C13.2382 3.57806 13.45 3.66581 13.6709 3.66581H17.8355C18.2065 3.66725 18.5724 3.75268 18.9058 3.91569L2.25428 20.568C2.17473 20.6448 2.11127 20.7367 2.06762 20.8384C2.02397 20.94 2.00099 21.0493 2.00003 21.1599C1.99907 21.2704 2.02014 21.3801 2.06202 21.4825C2.1039 21.5848 2.16575 21.6778 2.24395 21.756C2.32216 21.8342 2.41515 21.8961 2.51751 21.938C2.61987 21.9799 2.72955 22.0009 2.84014 22C2.95074 21.999 3.06003 21.976 3.16165 21.9324C3.26327 21.8887 3.35517 21.8253 3.43201 21.7457L20.0843 5.09425C20.2473 5.42758 20.3328 5.79349 20.3342 6.16453V10.3291C20.3342 10.55 20.4219 10.7618 20.5781 10.918C20.7343 11.0742 20.9462 11.162 21.1671 11.162C21.388 11.162 21.5998 11.0742 21.756 10.918C21.9122 10.7618 22 10.55 22 10.3291V6.16453C21.9987 5.06044 21.5595 4.00194 20.7788 3.22122C19.9981 2.44051 18.9396 2.00132 17.8355 2V2Z" fill="#73C8EB"/>
<path d="M7.00765 10.3273C7.66659 10.3273 8.31072 10.1319 8.85861 9.76584C9.40649 9.39975 9.83351 8.87943 10.0857 8.27065C10.3378 7.66187 10.4038 6.992 10.2753 6.34572C10.1467 5.69945 9.82941 5.10581 9.36347 4.63987C8.89753 4.17394 8.30389 3.85663 7.65762 3.72808C7.01135 3.59953 6.34147 3.66551 5.73269 3.91767C5.12392 4.16983 4.60359 4.59685 4.23751 5.14474C3.87142 5.69262 3.67603 6.33676 3.67603 6.99569C3.67603 7.87929 4.02704 8.72671 4.65184 9.35151C5.27664 9.97631 6.12405 10.3273 7.00765 10.3273ZM7.00765 5.32988C7.33712 5.32988 7.65919 5.42758 7.93313 5.61062C8.20707 5.79366 8.42058 6.05382 8.54666 6.35821C8.67275 6.6626 8.70573 6.99754 8.64146 7.32068C8.57718 7.64381 8.41853 7.94063 8.18556 8.1736C7.95259 8.40657 7.65577 8.56522 7.33264 8.6295C7.0095 8.69377 6.67456 8.66078 6.37017 8.5347C6.06579 8.40862 5.80562 8.19511 5.62258 7.92117C5.43954 7.64723 5.34184 7.32516 5.34184 6.99569C5.34184 6.55389 5.51734 6.13018 5.82974 5.81778C6.14215 5.50538 6.56585 5.32988 7.00765 5.32988Z" fill="#73C8EB"/>
<path d="M17.0025 13.6602C16.3436 13.6602 15.6995 13.8556 15.1516 14.2216C14.6037 14.5877 14.1767 15.1081 13.9245 15.7168C13.6723 16.3256 13.6064 16.9955 13.7349 17.6418C13.8635 18.288 14.1808 18.8817 14.6467 19.3476C15.1126 19.8135 15.7063 20.1308 16.3526 20.2594C16.9988 20.3879 17.6687 20.322 18.2775 20.0698C18.8863 19.8176 19.4066 19.3906 19.7727 18.8427C20.1388 18.2949 20.3342 17.6507 20.3342 16.9918C20.3342 16.1082 19.9831 15.2608 19.3583 14.636C18.7335 14.0112 17.8861 13.6602 17.0025 13.6602ZM17.0025 18.6576C16.6731 18.6576 16.351 18.5599 16.0771 18.3769C15.8031 18.1938 15.5896 17.9337 15.4635 17.6293C15.3374 17.3249 15.3044 16.9899 15.3687 16.6668C15.433 16.3437 15.5917 16.0468 15.8246 15.8139C16.0576 15.5809 16.3544 15.4223 16.6775 15.358C17.0007 15.2937 17.3356 15.3267 17.64 15.4528C17.9444 15.5789 18.2046 15.7924 18.3876 16.0663C18.5706 16.3402 18.6683 16.6623 18.6683 16.9918C18.6683 17.4336 18.4928 17.8573 18.1804 18.1697C17.868 18.4821 17.4443 18.6576 17.0025 18.6576Z" fill="#73C8EB"/>
</svg>
