<svg width="40" height="40" viewBox="0 0 40 40" fill="none" xmlns="http://www.w3.org/2000/svg">
<rect width="40" height="40" rx="6" fill="#E7F8FF"/>
<path d="M23.3333 20.832C22.9452 21.3495 22.4419 21.7695 21.8634 22.0588C21.2848 22.3481 20.6468 22.4987 20 22.4987C19.3531 22.4987 18.7152 22.3481 18.1366 22.0588C17.558 21.7695 17.0548 21.3495 16.6667 20.832C16.34 21.2723 15.929 21.6432 15.4575 21.923C14.9861 22.2028 14.4636 22.3859 13.9206 22.4617C13.3777 22.5375 12.825 22.5044 12.295 22.3644C11.7649 22.2244 11.2681 21.9802 10.8333 21.6462V25.832C10.8347 26.9367 11.2741 27.9957 12.0552 28.7768C12.8363 29.5579 13.8953 29.9974 15 29.9987H25C26.1046 29.9974 27.1637 29.5579 27.9448 28.7768C28.7259 27.9957 29.1653 26.9367 29.1666 25.832V21.6437C28.7321 21.9779 28.2353 22.2222 27.7054 22.3624C27.1754 22.5026 26.6228 22.5359 26.0799 22.4604C25.5369 22.3848 25.0144 22.2019 24.5429 21.9224C24.0713 21.6428 23.6601 21.2721 23.3333 20.832Z" fill="#A5B4C3"/>
<path d="M28.0833 12.6092C27.922 11.8668 27.5104 11.2024 26.9175 10.7274C26.3246 10.2523 25.5864 9.99554 24.8266 10.0001H24.1666V12.5001C24.1666 12.7211 24.0788 12.933 23.9226 13.0893C23.7663 13.2456 23.5543 13.3334 23.3333 13.3334C23.1123 13.3334 22.9003 13.2456 22.7441 13.0893C22.5878 12.933 22.5 12.7211 22.5 12.5001V10.0001H17.5V12.5001C17.5 12.7211 17.4122 12.933 17.2559 13.0893C17.0996 13.2456 16.8877 13.3334 16.6667 13.3334C16.4456 13.3334 16.2337 13.2456 16.0774 13.0893C15.9211 12.933 15.8333 12.7211 15.8333 12.5001V10.0001H15.1733C14.4135 9.99558 13.6752 10.2525 13.0823 10.7277C12.4893 11.2029 12.0778 11.8675 11.9167 12.6101L10.8517 17.4167L10.8333 18.35C10.8344 18.6783 10.9002 19.0032 11.0268 19.3061C11.1535 19.609 11.3385 19.884 11.5715 20.1154C12.0419 20.5826 12.6786 20.8439 13.3417 20.8417C13.67 20.8406 13.9948 20.7749 14.2977 20.6482C14.6006 20.5216 14.8756 20.3365 15.107 20.1036C15.3384 19.8707 15.5216 19.5944 15.6462 19.2907C15.7708 18.987 15.8344 18.6617 15.8333 18.3334C15.8333 18.1124 15.9211 17.9004 16.0774 17.7441C16.2337 17.5878 16.4456 17.5 16.6667 17.5C16.8877 17.5 17.0996 17.5878 17.2559 17.7441C17.4122 17.9004 17.5 18.1124 17.5 18.3334C17.5 18.9964 17.7634 19.6323 18.2322 20.1011C18.7011 20.57 19.3369 20.8334 20 20.8334C20.663 20.8334 21.2989 20.57 21.7677 20.1011C22.2366 19.6323 22.5 18.9964 22.5 18.3334C22.5 18.1124 22.5878 17.9004 22.7441 17.7441C22.9003 17.5878 23.1123 17.5 23.3333 17.5C23.5543 17.5 23.7663 17.5878 23.9226 17.7441C24.0788 17.9004 24.1666 18.1124 24.1666 18.3334C24.1666 18.9964 24.43 19.6323 24.8989 20.1011C25.3677 20.57 26.0036 20.8334 26.6666 20.8334C27.3297 20.8334 27.9656 20.57 28.4344 20.1011C28.9032 19.6323 29.1666 18.9964 29.1666 18.3334V17.5892L28.0833 12.6092Z" fill="#A5B4C3"/>
</svg>
