<svg width="24" height="24" viewBox="0 0 24 24" fill="none" xmlns="http://www.w3.org/2000/svg">
<path d="M8.53835 2V4.30769H5.46143V19.6923H8.53835V22H10.0768V19.6923H11.6153V22H13.1537V19.6923H14.3076C16.636 19.6923 18.5383 17.79 18.5383 15.4615C18.5383 13.86 17.646 12.4538 16.3268 11.7354C16.9742 11.1671 17.4331 10.4151 17.6425 9.57954C17.852 8.74397 17.802 7.86444 17.4992 7.05798C17.1965 6.25152 16.6553 5.55638 15.9477 5.06507C15.2402 4.57376 14.3998 4.30959 13.5383 4.30769H13.1537V2H11.6153V4.30769H10.0768V2H8.53835ZM6.99989 5.84615H13.5383C15.0345 5.84615 16.2307 7.04231 16.2307 8.53846C16.2307 10.0346 15.0345 11.2308 13.5383 11.2308H6.99989V5.84615ZM6.99989 12.7692H14.3076C15.8037 12.7692 16.9999 13.9654 16.9999 15.4615C16.9999 16.9577 15.8037 18.1538 14.3076 18.1538H6.99989V12.7692Z" fill="#73C8EB"/>
</svg>
