<svg width="18" height="18" viewBox="0 0 18 18" fill="none" xmlns="http://www.w3.org/2000/svg">
<path d="M15.875 6.50002C15.53 6.50002 15.25 6.22064 15.25 5.87502V3.37501C15.25 3.03001 14.9694 2.75001 14.625 2.75001H12.125C11.78 2.75001 11.5 2.47063 11.5 2.125C11.5 1.77938 11.78 1.5 12.125 1.5H14.625C15.6588 1.5 16.5 2.34125 16.5 3.37501V5.87502C16.5 6.22064 16.22 6.50002 15.875 6.50002Z" fill="#A5B4C3"/>
<path d="M14.625 16.5H12.125C11.78 16.5 11.5 16.2206 11.5 15.875C11.5 15.5294 11.78 15.25 12.125 15.25H14.625C14.9694 15.25 15.25 14.97 15.25 14.625V12.125C15.25 11.7794 15.53 11.5 15.875 11.5C16.22 11.5 16.5 11.7794 16.5 12.125V14.625C16.5 15.6588 15.6588 16.5 14.625 16.5Z" fill="#A5B4C3"/>
<path d="M5.87502 16.5H3.37501C2.34125 16.5 1.5 15.6588 1.5 14.625V12.125C1.5 11.7794 1.78 11.5 2.125 11.5C2.47 11.5 2.75001 11.7794 2.75001 12.125V14.625C2.75001 14.97 3.03063 15.25 3.37501 15.25H5.87502C6.22002 15.25 6.50002 15.5294 6.50002 15.875C6.50002 16.2206 6.22002 16.5 5.87502 16.5Z" fill="#A5B4C3"/>
<path d="M2.125 6.50002C1.78 6.50002 1.5 6.22064 1.5 5.87502V3.37501C1.5 2.34125 2.34125 1.5 3.37501 1.5H5.87502C6.22002 1.5 6.50002 1.77938 6.50002 2.125C6.50002 2.47063 6.22002 2.75 5.87502 2.75H3.37501C3.03063 2.75 2.75001 3.03001 2.75001 3.37501V5.87502C2.75001 6.22064 2.47 6.50002 2.125 6.50002Z" fill="#A5B4C3"/>
<path d="M12.7501 8.37502C12.4051 8.37502 12.1251 8.09564 12.1251 7.75001V5.87501H5.87507V7.75001C5.87507 8.09564 5.59507 8.37502 5.25006 8.37502C4.90506 8.37502 4.62506 8.09564 4.62506 7.75001V5.87501C4.62506 5.18563 5.18569 4.625 5.87507 4.625H12.1251C12.8145 4.625 13.3751 5.18563 13.3751 5.87501V7.75001C13.3751 8.09564 13.0951 8.37502 12.7501 8.37502Z" fill="#A5B4C3"/>
<path d="M14.625 10.25C14.625 10.5956 14.345 10.875 14 10.875H13.375V12.125C13.375 12.8144 12.8144 13.375 12.125 13.375H5.87501C5.18563 13.375 4.625 12.8144 4.625 12.125V10.875H4C3.655 10.875 3.375 10.5956 3.375 10.25C3.375 9.90438 3.655 9.625 4 9.625H14C14.345 9.625 14.625 9.90438 14.625 10.25Z" fill="#A5B4C3"/>
</svg>
