<svg width="32" height="32" viewBox="0 0 32 32" fill="none" xmlns="http://www.w3.org/2000/svg">
<path fill-rule="evenodd" clip-rule="evenodd" d="M7.22656 0H24.7734C26.6884 0.00552235 28.5233 0.772212 29.8773 2.13258C31.2314 3.49294 31.9945 5.3364 32 7.26024V24.7424C31.9938 26.6658 31.2304 28.5086 29.8764 29.8684C28.5224 31.2282 26.6879 31.9945 24.7734 32H7.22656C5.3121 31.9945 3.47758 31.2282 2.1236 29.8684C0.769619 28.5086 0.00618337 26.6658 0 24.7424V7.26024C0.00549674 5.3364 0.76863 3.49294 2.12268 2.13258C3.47674 0.772212 5.31165 0.00552235 7.22656 0V0Z" fill="#1CA1F1"/>
<path fill-rule="evenodd" clip-rule="evenodd" d="M26.7435 9.31518C25.9392 9.6729 25.0853 9.90666 24.2109 10.0085C25.1305 9.4571 25.8199 8.59209 26.1522 7.57272C25.2856 8.08613 24.3381 8.44883 23.3502 8.6454C22.745 8.00068 21.9601 7.55261 21.0972 7.35925C20.2344 7.1659 19.3333 7.23618 18.5109 7.56098C17.6884 7.88579 16.9825 8.45014 16.4846 9.1809C15.9867 9.91166 15.7198 10.7751 15.7184 11.6594C15.7186 11.9974 15.7563 12.3344 15.8309 12.664C14.0768 12.5758 12.3608 12.1196 10.7944 11.3249C9.22809 10.5303 7.84645 9.41497 6.73927 8.0515C6.34669 8.72497 6.13994 9.49059 6.14014 10.2701C6.14068 10.995 6.32004 11.7085 6.66232 12.3474C7.0046 12.9863 7.49923 13.5309 8.10237 13.933C7.40189 13.909 6.71699 13.7198 6.10351 13.3809V13.4385C6.10036 14.4595 6.45148 15.4499 7.09701 16.241C7.74253 17.032 8.64248 17.5746 9.64337 17.7763C9.26382 17.8793 8.87239 17.9321 8.47911 17.9333C8.1999 17.9316 7.92142 17.9044 7.64713 17.8522C7.92963 18.7282 8.47849 19.4943 9.21717 20.0435C9.95585 20.5927 10.8475 20.8976 11.7678 20.9159C9.91563 22.3675 7.56372 23.026 5.22705 22.7473C7.24475 24.045 9.5938 24.7336 11.9928 24.7304C20.1033 24.7304 24.5511 18.0065 24.5511 12.1722C24.5511 11.9786 24.5511 11.7902 24.538 11.5992C25.4025 10.9781 26.1479 10.2062 26.7383 9.32041L26.7435 9.31518Z" fill="white"/>
</svg>
