<svg width="32" height="32" viewBox="0 0 32 32" fill="none" xmlns="http://www.w3.org/2000/svg">
<g clip-path="url(#clip0)">
<path fill-rule="evenodd" clip-rule="evenodd" d="M16 0C24.8367 0 32.0001 7.16343 32.0001 16C32.0001 24.8367 24.8367 32.0001 16 32.0001C7.16343 32.0001 0 24.8367 0 16C0 7.16343 7.16343 0 16 0ZM18.148 11.5083C18.7024 11.6266 19.1275 11.8377 19.4907 12.1784C19.9579 12.6203 20.2142 13.1551 20.3267 13.9237C20.4027 14.4247 20.3718 14.6218 20.1944 14.7851C20.0283 14.937 19.7215 14.9427 19.5357 14.7992C19.4007 14.6978 19.3584 14.5909 19.3274 14.3008C19.2908 13.9152 19.2232 13.645 19.1079 13.3944C18.8601 12.8624 18.4238 12.5865 17.6863 12.4964C17.34 12.4543 17.2359 12.4148 17.1232 12.2825C16.9178 12.0375 16.9966 11.6408 17.2809 11.4943C17.3879 11.4408 17.4329 11.4351 17.6694 11.4493C17.8157 11.4577 18.0326 11.4831 18.148 11.5083ZM17.3541 7.34218C18.3225 7.46324 19.1051 7.6969 19.9636 8.11633C20.808 8.53018 21.3485 8.92138 22.0635 9.63361C22.7335 10.3064 23.1051 10.8159 23.4992 11.6069C24.0481 12.7103 24.3606 14.0221 24.414 15.4662C24.4338 15.9588 24.4196 16.0686 24.307 16.2093C24.0931 16.4824 23.623 16.4373 23.4626 16.1306C23.4119 16.0292 23.3978 15.9421 23.381 15.5479C23.3528 14.9427 23.3106 14.5514 23.2262 14.0841C22.894 12.2515 22.0157 10.7878 20.6138 9.73777C19.4456 8.85956 18.238 8.43159 16.656 8.33866C16.1212 8.30775 16.0283 8.28798 15.9072 8.19514C15.682 8.01774 15.6708 7.60119 15.8874 7.40698C16.0197 7.28593 16.1127 7.26903 16.5715 7.28305C16.8108 7.29149 17.1626 7.31962 17.354 7.34218V7.34209L17.3541 7.34218ZM10.9191 7.64622C11.0177 7.68001 11.1697 7.75882 11.257 7.81508C11.7919 8.1697 13.2809 10.0755 13.7679 11.027C14.0465 11.5702 14.1395 11.9727 14.0523 12.2711C13.9622 12.592 13.813 12.7609 13.1458 13.2986C12.8784 13.5154 12.6279 13.7377 12.5885 13.7968C12.4871 13.9432 12.4054 14.2304 12.4054 14.433C12.4083 14.9031 12.7122 15.756 13.1121 16.412C13.4217 16.9215 13.9763 17.5745 14.5251 18.0757C15.1697 18.6667 15.7384 19.0693 16.3802 19.3874C17.2049 19.7984 17.7089 19.9025 18.0776 19.7308C18.1704 19.6887 18.269 19.6323 18.3 19.6071C18.3281 19.5816 18.5448 19.317 18.7814 19.0243C19.2374 18.4501 19.3414 18.3571 19.654 18.2502C20.051 18.1151 20.4563 18.1516 20.8644 18.3599C21.1741 18.5204 21.8496 18.9399 22.2859 19.2438C22.8601 19.6463 24.0875 20.6485 24.2536 20.8484C24.5464 21.2087 24.597 21.6703 24.4 22.1799C24.1916 22.7175 23.3809 23.7253 22.8151 24.1559C22.3027 24.5444 21.9397 24.6935 21.4611 24.7161C21.067 24.7358 20.9037 24.702 20.3998 24.4937C16.4476 22.8638 13.2921 20.4317 10.7868 17.0903C9.4778 15.345 8.48132 13.5351 7.80001 11.6574C7.40314 10.5624 7.38346 10.0866 7.70996 9.52647C7.8507 9.29002 8.45031 8.70452 8.88663 8.37802C9.61287 7.83754 9.94791 7.63767 10.2154 7.58142C10.3983 7.54196 10.7164 7.57297 10.9191 7.64622H10.9191ZM17.5483 9.38305C19.257 9.63351 20.5801 10.4274 21.4471 11.7167C21.9341 12.443 22.238 13.2959 22.3422 14.2107C22.3788 14.5457 22.3788 15.1566 22.3394 15.258C22.3027 15.3537 22.1846 15.4831 22.0832 15.5367C21.9735 15.5929 21.7399 15.5873 21.6104 15.5198C21.3936 15.41 21.3288 15.2355 21.3288 14.7626C21.3288 14.0335 21.1402 13.265 20.8137 12.6683C20.4421 11.9871 19.9017 11.4241 19.243 11.0327C18.6772 10.6949 17.8411 10.4444 17.0782 10.3824C16.8023 10.3599 16.6504 10.3037 16.5462 10.1826C16.3858 9.99966 16.3688 9.75198 16.504 9.54644C16.6504 9.31844 16.8755 9.28187 17.5483 9.38315V9.38305Z" fill="#7B519D"/>
</g>
<defs>
<clipPath id="clip0">
<rect width="32" height="32" fill="white"/>
</clipPath>
</defs>
</svg>
