<svg width="32" height="32" viewBox="0 0 32 32" fill="none" xmlns="http://www.w3.org/2000/svg">
<g clip-path="url(#clip0)">
<path fill-rule="evenodd" clip-rule="evenodd" d="M16 0C24.8367 0 32.0001 7.16343 32.0001 16C32.0001 24.8367 24.8367 32.0001 16 32.0001C7.16343 32.0001 0 24.8367 0 16C0 7.16343 7.16343 0 16 0ZM25.2945 11.2095C25.4288 10.7599 25.2945 10.4271 24.6522 10.4271H22.5209C21.978 10.4271 21.7327 10.7132 21.5925 11.0286C21.5925 11.0286 20.5123 13.6678 18.9767 15.3845C18.4804 15.8808 18.2526 16.0384 17.9841 16.0384C17.8498 16.0384 17.6454 15.8808 17.6454 15.4312V11.2154C17.6454 10.6723 17.4936 10.433 17.044 10.433H13.6982C13.3596 10.433 13.1552 10.684 13.1552 10.9235C13.1552 11.4373 13.9201 11.5541 14.0019 12.9963V16.1319C14.0019 16.8208 13.8792 16.9435 13.6048 16.9435C12.8808 16.9435 11.1291 14.2926 10.0839 11.2563C9.87956 10.6665 9.67518 10.4271 9.1321 10.4271H7.00081C6.39361 10.4271 6.27101 10.7132 6.27101 11.0286C6.27101 11.595 6.99505 14.3919 9.63428 18.088C11.3919 20.6163 13.8735 21.9826 16.1272 21.9826C17.4819 21.9826 17.6454 21.6789 17.6454 21.1534V19.2441C17.6454 18.6368 17.7739 18.5142 18.2001 18.5142C18.5154 18.5142 19.0584 18.6719 20.3197 19.8922C21.7619 21.3344 22.0013 21.9826 22.8129 21.9826H24.9441C25.5514 21.9826 25.855 21.6789 25.6798 21.0775C25.4872 20.4819 24.7982 19.6119 23.8814 18.5842C23.385 18.0003 22.6435 17.3638 22.4158 17.0486C22.1005 16.6398 22.1881 16.4647 22.4158 16.1027C22.4158 16.1027 25.0083 12.4474 25.2828 11.2095H25.2945Z" fill="#45668E"/>
</g>
<defs>
<clipPath id="clip0">
<rect width="32" height="32" fill="white"/>
</clipPath>
</defs>
</svg>
