<svg width="32" height="32" viewBox="0 0 32 32" fill="none" xmlns="http://www.w3.org/2000/svg">
<path fill-rule="evenodd" clip-rule="evenodd" d="M28.6667 9.33464C29.7713 9.33464 30.6667 10.2301 30.6667 11.3346V14.668H25.3334C23.1242 14.668 21.3334 16.4588 21.3334 18.668C21.3334 20.8771 23.1242 22.668 25.3334 22.668H30.6667V26.0013C30.6667 27.1059 29.7713 28.0013 28.6667 28.0013H3.33338C2.22881 28.0013 1.33337 27.1059 1.33337 26.0013V6.66797C1.33337 5.5634 2.2288 4.66797 3.33337 4.66797H23.3334C24.4379 4.66797 25.3334 5.5634 25.3334 6.66797V7.33464H5.66671C5.11442 7.33464 4.66671 7.78235 4.66671 8.33464C4.66671 8.88692 5.11442 9.33464 5.66671 9.33464H28.6667ZM25.3334 16.668C24.2288 16.668 23.3334 17.5634 23.3334 18.668C23.3334 19.7725 24.2288 20.668 25.3334 20.668H30.6667V16.668H25.3334Z" fill="#73C8EB"/>
</svg>
