<svg width="18" height="18" viewBox="0 0 18 18" fill="none" xmlns="http://www.w3.org/2000/svg">
<path d="M15.8477 4.5329C13.3546 0.689326 8.26445 -0.453358 4.31699 1.93589C0.473419 4.32514 -0.773146 9.51916 1.71998 13.3627L1.92775 13.6744L1.0967 16.7908L4.21311 15.9597L4.52476 16.1675C5.8752 16.8947 7.32953 17.3102 8.78385 17.3102C10.3421 17.3102 11.9003 16.8947 13.2507 16.0636C17.0943 13.5705 18.237 8.48036 15.8477 4.5329ZM13.6662 12.5317C13.2507 13.155 12.7313 13.5705 12.0041 13.6744C11.5886 13.6744 11.0692 13.8821 8.99161 13.0511C7.22565 12.2201 5.77132 10.8696 4.73252 9.3114C4.10923 8.58424 3.79759 7.64931 3.69371 6.71439C3.69371 5.88335 4.00535 5.15618 4.52476 4.63678C4.73252 4.42902 4.94028 4.32514 5.14804 4.32514H5.66744C5.8752 4.32514 6.08296 4.32514 6.18684 4.74066C6.3946 5.26006 6.914 6.50663 6.914 6.61051C7.01789 6.71439 7.01789 6.92215 6.914 7.02603C7.01789 7.23379 6.91401 7.44155 6.81012 7.54543C6.70624 7.64931 6.60236 7.85707 6.49848 7.96095C6.29072 8.06484 6.18684 8.2726 6.29072 8.48036C6.70624 9.10364 7.22565 9.72692 7.74505 10.2463C8.36833 10.7657 8.99161 11.1812 9.71878 11.4929C9.92654 11.5968 10.1343 11.5968 10.2382 11.389C10.3421 11.1812 10.8615 10.6618 11.0692 10.4541C11.277 10.2463 11.3809 10.2463 11.5886 10.3502L13.2507 11.1812C13.4585 11.2851 13.6662 11.389 13.7701 11.4929C13.874 11.8045 13.874 12.2201 13.6662 12.5317Z" fill="#D7E1EB"/>
</svg>
